<svg xmlns:rdf="http://www.w3.org/1999/02/22-rdf-syntax-ns#" xmlns="http://www.w3.org/2000/svg" xml:space="preserve" height="25" width="25" version="1.1" xmlns:cc="http://creativecommons.org/ns#" xmlns:dc="http://purl.org/dc/elements/1.1/" viewBox="0 0 25 25"><text style="word-spacing:0px;letter-spacing:0px" line-height="125%" font-size="40px" y="18.149166" x="2.7403333" font-family="sans-serif" xml:space="preserve" fill="#000000"><tspan y="18.149166" x="2.7403333"/></text>
<path d="m6.5557 10.718q0-1.5479 0.77994-2.6392 0.77994-1.1024 1.8719-1.1024 1.0919 0 1.8719 1.1024 0.77994 1.0913 0.77994 2.6392h-1.5042q0-0.92428-0.3454-1.5813-0.33426-0.66815-0.80223-0.66815t-0.81337 0.66815q-0.3341 0.6572-0.3341 1.5812h-1.5042zm6.5961 0q0-1.5479 0.77994-2.6392 0.77994-1.1024 1.8719-1.1024 1.0919 0 1.8719 1.1024 0.77994 1.0913 0.77994 2.6392h-1.5042q0-0.92428-0.3454-1.5813-0.33426-0.66815-0.80223-0.66815t-0.81337 0.66815q-0.33426 0.65702-0.33426 1.5813h-1.5042zm-10.652 1.804q0-4.1537 2.9304-7.0824 2.9303-2.9396 7.0756-2.9396 4.156 0 7.075 2.9399 2.919 2.9287 2.919 7.0821 0 4.143-2.919 7.06-2.919 2.918-7.075 2.918-4.1453 0-7.0756-2.918-2.9304-2.917-2.9304-7.06zm1.5042 0q0 3.5189 2.4847 6.0022 2.4958 2.4722 6.0167 2.4722 3.532 0 6.0056-2.4722 2.4847-2.4833 2.4847-6.0022 0-3.5301-2.4847-6.0245-2.4735-2.4944-6.0056-2.4944-3.5209 0-6.0167 2.4944-2.4847 2.4944-2.4847 6.0245zm1.571 0.11136h13.85q0 2.8731-2.0279 4.8886-2.0167 2.0156-4.8914 2.0156t-4.9025-2.0156q-2.0279-2.0156-2.0279-4.8886zm12.145 1.5033h-10.44q0.36769 1.3029 1.3928 2.3274 1.5822 1.5813 3.8329 1.5702 2.2507 0 3.8329-1.5813 1.0251-1.0245 1.3816-2.3163z"/><rect height="25" width="25" y="0" x="0" fill="none"/></svg>
