<svg xmlns:rdf="http://www.w3.org/1999/02/22-rdf-syntax-ns#" xmlns="http://www.w3.org/2000/svg" xml:space="preserve" height="25" width="25" version="1.1" xmlns:cc="http://creativecommons.org/ns#" xmlns:dc="http://purl.org/dc/elements/1.1/" viewBox="0 0 25 25"><path d="m6.6337 15.651 1.2813-0.79065q0.31198 0.48998 0.75766 0.91314 1.5822 1.5813 3.8329 1.5813t3.8329-1.5813q0.43454-0.4343 0.75766-0.92428l1.2813 0.80178q-0.41226 0.63474-0.96936 1.1915-2.0279 2.0156-4.9025 2.0156-2.8747 0-4.9025-2.0156-0.557-0.567-0.9693-1.191zm11.821-7.739q0 1.5479-0.77994 2.6503-0.77994 1.0913-1.8719 1.0913-1.0919 0-1.8719-1.0913-0.77994-1.1024-0.77994-2.6503h1.5042q0 0.92428 0.33426 1.5924 0.3454 0.65702 0.81337 0.65702t0.80223-0.65702q0.3454-0.66815 0.3454-1.5924h1.5042zm-6.5961 0q0 1.5479-0.77994 2.6503-0.77994 1.0913-1.8719 1.0913-1.0919 0-1.8719-1.0913-0.7796-1.1021-0.7796-2.65h1.5042q0 0.92428 0.33426 1.5924 0.3454 0.65702 0.81337 0.65702t0.80223-0.65702q0.3454-0.66815 0.3454-1.5924h1.5042zm-9.359 4.61q0-4.1537 2.9304-7.0824 2.9303-2.9396 7.0756-2.9396 4.156 0 7.075 2.9399 2.919 2.9287 2.919 7.0821 0 4.1425-2.9192 7.0601-2.919 2.918-7.075 2.918-4.1453 0-7.0756-2.918-2.9304-2.917-2.9304-7.06zm1.5042 0q0 3.5189 2.4847 6.0022 2.4958 2.4722 6.0167 2.4722 3.532 0 6.0056-2.4722 2.4847-2.4833 2.4847-6.0022 0-3.5301-2.4847-6.0245-2.4735-2.4944-6.0056-2.4944-3.5209 0-6.0167 2.4944-2.4847 2.4944-2.4847 6.0245z"/><rect height="25" width="25" y="0" x="0" fill="none"/></svg>
