<svg xmlns:rdf="http://www.w3.org/1999/02/22-rdf-syntax-ns#" xmlns="http://www.w3.org/2000/svg" xml:space="preserve" height="25" width="25" version="1.1" xmlns:cc="http://creativecommons.org/ns#" xmlns:dc="http://purl.org/dc/elements/1.1/" viewBox="0 0 25 25"><text style="word-spacing:0px;letter-spacing:0px" xml:space="preserve" font-size="40px" y="18.149166" x="2.7403333" font-family="sans-serif" line-height="125%" fill="#000000"><tspan x="2.7403333" y="18.149166"/></text>
<path d="m4.0042 12.522q0 3.5189 2.4847 6.0022 2.4958 2.4722 6.0167 2.4722 3.532 0 6.0056-2.4722 2.4847-2.4833 2.4847-6.0022 0-3.5301-2.4847-6.0245-2.4735-2.4944-6.0056-2.4944-3.5209 0-6.0167 2.4944-2.4847 2.4944-2.4847 6.0245zm-1.5042 0q0-4.1534 2.9304-7.0821 2.9303-2.9399 7.0756-2.9399 4.156 0 7.075 2.9399 2.919 2.9287 2.919 7.0821 0 4.1425-2.9192 7.0601-2.919 2.918-7.075 2.918-4.1453 0-7.0756-2.918-2.9304-2.917-2.9304-7.06zm10.652-1.804q0-1.5479 0.77994-2.6392 0.77994-1.1025 1.8719-1.1025 1.0919 0 1.8719 1.1025 0.77994 1.0913 0.77994 2.6392h-1.5042q0-0.92428-0.3454-1.5813-0.33426-0.66815-0.80223-0.66815t-0.81337 0.66815q-0.33426 0.65702-0.33426 1.5813h-1.5042zm-6.5961 0q0-1.5479 0.77994-2.6392 0.77994-1.1025 1.8719-1.1025 1.0919 0 1.8719 1.1025 0.77994 1.0913 0.77994 2.6392h-1.5042q0-0.92428-0.3454-1.5813-0.33426-0.66815-0.80223-0.66815t-0.81337 0.66815q-0.3351 0.6572-0.3351 1.5812h-1.5042zm-0.9805 1.9154h13.85q0 2.8731-2.0279 4.8886-2.0167 2.0156-4.8914 2.0156t-4.9025-2.0156q-2.0279-2.0156-2.0279-4.8886zm7.688 5.3563q0.9805-0.1225 1.8273-0.5902v-3.2628h-1.8273v3.853zm-1.5153 0v-3.853h-1.8273v3.2628q0.8468 0.4677 1.8273 0.5902zm4.8579-1.8263q0.80223-0.91314 1.1142-2.0267h-1.1142v2.0267zm-8.2006 0.02227v-2.049h-1.1253q0.31198 1.1359 1.1253 2.049z"/><rect height="25" width="25" y="0" x="0" fill="none"/></svg>
