<svg xmlns:rdf="http://www.w3.org/1999/02/22-rdf-syntax-ns#" xmlns="http://www.w3.org/2000/svg" xml:space="preserve" height="25" width="25" version="1.1" xmlns:cc="http://creativecommons.org/ns#" xmlns:dc="http://purl.org/dc/elements/1.1/" viewBox="0 0 25 25"><text style="word-spacing:0px;letter-spacing:0px" line-height="125%" font-size="40px" y="18.149166" x="2.7403333" font-family="sans-serif" xml:space="preserve" fill="#000000"><tspan y="18.149166" x="2.7403333"/></text>
<g transform="matrix(.97588 0 0 .97534 .060975 .54878)"><path d="m7.8883 9.1136q0-0.67363 0.4567-1.1303 0.46811-0.46811 1.1417-0.46811 0.66221 0 1.1303 0.46811 0.46811 0.4567 0.46811 1.1303 0 0.66221-0.46811 1.1417-0.46812 0.46812-1.1303 0.46812-0.67363 0-1.1417-0.46812-0.4567-0.4792-0.4567-1.1414zm6.5993 0q0-0.67363 0.46811-1.1303 0.46812-0.46811 1.1303-0.46811 0.66221 0 1.1303 0.46811 0.47953 0.4567 0.47953 1.1303 0 0.66221-0.47953 1.1417-0.46812 0.46812-1.1303 0.46812-0.67363 0-1.1417-0.46812-0.457-0.4792-0.457-1.1414zm-11.989 3.1624q0-4.2587 3.0028-7.2615 3.0028-3.0142 7.2501-3.0142 4.2587 0 7.2501 3.0142 2.9914 3.0028 2.9914 7.2615 0 4.2473-2.9914 7.2387t-7.2501 2.9914q-4.2473 0-7.2501-2.9914t-3.0028-7.2387zm1.5414 0q0 3.6079 2.5461 6.154 2.5575 2.5347 6.1654 2.5347 3.6193 0 6.154-2.5347 2.5461-2.5461 2.5461-6.154 0-3.6193-2.5461-6.1768-2.5347-2.5575-6.154-2.5575-3.6079 0-6.1654 2.5575-2.5461 2.5575-2.5461 6.1768zm1.6099 0.11417h14.192q0 2.9457-2.078 5.0123-2.0666 2.0666-5.0123 2.0666t-5.0237-2.0666-2.078-5.0123zm12.445 1.5414h-10.698q0.37678 1.3358 1.4272 2.3862 1.6213 1.6213 3.9276 1.6213 2.3063-0.01142 3.9276-1.6327 1.0504-1.0504 1.4158-2.3748z"/></g><rect height="25" width="25" y="0" x="0" fill="none"/></svg>
