<svg xmlns:rdf="http://www.w3.org/1999/02/22-rdf-syntax-ns#" xmlns="http://www.w3.org/2000/svg" xml:space="preserve" height="25" width="25" version="1.1" xmlns:cc="http://creativecommons.org/ns#" xmlns:dc="http://purl.org/dc/elements/1.1/" viewBox="0 0 25 25"><path d="m7.7591 9.4376q0-0.65702 0.44568-1.1024 0.45682-0.45657 1.1142-0.45657 0.64624 0 1.1031 0.45657 0.45682 0.44543 0.45682 1.1024 0 0.64588-0.45682 1.1136-0.45683 0.45657-1.1031 0.45657-0.65738 0-1.1142-0.45657-0.4457-0.467-0.4457-1.1134zm6.4401 0q0-0.65702 0.45682-1.1024 0.45682-0.45657 1.1031-0.45657 0.64624 0 1.1031 0.45657 0.46797 0.44543 0.46797 1.1024 0 0.64588-0.46797 1.1136-0.45683 0.45657-1.1031 0.45657-0.65738 0-1.1142-0.45657-0.44568-0.46771-0.44568-1.1136zm-10.195 3.0844q0 3.5189 2.4847 6.0022 2.4958 2.4722 6.0167 2.4722 3.532 0 6.0056-2.4722 2.4847-2.4833 2.4847-6.0022 0-3.5301-2.4847-6.0245-2.4735-2.4944-6.0056-2.4944-3.5209 0-6.0167 2.4944-2.4847 2.4944-2.4847 6.0245zm-1.5042 0q0-4.1537 2.9304-7.0824 2.9303-2.9396 7.0756-2.9396 4.156 0 7.075 2.9399 2.919 2.9287 2.919 7.0821 0 4.143-2.919 7.06-2.919 2.918-7.075 2.918-4.1453 0-7.0756-2.918-2.9304-2.917-2.9304-7.06zm3.0752 0.11136h13.85q0 2.8731-2.0279 4.8886-2.0167 2.0156-4.8914 2.0156t-4.9025-2.0156q-2.0279-2.0156-2.0279-4.8886zm7.688 5.3563q0.9805-0.1225 1.8273-0.5902v-3.2628h-1.8273v3.853zm-1.5153 0v-3.853h-1.8273v3.2628q0.8468 0.4677 1.8273 0.5902zm4.8579-1.8263q0.80223-0.91314 1.1142-2.0267h-1.1142v2.0267zm-8.2006 0.02227v-2.049h-1.1253q0.31198 1.1359 1.1253 2.049z"/><rect height="25" width="25" y="0" x="0" fill="none"/></svg>
