<svg xmlns:rdf="http://www.w3.org/1999/02/22-rdf-syntax-ns#" xmlns="http://www.w3.org/2000/svg" xml:space="preserve" height="25" width="25" version="1.1" xmlns:cc="http://creativecommons.org/ns#" xmlns:dc="http://purl.org/dc/elements/1.1/" viewBox="0 0 25 25"><text style="word-spacing:0px;letter-spacing:0px" line-height="125%" font-size="40px" y="18.149166" x="2.7403333" font-family="sans-serif" xml:space="preserve" fill="#000000"><tspan y="18.149166" x="2.7403333"/></text>
<path d="m13.397 8.9922 3.2869-2.294 0.85794 1.2249-2.2061 1.5479 2.2061 1.5367-0.85794 1.2249-3.2869-2.294v-0.94655zm-1.7827 0v0.94655l-3.2867 2.2942-0.8579-1.225 2.2061-1.537-2.2061-1.5478 0.8579-1.225 3.2867 2.294zm-9.114 3.5298q0-4.1534 2.9304-7.0821 2.9303-2.9399 7.0756-2.9399 4.156 0 7.075 2.9399 2.919 2.9287 2.919 7.0821 0 4.1425-2.9192 7.0601-2.919 2.918-7.075 2.918-4.1453 0-7.0756-2.918-2.9304-2.917-2.9304-7.06zm1.5042 0q0 3.5189 2.4847 6.0022 2.4958 2.4722 6.0167 2.4722 3.532 0 6.0056-2.4722 2.4847-2.4833 2.4847-6.0022 0-3.5301-2.4847-6.0245-2.4735-2.4944-6.0056-2.4944-3.5209 0-6.0167 2.4944-2.4847 2.4944-2.4847 6.0245zm1.571 0.11136h13.85q0 2.8731-2.0279 4.8886-2.0167 2.0156-4.8914 2.0156t-4.9025-2.0156q-2.0278-2.015-2.0278-4.888zm12.145 1.5033h-10.44q0.36769 1.3029 1.3928 2.3274 1.5822 1.5813 3.8329 1.5813 2.2507-0.01113 3.8329-1.5924 1.0251-1.0245 1.3816-2.3163z"/><rect height="25" width="25" y="0" x="0" fill="none"/></svg>
