<svg xmlns:rdf="http://www.w3.org/1999/02/22-rdf-syntax-ns#" xmlns="http://www.w3.org/2000/svg" xml:space="preserve" height="25" width="25" version="1.1" xmlns:cc="http://creativecommons.org/ns#" xmlns:dc="http://purl.org/dc/elements/1.1/" viewBox="0 0 25 25"><text style="word-spacing:0px;letter-spacing:0px" xml:space="preserve" font-size="40px" y="18.149166" x="2.7403333" font-family="sans-serif" line-height="125%" fill="#000000"><tspan x="2.7403333" y="18.149166"/></text>
<path d="m17.976 9.1815-3.8329-2.6726 0.85794-1.2361 3.8329 2.6837-0.85794 1.2249zm-10.942 0-0.85794-1.2249 3.8329-2.6837 0.85794 1.2361-3.8329 2.6726zm0.72423 1.0802q0-0.65702 0.44568-1.1024 0.45682-0.45657 1.1142-0.45657 0.64624 0 1.1031 0.45657 0.45682 0.44543 0.45682 1.1024 0 0.65702-0.45682 1.1136-0.45682 0.45657-1.1031 0.45657-0.65738 0-1.1142-0.45657-0.44568-0.4677-0.44568-1.1136zm6.4401 0q0-0.65702 0.45682-1.1024 0.45682-0.45657 1.1031-0.45657 0.64624 0 1.1031 0.45657 0.46797 0.44543 0.46797 1.1024 0 0.64588-0.46797 1.1136-0.45682 0.45657-1.1031 0.45657-0.65738 0-1.1142-0.45657-0.44568-0.4677-0.44568-1.1136zm-11.698 2.26q0-4.1534 2.9304-7.0821 2.9303-2.9399 7.0756-2.9399 4.156 0 7.075 2.9399 2.919 2.9287 2.919 7.0821 0 4.1425-2.9192 7.0601-2.919 2.918-7.075 2.918-4.1453 0-7.0756-2.918-2.9304-2.917-2.9304-7.06zm1.5042 0q0 3.5189 2.4847 6.0022 2.4958 2.4722 6.0167 2.4722 3.532 0 6.0056-2.4722 2.4847-2.4833 2.4847-6.0022 0-3.5301-2.4847-6.0245-2.4735-2.4944-6.0056-2.4944-3.5209 0-6.0167 2.4944-2.4847 2.4944-2.4847 6.0245zm2.6295 4.6102q0.41226-0.62361 0.96936-1.1915 2.0279-2.0156 4.9025-2.0156 2.8747 0 4.9025 2.0156 0.56825 0.56793 0.96936 1.1915l-1.2813 0.80178q-0.31198-0.48998-0.75766-0.92428-1.5822-1.5813-3.8329-1.5813-2.2507-0.01113-3.8329 1.5702-0.43454 0.4343-0.75766 0.92428l-1.2813-0.79065z"/><rect height="25" width="25" y="0" x="0" fill="none"/></svg>
