<svg xmlns:rdf="http://www.w3.org/1999/02/22-rdf-syntax-ns#" xmlns="http://www.w3.org/2000/svg" xml:space="preserve" height="25" width="25" version="1.1" xmlns:cc="http://creativecommons.org/ns#" xmlns:dc="http://purl.org/dc/elements/1.1/" viewBox="0 0 25 25"><text style="word-spacing:0px;letter-spacing:0px" line-height="125%" font-size="40px" y="18.149166" x="2.7403333" font-family="sans-serif" xml:space="preserve" fill="#000000"><tspan y="18.149166" x="2.7403333"/></text>
<path d="m7.1574 16.72v-1.5033h10.696v1.5033h-10.696zm11.298-8.808q0 1.5479-0.77994 2.6503-0.77994 1.0913-1.8719 1.0913-1.0919 0-1.8719-1.0913-0.77994-1.1025-0.77994-2.6503h1.5042q0 0.92428 0.33426 1.5924 0.3454 0.65702 0.81337 0.65702t0.80223-0.65702q0.3454-0.66815 0.3454-1.5924h1.5042zm-6.5961 0q0 1.5479-0.77994 2.6503-0.77994 1.0913-1.8719 1.0913-1.0919 0-1.8719-1.0913-0.77994-1.1025-0.77994-2.6503h1.5042q0 0.92428 0.33426 1.5924 0.3454 0.65702 0.81337 0.65702t0.80223-0.65702q0.3454-0.66815 0.3454-1.5924h1.5042zm-9.359 4.61q0-4.1534 2.9304-7.0821 2.9303-2.9399 7.0756-2.9399 4.156 0 7.075 2.9399 2.919 2.9287 2.919 7.0821 0 4.1425-2.9192 7.0601-2.919 2.918-7.075 2.918-4.1453 0-7.0756-2.918-2.9304-2.917-2.9304-7.06zm1.5042 0q0 3.5189 2.4847 6.0022 2.4958 2.4722 6.0167 2.4722 3.532 0 6.0056-2.4722 2.4847-2.4833 2.4847-6.0022 0-3.5301-2.4847-6.0245-2.4735-2.4944-6.0056-2.4944-3.5209 0-6.0167 2.4944-2.4847 2.4944-2.4847 6.0245z"/><rect height="25" width="25" y="0" x="0" fill="none"/></svg>
