<svg xmlns:rdf="http://www.w3.org/1999/02/22-rdf-syntax-ns#" xmlns="http://www.w3.org/2000/svg" xml:space="preserve" height="25" width="25" version="1.1" xmlns:cc="http://creativecommons.org/ns#" xmlns:dc="http://purl.org/dc/elements/1.1/" viewBox="0 0 25 25"><text style="word-spacing:0px;letter-spacing:0px" line-height="125%" font-size="40px" y="18.149166" x="2.7403333" font-family="sans-serif" xml:space="preserve" fill="#000000"><tspan y="18.149166" x="2.7403333"/></text>
<path d="m7.9708 18.914-0.6351-1.369 9.7043-4.522 0.635 1.37-9.7042 4.521zm-0.2117-9.4541q0-0.65702 0.44568-1.1024 0.45682-0.45657 1.1142-0.45657 0.64624 0 1.1031 0.45657 0.45682 0.44543 0.45682 1.1024 0 0.65702-0.45682 1.1136-0.45682 0.45657-1.1031 0.45657-0.65738 0-1.1142-0.45657-0.4457-0.468-0.4457-1.1141zm6.4401 0q0-0.65702 0.45682-1.1024 0.45682-0.45657 1.1031-0.45657 0.64624 0 1.1031 0.45657 0.46797 0.44543 0.46797 1.1024 0 0.64588-0.46797 1.1136-0.45682 0.45657-1.1031 0.45657-0.65738 0-1.1142-0.45657-0.44568-0.46771-0.44568-1.1136zm-11.699 3.0621q0-4.1537 2.9304-7.0824 2.9303-2.9396 7.0756-2.9396 4.156 0 7.075 2.9399 2.919 2.9287 2.919 7.0821 0 4.1425-2.9192 7.0601-2.919 2.918-7.075 2.918-4.1453 0-7.0756-2.918-2.9304-2.917-2.9304-7.06zm1.5042 0q0 3.5189 2.4847 6.0022 2.4958 2.4722 6.0167 2.4722 3.532 0 6.0056-2.4722 2.4847-2.4833 2.4847-6.0022 0-3.5301-2.4847-6.0245-2.4735-2.4944-6.0056-2.4944-3.5209 0-6.0167 2.4944-2.4847 2.4944-2.4847 6.0245z"/><rect height="25" width="25" y="0" x="0" fill="none"/></svg>
