<svg xmlns:rdf="http://www.w3.org/1999/02/22-rdf-syntax-ns#" xmlns="http://www.w3.org/2000/svg" xml:space="preserve" height="25" width="25" version="1.1" xmlns:cc="http://creativecommons.org/ns#" xmlns:dc="http://purl.org/dc/elements/1.1/" viewBox="0 0 25 25"><text style="word-spacing:0px;letter-spacing:0px" xml:space="preserve" font-size="40px" y="18.149166" x="2.7403333" font-family="sans-serif" line-height="125%" fill="#000000"><tspan x="2.7403333" y="18.149166"/></text>
<path d="m17.052 12.901 0.94708-1.2918q0.41226-0.55679 0.75766-0.72383 0.27855-0.12249 0.52368-0.12249 0.14485 0 0.28969 0.04454 0.40111 0.13363 0.60167 0.51225 0.11142 0.22272 0.11142 0.45657 0 0.1559-0.05571 0.32294-0.1337 0.40089-0.56824 0.62361-0.3454 0.17817-1.0028 0.17817h-1.6045zm1.4039-4.9889q0 1.5479-0.77994 2.6503-0.77994 1.0913-1.8719 1.0913-1.0919 0-1.8719-1.0913-0.77994-1.1024-0.77994-2.6503h1.5042q0 0.92428 0.33426 1.5924 0.3454 0.65702 0.81337 0.65702t0.80223-0.65702q0.3454-0.66815 0.3454-1.5924h1.5042zm-6.5961 0q0 1.5479-0.77994 2.6503-0.77994 1.0913-1.8719 1.0913-1.0919 0-1.8719-1.0913-0.77994-1.1024-0.77994-2.6503h1.5042q0 0.92428 0.33426 1.5924 0.3454 0.65702 0.81337 0.65702t0.80223-0.65702q0.3454-0.66815 0.3454-1.5924h1.5042zm-9.36 4.6099q0-4.1534 2.9304-7.0821 2.9303-2.9399 7.0756-2.9399 4.156 0 7.075 2.9399 2.919 2.9287 2.919 7.0821 0 4.1425-2.9192 7.0601-2.919 2.918-7.075 2.918-4.1453 0-7.0756-2.918-2.9304-2.917-2.9304-7.06zm1.5042 0q0 3.5189 2.4847 6.0022 2.4958 2.4722 6.0167 2.4722 3.532 0 6.0056-2.4722 2.4847-2.4833 2.4847-6.0022 0-3.5301-2.4847-6.0245-2.4735-2.4944-6.0056-2.4944-3.5209 0-6.0167 2.4944-2.4847 2.4944-2.4847 6.0245zm14.117 6.0468h-11.242q0-2.5835 1.6379-4.3987 1.649-1.8151 3.9777-1.8151 2.3398 0 3.9777 1.8151 1.649 1.8151 1.649 4.3987zm-9.5265-1.5033h7.8106q-0.26741-1.069-1.0362-1.9154-1.1922-1.2918-2.8747-1.2918t-2.8635 1.3029q-0.7688 0.84632-1.0362 1.9042z"/><rect height="25" width="25" y="0" x="0" fill="none"/></svg>
