<svg xmlns:rdf="http://www.w3.org/1999/02/22-rdf-syntax-ns#" xmlns="http://www.w3.org/2000/svg" xml:space="preserve" height="25" width="25" version="1.1" xmlns:cc="http://creativecommons.org/ns#" xmlns:dc="http://purl.org/dc/elements/1.1/" viewBox="0 0 25 25"><text style="word-spacing:0px;letter-spacing:0px" line-height="125%" font-size="40px" y="18.149166" x="2.7403333" font-family="sans-serif" xml:space="preserve" fill="#000000"><tspan y="18.149166" x="2.7403333"/></text>
<path d="m6.6337 17.133q0.41226-0.62361 0.96936-1.1915 2.0279-2.0156 4.9025-2.0156 2.8747 0 4.9025 2.0156 0.56824 0.56793 0.96936 1.1915l-1.281 0.801q-0.312-0.49-0.758-0.924-1.582-1.581-3.832-1.581-2.251-0.011-3.8333 1.57-0.4345 0.434-0.7577 0.924l-1.2813-0.79zm6.7632-8.1403 3.2869-2.294 0.85794 1.2249-2.2061 1.5479 2.2061 1.5367-0.85794 1.2249-3.2869-2.294v-0.94655zm-1.7827 0v0.94655l-3.2867 2.2938-0.8579-1.225 2.2061-1.537-2.2061-1.5478 0.8579-1.225 3.2867 2.294zm-9.114 3.5293q0-4.1537 2.9304-7.0824 2.9303-2.9396 7.0756-2.9396 4.156 0 7.075 2.9399 2.919 2.9287 2.919 7.0821 0 4.143-2.919 7.06-2.919 2.918-7.075 2.918-4.1453 0-7.0756-2.918-2.9304-2.917-2.9304-7.06zm1.5042 0q0 3.5189 2.4847 6.0022 2.4958 2.4722 6.0167 2.4722 3.532 0 6.0056-2.4722 2.4847-2.4833 2.4847-6.0022 0-3.5301-2.4847-6.0245-2.4735-2.4944-6.0056-2.4944-3.5209 0-6.0167 2.4944-2.4847 2.4944-2.4847 6.0245z"/><rect height="25" width="25" y="0" x="0" fill="none"/></svg>
