<svg xmlns:rdf="http://www.w3.org/1999/02/22-rdf-syntax-ns#" xmlns="http://www.w3.org/2000/svg" xml:space="preserve" height="25" width="25" version="1.1" xmlns:cc="http://creativecommons.org/ns#" xmlns:dc="http://purl.org/dc/elements/1.1/" viewBox="0 0 25 25"><text style="word-spacing:0px;letter-spacing:0px" xml:space="preserve" font-size="40px" y="18.149166" x="2.7403333" font-family="sans-serif" line-height="125%" fill="#000000"><tspan x="2.7403333" y="18.149166"/></text>
<path d="m22.5 12.5q0 4.1355-2.9322 7.0678-2.932 2.932-7.068 2.932-4.1355 0-7.0678-2.932-2.9322-2.932-2.9322-7.068 0-4.1355 2.9322-7.0678 2.9323-2.9322 7.0678-2.9322 4.136 0 7.068 2.9322 2.932 2.9323 2.932 7.0678zm-1.1682 0q0-3.6565-2.5935-6.2383-2.581-2.5935-6.238-2.5935-3.6565 0-6.25 2.5935-2.5818 2.5818-2.5818 6.2383t2.5818 6.25q2.5935 2.5818 6.25 2.5818t6.2383-2.5818q2.5935-2.5935 2.5935-6.25zm-2.3364-2.6051-0.67757 0.95794q-0.73598-0.5257-1.8107-0.5257-1.1215 0-1.8925 0.5257l-0.666-0.9581q1.0748-0.73598 2.5584-0.73598 1.4486 0 2.4883 0.73598zm-7.9439 0-0.67757 0.95794q-0.73598-0.5257-1.8107-0.5257-1.1215 0-1.8925 0.5257l-0.6661-0.9581q1.0748-0.73598 2.5584-0.73598 1.4486 0 2.4883 0.73598zm7.3014 8.3178q0 0.44392-0.44393 0.44392h-10.818q-0.44393 0-0.44393-0.44392v-2.5234q0-0.44393 0.44393-0.44393h10.818q0.44393 0 0.44393 0.44393v2.5234zm-0.87617-0.43224v-1.6589h-1.7056v1.6589h1.7056zm-2.8738 0v-1.6589h-1.5187v1.6589h1.5187zm-2.6869 0v-1.6589h-1.5187v1.6589h1.5187zm-2.6869 0v-1.6589h-1.7056v1.6589h1.7056z"/><rect height="25" width="25" y="0" x="0" fill="none"/></svg>
