<svg xmlns:rdf="http://www.w3.org/1999/02/22-rdf-syntax-ns#" xmlns="http://www.w3.org/2000/svg" xml:space="preserve" height="25" width="25" version="1.1" xmlns:cc="http://creativecommons.org/ns#" xmlns:dc="http://purl.org/dc/elements/1.1/" viewBox="0 0 25 25"><text style="word-spacing:0px;letter-spacing:0px" xml:space="preserve" font-size="40px" y="18.149166" x="2.7403333" font-family="sans-serif" line-height="125%" fill="#000000"><tspan x="2.7403333" y="18.149166"/></text>
<path d="m8.5501 9.2149-1.0585-1.0579 3.0084-3.0067 1.058 1.0579-3.0079 3.0067zm7.9109 0-3.0084-3.0067 1.0585-1.0579 3.0084 3.0067-1.0585 1.0579zm-7.9109 3.6641-1.0585-1.058 3.0084-3.007 1.058 1.0579-3.0079 3.0071zm7.9109 0-3.0084-3.0067 1.0585-1.0579 3.0084 3.0067-1.0585 1.0579zm-13.961-0.357q0-4.1534 2.9304-7.0821 2.9303-2.9399 7.0756-2.9399 4.156 0 7.075 2.9399 2.919 2.9287 2.919 7.0821 0 4.1425-2.9192 7.0601-2.919 2.918-7.075 2.918-4.1453 0-7.0756-2.918-2.9304-2.917-2.9304-7.06zm1.5042 0q0 3.5189 2.4847 6.0022 2.4958 2.4722 6.0167 2.4722 3.532 0 6.0056-2.4722 2.4847-2.4833 2.4847-6.0022 0-3.5301-2.4847-6.0245-2.4735-2.4944-6.0056-2.4944-3.5209 0-6.0167 2.4944-2.4847 2.4944-2.4847 6.0245zm14.117 6.0468h-11.242q0-2.5835 1.6379-4.3987 1.649-1.8151 3.9777-1.8151 2.3398 0 3.9777 1.8151 1.649 1.8151 1.649 4.3987zm-9.5265-1.5033h7.8106q-0.26741-1.069-1.0362-1.9154-1.1922-1.2918-2.8747-1.2918-1.6824 0-2.8635 1.3029-0.7688 0.84632-1.0362 1.9042z"/><rect height="25" width="25" y="0" x="0" fill="none"/></svg>
