<svg xmlns:rdf="http://www.w3.org/1999/02/22-rdf-syntax-ns#" xmlns="http://www.w3.org/2000/svg" height="40" width="30" version="1.1" xmlns:cc="http://creativecommons.org/ns#" xmlns:dc="http://purl.org/dc/elements/1.1/" viewBox="0 0 30.000001 40.000001">
<g transform="translate(0 -1012.4)" stroke="#000" stroke-width=".56705px" fill="none">
<path d="m2.508 1017.4s5.1953-2.8428 12.792 0c6.7838 2.5385 12.208 0 12.208 0"/>
<path d="m2.508 1024.9s5.1953-2.8428 12.792 0c6.7838 2.5385 12.208 0 12.208 0"/>
<path d="m2.508 1032.4s5.1953-2.8428 12.792 0c6.7838 2.5385 12.208 0 12.208 0"/>
<path d="m2.508 1039.9s5.1953-2.8428 12.792 0c6.7838 2.5385 12.208 0 12.208 0"/>
<path d="m2.508 1047.5s5.1953-2.8428 12.792 0c6.7838 2.5385 12.208 0 12.208 0"/>
</g>
</svg>
