<svg xmlns:rdf="http://www.w3.org/1999/02/22-rdf-syntax-ns#" xmlns="http://www.w3.org/2000/svg" height="40" width="30" version="1.1" xmlns:cc="http://creativecommons.org/ns#" xmlns:dc="http://purl.org/dc/elements/1.1/" viewBox="0 0 30.000001 40.000001">
<g stroke="#000" stroke-width=".56705px" transform="translate(0 -1012.4)" fill="none">
<path d="m2.3844 1016.6c0.43119 1.2075 3.2049 3.7862 6.1809 0.4156 1.7235-1.952 4.8087-2.0481 6.4623-0.043 2.3325 2.8285 4.9693 1.4628 6.3643 0.01 2.6338-2.743 5.8867-0.8999 6.2163 0.3665"/>
<path d="m2.3844 1024.2c0.43119 1.2075 3.2049 3.7862 6.1809 0.4156 1.7235-1.952 4.8087-2.0481 6.4623-0.043 2.3325 2.8285 4.9693 1.4628 6.3643 0.01 2.6338-2.743 5.8867-0.8999 6.2163 0.3665"/>
<path d="m2.3844 1031.9c0.43119 1.2075 3.2049 3.7862 6.1809 0.4156 1.7235-1.952 4.8087-2.0481 6.4623-0.043 2.3325 2.8285 4.9693 1.4628 6.3643 0.01 2.6338-2.743 5.8867-0.8999 6.2163 0.3665"/>
<path d="m2.3844 1039.6c0.43119 1.2075 3.2049 3.7862 6.1809 0.4156 1.7235-1.952 4.8087-2.0481 6.4623-0.043 2.3325 2.8285 4.9693 1.4628 6.3643 0.01 2.6338-2.743 5.8867-0.8999 6.2163 0.3665"/>
<path d="m2.3844 1047.2c0.43119 1.2075 3.2049 3.7862 6.1809 0.4156 1.7235-1.952 4.8087-2.0481 6.4623-0.043 2.3325 2.8285 4.9693 1.4628 6.3643 0.01 2.6338-2.743 5.8867-0.8999 6.2163 0.3665"/>
</g>
</svg>
