<svg xmlns:rdf="http://www.w3.org/1999/02/22-rdf-syntax-ns#" xmlns="http://www.w3.org/2000/svg" height="25" width="25" version="1.1" xmlns:cc="http://creativecommons.org/ns#" xmlns:dc="http://purl.org/dc/elements/1.1/" viewBox="0 0 24.999999 24.999999">
<g transform="translate(-139.87 -248.84)">
<rect height="100" width="100" y="173.84" x="139.87" fill="none"/>
<path d="m162.12 268.26h-5.5828q0.14514 0.72577 0.14514 1.2617 0 0.90441-0.62527 1.485-0.62527 0.58061-1.5408 0.58061-0.81509 0-1.4292-0.45779-0.68109-0.50245-0.68109-1.284 0-0.50245 0.34613-0.96024 0.3573-0.44662 0.84859-0.44662 0.48011 0 0.81508 0.36846t0.33497 0.84859q0 1.0719-1.1947 1.0719 0.30147 0.46895 0.9714 0.46895 0.55829 0 1.0384-0.31263 0.70343-0.45779 0.70343-1.5855 0-0.46896-0.11166-1.0384h-10.384v-15.699h8.162q0.54712-1.4739 1.3175-1.4739 0.58061 0 1.0272 1.4739h5.8396v0.46895h-5.7168q0.14516 0.66994 0.14516 1.3622 0 1.0161-0.30147 1.9763h5.8731v0.46895h-6.0406q-0.50246 1.2282-1.4515 2.1103l0.2568 1.2282h7.2353v0.46895h-7.146l0.067 0.30147q0.29031-0.0558 0.50246-0.0558 1.1612 0 1.887 0.99373 0.65877 0.90441 0.62528 2.0991h4.0643v0.46896h-4.1201q-0.30147 1.5408-1.82 2.1103 0.0558 0.3238 0.25681 1.2282h5.6833v0.46895zm-17.083 0h-2.4229v-15.699h2.4229v15.699zm11.032-14.526q0-0.46896-0.13399-0.70344h-1.0161q-0.40196 0.37963-0.66993 1.2952-0.23448 0.80392-0.23448 1.485 0 0.30147 0.0446 0.55828h0.90441q1.1054-1.4292 1.1054-2.6351zm-1.5297 3.104h-0.3573q0.0447 0.13399 0.0782 0.21215 0.13399-0.0782 0.27914-0.21215zm-0.74809-3.8075h-7.2688v3.3385h7.1906q-0.15632-0.84858-0.15632-1.6078 0-0.85975 0.23448-1.7307zm0.69227 7.146-0.17865-0.93791q-0.55828 0.46896-1.0161 0.93791h1.1947zm2.7467 3.8075q-0.12283-0.7481-0.64761-1.2059-0.52478-0.46895-1.284-0.46895l0.33497 1.6748h1.5967zm-3.2938-6.6435-0.12282-0.50245h-7.2911v3.3385h5.0022q0.61411-1.0384 2.4118-2.8361zm1.3175 6.6435-0.3238-1.6302q-0.53595 0.15633-0.88208 0.62528-0.34614 0.45779-0.34614 1.0049h1.552zm2.0098 0.46895h-1.5297l0.34614 1.7418q1.1612-0.48012 1.1835-1.7418zm-2.6127-3.4167-0.0782-0.3908h-1.7083q-1.2282 1.4739-1.2282 2.9254 0 0.18981 0.0335 0.41313h1.4069q-0.067-0.25681-0.067-0.53596 0-0.74809 0.46895-1.4404 0.46895-0.70343 1.1724-0.9714zm1.0719 5.2813-0.36847-1.8646h-1.552q0.12283 0.27913 0.52479 0.61411 0.20097 0.16748 0.39079 0.32379l-0.12282 0.0782q-0.89325-0.22331-1.3287-1.0161h-1.485q0.30147 0.91557 1.1277 1.485 0.83742 0.55829 1.8088 0.55829 0.31264 0 1.0049-0.17865zm-4.4439-5.6721h-4.7565v3.3385h4.5109q-0.23447-0.66994-0.23447-1.351 0-0.98258 0.48012-1.9875zm4.7789 7.146q-0.0893-0.3573-0.26798-1.0831-0.48012 0.11166-0.92674 0.11166-1.15 0-2.1438-0.66993-0.9714-0.63644-1.485-1.6972h-4.7119v3.3385h9.5354z"/>
</g>
</svg>
