<svg xmlns:rdf="http://www.w3.org/1999/02/22-rdf-syntax-ns#" xmlns="http://www.w3.org/2000/svg" height="25" width="25" version="1.1" xmlns:cc="http://creativecommons.org/ns#" xmlns:dc="http://purl.org/dc/elements/1.1/" viewBox="0 0 24.999999 24.999999">
<g transform="translate(-136.17 -557.36)">
<path d="m142.92 579.9c-0.0807-0.11524-0.14675-0.29095-0.14675-0.39047 0-0.0995 0.39744-0.84307 0.88319-1.6523 1.6155-2.6913 2.0647-3.767 2.4226-5.8014l0.19789-1.1249-0.21995-0.16686c-0.12097-0.0918-0.37285-0.24156-0.55972-0.33286-0.27036-0.13209-0.49774-0.42072-1.113-1.4128-0.92006-1.4835-1.0914-1.879-1.0075-2.3262 0.14454-0.77043 0.68185-1.0947 2.4464-1.4763 2.048-0.44287 2.1402-0.47564 2.2015-0.78168 0.0349-0.17433 0.0978-0.24957 0.18192-0.21731 0.27735 0.10643 0.11748-0.3133-0.19225-0.50473-0.46285-0.28605-0.95722-0.86669-1.0979-1.2895-0.067-0.20121-0.12333-0.62036-0.12528-0.93145-0.007-1.1865 0.72808-1.8886 1.9712-1.8817 0.75033 0.004 1.4598 0.28819 1.7621 0.70558 0.23063 0.31836 0.31075 0.87363 0.18751 1.2996-0.0554 0.19136-0.1504 0.5972-0.2112 0.90187-0.091 0.45579-0.18406 0.62746-0.52535 0.96875-0.46201 0.46201-0.51878 0.62467-0.20268 0.58072 0.16278-0.0226 0.21956 0.0232 0.24412 0.19705l0.032 0.22654 1.5016-0.0591 1.5016-0.0591 1.1902-0.76149c0.65605-0.41975 1.2504-0.73839 1.3244-0.71 0.0738 0.0283 0.32833-0.0968 0.56561-0.27793 0.23729-0.18118 0.53138-0.32942 0.65354-0.32942 0.33663 0 0.61585 0.33102 0.58119 0.68901-0.0238 0.24594-0.12373 0.36438-0.54761 0.64917-0.28516 0.1916-0.50739 0.40833-0.49383 0.48162 0.0144 0.078-0.45501 0.46737-1.132 0.93897-1.1253 0.78383-1.19 0.8145-2.3814 1.1296l-1.2247 0.32388-0.0265 0.36845c-0.0527 0.7313-0.3221 1.9829-0.5495 2.5527l-0.23214 0.58163 0.7473 1.0387c0.98595 1.3704 1.5911 2.3502 1.8142 2.9374 0.32105 0.84493 0.3304 2.5309 0.0247 4.4429l-0.0581 0.36315h0.39341c0.4203 0 0.85619 0.31292 0.85619 0.61466 0 0.1851-0.1789 0.53842-0.32049 0.63297-0.057 0.0381-0.65924 0.0699-1.3382 0.0707-1.0588 0.001-1.2551-0.022-1.3794-0.16353-0.11754-0.13377-0.15492-0.56611-0.19766-2.286-0.029-1.1666-0.0998-2.3103-0.15741-2.5416-0.0576-0.2313-0.26088-0.61309-0.45175-0.84843-0.44921-0.55383-1.6985-1.7948-1.8069-1.7948-0.046 0-0.11187 0.12827-0.14629 0.28505-0.0846 0.38507-0.73261 2.0376-1.0263 2.6172-0.26783 0.52853-1.0891 1.5988-2.0588 2.6832-0.61321 0.6857-0.63814 0.73059-0.40575 0.73059 0.30672 0 0.71038 0.3874 0.71038 0.68176 0 0.12044-0.066 0.31326-0.14675 0.4285-0.13967 0.1994-0.20993 0.20951-1.4558 0.20951s-1.3162-0.0101-1.4558-0.20951zm3.5034-13.046c-0.0511-0.0511-1.2383 0.17609-1.3281 0.25416-0.12351 0.1073 0.89529 2.2291 1.1188 2.3302 0.18298 0.0827 0.18931 0.0464 0.21478-1.2337 0.0144-0.7254 0.012-1.3332-0.005-1.3506z" stroke="#000" fill="none"/>
</g>
</svg>
