<svg xmlns:rdf="http://www.w3.org/1999/02/22-rdf-syntax-ns#" xmlns="http://www.w3.org/2000/svg" height="25" width="25" version="1.1" xmlns:cc="http://creativecommons.org/ns#" xmlns:dc="http://purl.org/dc/elements/1.1/" viewBox="0 0 24.999999 24.999999">
<g transform="translate(-367.14 -374.51)">
<path d="m388.67 391.45h-1.5439v5.8041h-14.974v-5.8041h-1.5439v-4.4111h1.5439v-4.7594h6.9068v-0.90543q-0.77776-0.19734-1.2885-0.82418-0.49915-0.62684-0.49915-1.451 0-0.95186 0.70809-1.6483 0.7081-0.6965 1.66-0.6965 0.98668 0 1.6716 0.68489 0.69649 0.67327 0.69649 1.66 0 0.82419-0.51076 1.4626-0.49914 0.63846-1.2769 0.82419v0.89382h6.9068v4.7594h1.5439v4.4111zm-7.6382-12.351q0-0.5804-0.4063-0.97507-0.40628-0.39468-0.98668-0.39468-0.54558 0-0.97509 0.41789-0.41789 0.40629-0.41789 0.95186 0 0.5456 0.41789 0.96349 0.42951 0.40628 0.97509 0.40628 0.5804 0 0.98668-0.39468 0.4063-0.39467 0.4063-0.97509zm6.6631 11.376v-2.4609h-1.5439v-4.7594h-13.024v4.7594h-1.5439v2.4609h1.5439v5.8041h13.024v-5.8041h1.5439zm-2.7743-3.169q0 0.8474-0.59201 1.4394-0.58042 0.59203-1.4278 0.59203-0.85901 0-1.451-0.56881-0.5804-0.5688-0.5804-1.4278 0-0.89383 0.56879-1.4742 0.5688-0.58041 1.4626-0.58041 0.84739 0 1.4278 0.59203 0.59201 0.5804 0.59201 1.4278zm-6.4541 0q0 0.8474-0.59201 1.4394-0.59202 0.59203-1.4278 0.59203-0.85901 0-1.4742-0.58042-0.61523-0.5804-0.61523-1.451 0-0.81256 0.61523-1.4162 0.62685-0.60364 1.4394-0.60364 0.85901 0 1.451 0.58041 0.60362 0.58041 0.60362 1.4394zm5.7809 5.5951q0 0.67327-0.52237 1.126-0.51075 0.44111-1.1956 0.44111h-5.7809q-0.68488 0-1.184-0.44111-0.53398-0.45271-0.53398-1.126 0-0.67328 0.53398-1.126 0.49915-0.44111 1.184-0.44111h5.7809q0.68488 0 1.1956 0.45272 0.52237 0.44111 0.52237 1.1144zm-0.30181-5.5951q0-0.44111-0.30181-0.74292t-0.74292-0.30181q-1.0564 0-1.0564 1.0796 0 1.0215 1.0564 1.0215 0.44111 0 0.74292-0.30181 0.30181-0.31342 0.30181-0.75453zm-6.4541 0q0-0.45271-0.31341-0.74292-0.31342-0.30181-0.76615-0.30181-0.41789 0-0.75452 0.31342-0.32504 0.31342-0.32504 0.73131 0 0.45273 0.32504 0.75453 0.32502 0.30181 0.78935 0.30181 0.42949 0 0.73132-0.30181 0.31341-0.31342 0.31341-0.75453zm5.7809 5.5951q0-0.59202-0.74292-0.59202h-5.7809q-0.74292 0-0.74292 0.59202 0 0.59201 0.74292 0.59201h5.7809q0.74292 0 0.74292-0.59201z"/>
</g>
</svg>
