<svg xmlns:rdf="http://www.w3.org/1999/02/22-rdf-syntax-ns#" xmlns="http://www.w3.org/2000/svg" height="25" width="25" version="1.1" xmlns:cc="http://creativecommons.org/ns#" xmlns:dc="http://purl.org/dc/elements/1.1/" viewBox="0 0 24.999999 24.999999">
<g transform="translate(-136.17 -557.36)">
<g transform="matrix(.29181 0 0 .29181 101.99 411.39)">
<path d="m-10.305-31.215v33.209c-0.17307 1.2837-0.11704 2.6599 0.2168 4.1367 7.3942 13.554 25.855 14.68 39.623 14.037 10.249-1.222 25.315-4.097 28.192-15.639h0.14844v-0.68945c0.042-0.2102 0.091-0.4165 0.125-0.6326 0.001-0.4689-0.049-0.9362-0.125-1.3984v-33.023h-68.18z" transform="translate(136.17 557.36)" stroke="#000" stroke-linecap="round" stroke-width="1.0444"/>
<path d="m194.09 527c-2.2682 12.337-17.964 14.798-28.337 16.085-13.596 0.51095-31.753-0.20323-39.446-13.311-2.5223-11.534 12.52-16.336 21.272-17.987 15.231-2.1535 34.675-2.048 45.267 10.847 0.77257 1.3164 1.2485 2.8332 1.2441 4.3662z" stroke="#000" stroke-linecap="round" stroke-width="1.0023" fill="#fff"/>
<path d="m54.254-16.705c-0.65885-0.0054-1.3653 0.20004-1.9727 0.64453v18.146c-0.82618 2.5048 2.3083 3.829 4.0566 1.9805v-17.949c0.5834-1.7751-0.63451-2.8104-2.084-2.8223zm-60.65 0.27148c-0.65885-0.0054-1.3653 0.20004-1.9727 0.64453v18.146c-0.8266 2.5052 2.3078 3.8294 4.0562 1.9809v-17.949c0.5834-1.7751-0.63451-2.8104-2.084-2.8223zm16.852 8.1133c-0.65885-0.00539-1.3653 0.20004-1.9727 0.64453v18.146c-0.82618 2.5048 2.3083 3.829 4.0566 1.9805v-17.949c0.5834-1.7751-0.63451-2.8104-2.084-2.8223zm23.057 0c-0.65885-0.00539-1.3653 0.20004-1.9727 0.64453v18.146c-0.82618 2.5048 2.3083 3.829 4.0566 1.9805v-17.949c0.5834-1.7751-0.63451-2.8104-2.084-2.8223z" transform="translate(136.17 557.36)" fill="#fff"/>
<path d="m41.932-49.422-25.137 20.307c-3.3921-0.9071-7.4177 1.5945-8.5449 4.8516-1.1336 3.3379 3.2412 4.8905 5.7324 3.6055 2.5771-0.83614 5.6468-3.4529 5.0449-6.3652l25.111-17.336c3.0206-1.085-0.10847-4.6468-2.207-5.0625zm11.791 9.5586-27.932 16.254c-3.2149-1.4114-7.5729 0.45019-9.1816 3.498-1.6274 3.127 2.4617 5.3253 5.1191 4.4336 2.6739-0.43495 6.1027-2.5561 5.9512-5.5254 9.1518-4.4402 18.303-8.8801 27.455-13.32 3.1503-0.61367 0.59896-4.6103-1.4121-5.3398z" transform="translate(136.17 557.36)"/>
</g>
</g>
</svg>
