<svg xmlns:rdf="http://www.w3.org/1999/02/22-rdf-syntax-ns#" xmlns="http://www.w3.org/2000/svg" height="25" width="25" version="1.1" xmlns:cc="http://creativecommons.org/ns#" xmlns:dc="http://purl.org/dc/elements/1.1/" viewBox="0 0 24.999999 24.999999">
<g transform="translate(-92.222 -552.69)">
<path d="m114.77 571.22q0 0.62201-0.37953 1.0543-0.90668 1.0332-5.4611 1.0332-0.41116 0-1.244-0.0421-0.83287-0.0316-1.244-0.0316-0.87504 0-1.7712 0.0949-0.20031 0.0211-0.78016 0.15814-0.49551 0.11596-0.78016 0.11596-0.80124 0-0.80124-0.63256 0-0.23194 0.35845-0.82233-0.17923-0.20032-0.36899-0.2214-0.17923 0.39008-0.65365 1.0543-0.5693 0.55876-1.866 0.55876-0.16869 0-0.47442-0.0949-0.33737-0.10543-0.48497-0.11597-1.2757-0.12651-1.2757-1.0437 0-1.0648 1.3706-1.0648 0.0632 0 0.18977 0.0316 0.13705 0.0211 0.20031 0.0211 0.12651 0 0.21085-0.1476v-0.6431q-0.56931-0.28465-1.0543-1.3073-0.48496-1.0332-0.60093-1.0964-0.28465-0.14759-1.0226-0.25302-0.73799-0.10542-0.88559-0.20031-0.0949-0.0949-0.29519-0.26357-0.1476-0.0527-0.42171-0.15814-0.21085-0.0949-0.39008-0.49551-0.16868-0.35844-0.16868-0.62201 0-0.2952 0.61147-1.3389 0.50605-0.8645 0.85396-1.3284 0.43225-0.5693 1.2335-0.89612 0.39007-0.15814 1.4865-0.43226 0.21086-0.83287 0.72745-2.4775 0.30574-0.81178 1.2124-1.7606 1.0121-1.0648 1.7501-1.0648 0.59039 0 0.59039 0.68527 0 0.10542-0.0422 0.31628-0.0422 0.20031-0.0422 0.30574 0 0.0843 0.0105 0.12651 0.81178-0.23194 1.2124-0.23194 0.70636 0 0.70636 0.65365 0 1.7606-3.6478 3.9535-0.0527 0.0211-0.10542 0.11597 0.18977 0.20031 0.5693 0.57985 1.4233-1.6763 4.1433-1.6763 2.1402 0 3.6478 1.1702 1.4549 1.1386 2.1191 3.205 0.369 1.1492 0.369 1.8555 0 2.2245 0.0316 2.2983 0.67473-0.47442 1.223-0.47442 0.62201 0 1.0226 0.46388 0.41116 0.46387 0.41116 1.0859zm-0.30574 0q0-0.52714-0.32682-0.88559-0.31628-0.36899-0.83287-0.36899-0.72745 0-1.4338 1.0121-0.0527-0.0527-0.21085-0.0527 0-0.15814 0.0633-0.46387 0.0632-0.31628 0.0632-0.47442v-2.1296q0-0.54822-0.27411-1.5076-1.2651-4.4279-5.5665-4.4279-3.2893 0-4.2803 2.2667h-0.1476q-0.0105-0.0316-0.0105-0.0949 0-0.0843 0.0422-0.23194 0.0422-0.15814 0.0422-0.24248 0-0.1476-0.31628-0.44279-0.30574-0.30574-0.45334-0.30574-0.0949 0-0.41116 0.1476-0.30574 0.14759-0.40063 0.14759h-0.2214l-0.10542-0.0843q0.23194-0.24248 0.7907-0.45333 0.73799-0.2952 0.8645-0.369 0.76962-0.43225 1.6341-1.1702 0.96992-0.82233 1.3389-1.4549 0.37953-0.64309 0.37953-0.991 0-0.35846-0.35845-0.35846-1.5814 0-2.8782 1.4022-0.76962 0.83287-1.845 2.7833-0.10543 0.18976-0.26357 0.34791-0.13705 0-0.13705-0.17923 0-0.24248 0.69582-1.3811 0.65364-1.0648 0.92775-1.3811 0.62202-0.52714 1.2546-1.0543 0.75908-0.65365 0.75908-1.3495 0-0.37954-0.32683-0.37954-0.6431 0-1.6447 1.1175-0.92775 1.0543-1.107 1.7606-0.16868 0.47442-0.42171 1.4338-0.0211 0.27412-0.0316 0.53768-0.0422 0.31628-0.25302 0.4428-0.21086 0.11596-0.72745 0.22139-0.70636 0.1476-0.76962 0.16869-0.84341 0.24248-1.4865 1.2651-0.5166 0.8645-1.0437 1.729 0.15814 0.0949 0.15814 0.26356 0 0.0844-0.0527 0.24248-0.0422 0.1476-0.0422 0.23195 0 0.53767 0.65365 0.53767 0.0211 0 0.55875-0.12651l0.0949 0.10543q-0.0843 0.11596-0.23194 0.35844 0.46388 0.0422 1.6236 0.30574 0.54821 0.12652 0.66418 0.12652 0.42171 0 0.74854-0.13706 0.33736-0.13705 0.67473-0.27411 0.10542 0.0422 0.10542 0.1476 0 0.40062-1.613 0.63256 0.7169 2.1296 2.0137 2.3088 0.17922-0.47443 0.65364-1.3073h0.1476q0.0422 0.13705 0.0422 0.15813 0 0.0633-0.31628 0.74853-0.32682 0.72745-0.36899 0.90668-0.0316 0.23194-0.0844 0.45333-0.0421 0.2214-0.28465 0.34791-0.15814 0.0843-0.51659 0.0843-0.4955 0-0.6431 0.0632-0.28465 0.11598-0.28465 0.54823 0 0.74853 1.0754 0.74853 1.1808 0 1.845-0.84342 0.52713-0.91721 1.0543-1.845 0.13705-0.0211 0.13705 0.17922 0 0.0211-0.35845 0.87504 0.25302 0.26356 0.47442 0.26356 0.0527 0 0.31628-0.15813 0.27411-0.15814 0.32683-0.17923 0.25302-0.0949 0.96992-0.0949-0.60093-0.9383-0.60093-1.8344 0-0.48497 0.0843-1.1597 0.0633-0.50605 0.48497-1.0543 0.43224-0.55876 0.90666-0.74853 1.2124-0.49551 1.4865-0.49551h0.46388l0.0422 0.0422v0.16868l-0.10543 0.0738q-1.6447 0.26357-2.2878 0.8645-0.76961 0.69582-0.76961 2.2772 0 1.0121 0.50605 1.5709 0.13705 0.1476 0.45333 0.2952 0.32682 0.1476 0.46388 0.33736-0.0949 0.1476-0.23194 0.1476-0.20031 0-0.60093-0.0843-0.39008-0.0843-0.59039-0.0843-1.223 0-1.6447 1.0226-0.0316 0.0738-0.0316 0.23194 0 0 0.0105 0.10542 0.21085 0.18977 0.47442 0.18977 0.41116 0 1.2019-0.17923 0.80124-0.17922 1.2124-0.17922h5.5876t0.67473-0.10542q1.3284-0.21086 1.7185-0.35846 0.98047-0.39008 0.98047-1.2651zm-14.18-0.33737q-0.0843-0.0843-0.40062-0.20031-0.0738 0.29519-0.18977 0.88558h0.26357q0.16868-0.0738 0.2214-0.28465 0.0527-0.21085 0.10542-0.40062zm-1.3916 0.75907v-0.12651h-0.24248q-0.81179 0-0.81179 0.76961 0 0.52714 0.50605 0.70637h0.21085q-0.12651-0.17923-0.12651-0.42171 0-0.53768 0.46388-0.92776zm5.0816-12.556q0 0.46388-0.40062 0.68527-0.0211-0.0738-0.0211-0.17922 0 0.0633 0.12651-0.43225l-0.0949-0.10543q-0.69581 0.15814-1.6236 1.0964-0.83287 0.85396-1.2019 1.613 0.10543 0.0949 0.23195 0.31628l-0.32683 0.0738q-0.20031-0.0949-0.20031-0.2952 0-0.65364 1.2546-1.8766 1.2651-1.2229 1.9293-1.2229 0.2214 0 0.27411 0.0738 0.0527 0.0738 0.0527 0.25303zm-5.2397 5.5138q0 0.2214-0.2952 0.44279-0.28465 0.21086-0.51659 0.21086-0.2003 0-0.41116-0.16869-0.21085-0.17922-0.21085-0.36899 0-0.26357 0.25302-0.45334 0.26357-0.20031 0.52713-0.20031 0.23194 0 0.4428 0.15815 0.21085 0.15813 0.21085 0.37953zm-0.35845 0.10542v-0.2003l-0.13705-0.13706h-0.27411q0.0633 0.16868 0.1265 0.52714 0.10544-0.0527 0.28466-0.18978z" stroke="#000" stroke-width="0.506"/>
</g>
</svg>
