<svg xmlns:rdf="http://www.w3.org/1999/02/22-rdf-syntax-ns#" xmlns="http://www.w3.org/2000/svg" height="25" width="25" version="1.1" xmlns:cc="http://creativecommons.org/ns#" xmlns:dc="http://purl.org/dc/elements/1.1/" viewBox="0 0 24.999999 24.999999">
<g transform="translate(-449.57 -453.5)">
<path d="m472.32 457.12-0.74198 0.80559q0.0636 0.0742 0.1378 0.0742 0.0848 0 0.14839-0.0636 0.1802 0.18019 0.1802 0.26499 0 0.0742-0.11659 0.212-0.11661 0.1272-0.1908 0.1272-0.1484 0-0.1802-0.212-0.0318-0.2226-0.13779-0.2226-0.0318 0-0.43459 0.3922 0.0106 0.13779 0.22259 0.16959 0.212 0.0318 0.212 0.1908 0 0.30739-0.2968 0.30739-0.1802 0-0.1802-0.2332 0-0.11659-0.0742-0.19079-0.16959 0.1696-0.51939 0.50879 0.1378 0.1484 0.1908 0.1484 0.0318 0 0.0424-0.0318 0.0212-0.0318 0.053-0.0318 0.0954 0 0.212 0.2332 0 0.0848-0.1272 0.21199-0.1166 0.1166-0.2014 0.1166-0.0954 0-0.19079-0.10599v-0.0212q0-0.0212 0.0106-0.053 0.0106-0.0424 0.0106-0.0636 0-0.0424-0.1484-0.18019l-0.0954 0.19079q-0.318-0.12719-0.49819-0.12719-0.053 0-0.159 0.053-0.106 0.0424-0.15899 0.0424-0.0106 0-0.82679-0.83738 0.0742-0.2332 0.0742-0.42399 0-0.2438-0.1166-0.3816 0.1272-0.0636 0.2014-0.13779-0.0742-0.1378-0.2438-0.1378-0.15899 0-0.15899-0.159 0-0.1166 0.22259-0.34979 0.1166 0.11659 0.2756 0.18019-0.0318 0.053-0.0318 0.11661 0 0.15899 0.18021 0.23319l0.48758-0.44519q-0.0636-0.1802-0.11659-0.1802-0.0212 0-0.0636 0.0212-0.0318 0.0106-0.053 0.0106-0.16959 0-0.16959-0.18019 0-0.318 0.34979-0.318 0.12719 0 0.12719 0.318v0.0212q0.0636 0.0954 0.1378 0.1272 0.1272-0.0954 0.45579-0.42399-0.0424-0.18019-0.34979-0.18019-0.1166 0-0.1166-0.1484 0-0.0848 0.1166-0.21199 0.1272-0.1378 0.212-0.1378 0.0636 0 0.23319 0.18019-0.0636 0.0636-0.0636 0.1484 0 0.0212 0.1484 0.1696l0.73139-0.76319q0.0954 0.212 0.32859 0.63599 0.159 0.24379 0.48759 0.42399 0.52999 0.2862 0.57239 0.318zm-3.2647 2.6606q-0.60419 0.64659-4.4625 4.7699-0.74199 0.75258-2.1624 2.332-0.29679 0.36039-0.29679 0.67839 0 0.56179 0.55119 0.56179 0.20139 0 0.55118-0.265 0.3604-0.26499 0.5406-0.26499 0.19079 0 0.37099 0.27559 0.18019 0.265 0.18019 0.46639 0 0.3074-0.31799 0.94338-0.265 0.5194-0.93278 0.90099-0.57239 0.30739-1.1554 0.61478-0.38159 0.2544-0.47699 0.71019-0.0424 0.72079-0.3922 2.0988-0.0742 0.1272-0.21199 0.37099-0.75258 1.325-1.4098 1.7702-0.75259 0.49819-2.2048 0.49819-0.18019 0-0.92218-0.1484-0.74198-0.1484-0.89038-0.2226 0 0-0.73139-0.55118-1.855-1.3992-2.491-2.6076-0.36039-0.67839-0.36039-2.65 0-1.1872 1.166-2.1836 1.0388-0.87978 2.2896-1.1024 0.51939-0.053 1.0388-0.10599 0.56179-0.0954 0.90098-0.50879 0.1802-0.212 0.59359-1.1554 0.2756-0.63599 0.95398-0.96458 0.57239-0.2756 0.96458-0.2756 0.2226 0 0.71019 0.4346 0.0212 0.053 0.0212 0.15899 0 0.1802-0.25439 0.49819-0.2438 0.318-0.2438 0.55119 0 0.106 0.159 0.44519 0.22259 0.0742 0.38159 0.0742 0.33919 0 0.68899-0.3074 1.4522-1.2614 3.5615-3.2647 3.3813-3.2011 3.5085-3.3177 0.30739 0.26499 0.78438 0.74198zm1.5264-2.8195q-0.1272-0.1272-0.25439-0.1908-0.106 0.0954-0.106 0.1908 0 0.14839 0.15899 0.14839 0.053 0 0.2014-0.14839zm0.73138 0.77378t-0.13779-0.265q-0.19079 0.13781-0.19079 0.2226 0 0.212 0.14839 0.212 0.18019 0 0.18019-0.1696zm-0.59358 0.61479q-0.0636-0.0848-0.2226-0.212-0.1166 0.2226-0.1166 0.2014 0 0.0424 0.0318 0.0954 0.0424 0.0424 0.0424 0.0636h0.1484q0.053-0.0424 0.11659-0.1484zm-0.80559-0.80559q-0.0742-0.0636-0.24379-0.16959-0.0848 0.0848-0.0848 0.1484 0 0.0424 0.0318 0.10599 0.0424 0.053 0.0424 0.0742h0.1484q0.10599-0.0954 0.10599-0.159zm0.1696 1.5582q0-0.1696-0.1802-0.1696-0.0636 0-0.14839 0.0848v0.1802q0.15899 0.0742 0.25439 0.0742 0.0742-0.0742 0.0742-0.1696zm-0.96458-0.83738q0-0.0424-0.0212-0.1272-0.0106-0.0848-0.0106-0.12719h-0.2332q0 0.0212-0.0212 0.0636-0.0106 0.0424-0.0106 0.0636 0 0.1696 0.1696 0.1696 0.0848 0 0.1272-0.0424zm-1.8974 2.7242-0.1484-0.159-0.1484 0.159q0.053 0.0636 0.1908 0.13779 0-0.0318 0.106-0.13779zm-1.166 1.1236-0.0742-0.0742h-0.1166q-0.053 0.0318-0.10599 0.11659l0.18019 0.1802 0.1166-0.22259zm-0.90098 0.93278q-0.053-0.053-0.1484-0.1166-0.1484 0.1484-0.1484 0.15899 0.0636 0.053 0.1908 0.10601 0.053-0.053 0.106-0.1484zm-0.85858 0.94338q-0.0636-0.053-0.1802-0.159-0.0318 0.053-0.1166 0.1484 0.053 0.053 0.1484 0.1166 0.053-0.053 0.1484-0.106zm-0.76319 1.3886q-0.0636-0.0424-0.1908-0.14839-0.1166 0.11659-0.1166 0.19079 0.106 0.106 0.159 0.106l0.1484-0.1484zm-0.69959-0.66778q-0.0318-0.053-0.1166-0.1484-0.0848 0.0424-0.19079 0.1484 0.0636 0.0742 0.19079 0.14839 0.0318-0.053 0.1166-0.14839zm-0.63598 1.3038q-0.0318-0.0424-0.0742-0.1484-0.159 0.0742-0.159 0.1484 0.0742 0.0742 0.159 0.0742l0.0742-0.0742zm-0.52999 0.52999q-0.0954-0.1484-0.1908-0.1484l-0.1166 0.1166 0.159 0.1484q0.053-0.0318 0.1484-0.1166zm-0.4028 0.43459q-0.11659-0.1166-0.18019-0.1166-0.1484 0-0.1484 0.1166 0.053 0.053 0.1484 0.1166 0.0636-0.053 0.18019-0.1166zm-0.46639 0.43459q-0.0636-0.0742-0.1908-0.1484-0.053 0.053-0.10599 0.1484 0.10599 0.106 0.159 0.106 0.053-0.0318 0.13779-0.106zm2.8302 1.06v-0.212q-0.71019 0.49819-0.94338 0.49819-0.2968 0-0.65719-0.27559-0.46639-0.34979-0.40279-0.85858-0.65719 0.66779-0.77379 0.66779-0.159 0-0.63598-0.44519-0.477-0.4558-0.477-0.6042 0-0.0848 0.67839-0.83738-0.44519 0.0106-0.76318-0.2756-0.318-0.28619-0.318-0.72078 0-0.31799 0.43459-0.94338h-0.14839q-0.49819 0-0.97519 0.58299-0.13779 0.32859-0.45578 0.98578-0.4346 0.79499-0.77379 1.0176-0.52999 0.33919-0.86919 0.33919h-0.84798q-0.39219 0-0.95398 0.27559-2.2048 1.0812-2.2048 3.1905 0 0.76319 0.4134 1.5794 0.0636 0.1378 0.81618 0.94338 0.43459 0.4876 1.4098 1.378 0.1272 0.11659 0.4028 0.30739 0.0954 0.053 0.79498 0.23319 0.69959 0.1802 0.80558 0.1802 1.1766 0 1.8762-0.47699 0.55118-0.37099 1.007-1.1766 0.44519-0.76318 0.55119-1.4522 0-0.48759 0.1908-1.431 0.32858-0.80558 1.378-1.1448 0.45579-0.1484 0.90098-0.49819 0.54059-0.43459 0.54059-0.82679zm-2.862 0.48759q0 0.1272-0.36039 0.50879-0.34979 0.38159-0.47699 0.38159-0.0954 0-1.6854-1.6642-0.0106-0.0318-0.0106-0.0954 0-0.11659 0.34979-0.45578 0.3498-0.3392 0.4664-0.3392 0.10599 0 0.91158 0.79498 0.80558 0.78439 0.80558 0.86919zm-1.9292 1.9398q0 0.1166-0.37099 0.49819-0.36039 0.3816-0.47699 0.3816t-0.40279-0.2968l-1.272-1.3038q-0.0106-0.0424-0.0106-0.1272 0-0.1166 0.3392-0.46639 0.33919-0.36039 0.44519-0.36039 0.1272 0 0.93279 0.78438 0.81618 0.77378 0.81618 0.89038zm-1.1978 1.1978q0 0.0424-0.57239 0.57239-0.053 0.0106-0.14839 0.0106-0.1802 0-0.87978-0.67838-0.69959-0.67839-0.69959-0.84799 0-0.159 0.2544-0.42399 0.26499-0.2756 0.41339-0.2756 0.10599 0 0.2226 0.0636 0.11659 0.053 0.66778 0.61479 0.56179 0.55119 0.64659 0.68898 0.0954 0.12721 0.0954 0.2756zm2.8302-3.1269-1.3992-1.378q-0.1378 0.053-0.1378 0.14839 0 0.0636 0.65718 0.72079 0.66779 0.65719 0.73139 0.65719 0.1378 0 0.1484-0.1484zm-0.40279 0.47699v-0.1802q-0.33919-0.36039-0.67839-0.71018-0.55119-0.57239-0.65719-0.57239-0.0954 0-0.15899 0.0848 0.0742 0.16959 0.66778 0.79499 0.60419 0.62538 0.71019 0.62538 0.0318 0 0.1166-0.0424zm-1.5688 1.5264v-0.1166q-1.3568-1.3356-1.3568-1.3356-0.0848 0-0.13779 0.0742v0.1166q1.2402 1.3356 1.378 1.3356 0.0742 0 0.1166-0.0742zm-0.3604 0.40279v-0.1484q-1.0388-1.3038-1.3356-1.3038-0.0954 0-0.159 0.0742v0.106q1.3038 1.3144 1.378 1.3144 0.0318 0 0.11659-0.0424z"/>
</g>
</svg>
