<svg xmlns:rdf="http://www.w3.org/1999/02/22-rdf-syntax-ns#" xmlns="http://www.w3.org/2000/svg" height="25" width="25" version="1.1" xmlns:cc="http://creativecommons.org/ns#" xmlns:dc="http://purl.org/dc/elements/1.1/" viewBox="0 0 24.999999 24.999999">
<g transform="translate(-176.15 -178.87)">
<path d="m198.9 191.36q0 4.3164-2.9744 7.2832-2.9637 2.9775-7.2756 2.9775-4.3118 0-7.2863-2.9775-2.9637-2.9668-2.9637-7.2832 0-4.3271 2.9637-7.2832t7.2863-2.9561q4.3332 0 7.2863 2.9561 2.9637 2.9561 2.9637 7.2832zm-1.1983-3.6095q-0.11769-0.36416-0.39588-0.82471l-5.5209 2.442q0.0642 0.13924 0.17119 0.41771l5.7456-2.035zm-1.1234-1.9707q-1.3802-1.96-3.4773-3.0525-2.0864-1.1032-4.4723-1.1032-2.3646 0-4.483 1.1032-2.1613 1.1353-3.4238 3.0846l5.2855 2.8811q1.1662-1.1996 2.6428-1.1996 1.5407 0 2.6427 1.1996l5.2855-2.9133zm1.1234 8.8898-5.7456-2.0457q-0.0535 0.13923-0.13909 0.41771l5.5423 2.442q0.14979-0.29989 0.34238-0.814zm-5.8847-3.4595q0-1.3602-0.90944-2.3242-0.90945-0.96395-2.2576-0.96395-1.3588 0-2.2683 0.96395-0.89875 0.95324-0.89875 2.3242 0 1.3602 0.89875 2.3028 0.90945 0.94253 2.2683 0.94253 1.3481 0 2.2576-0.94253 0.90944-0.94253 0.90944-2.3028zm-6.3019-1.8422-5.5851-2.442q-0.0963 0.19279-0.33168 0.82471l5.7456 2.035q0.0428-0.14995 0.17119-0.41771zm11.063 7.1975-5.2855-2.8383q-1.1662 1.1996-2.6427 1.1996t-2.6428-1.1996l-5.2855 2.8704q1.2946 1.9386 3.4238 3.0632 2.1399 1.1246 4.483 1.1246 2.3753 0 4.5151-1.1246 2.1399-1.1246 3.4345-3.0954zm-11.095-3.5238q-0.0535-0.13924-0.13909-0.41771l-5.7456 2.0457q0.10699 0.34273 0.37448 0.814l5.5102-2.442zm5.9596-1.8315q0 1.1889-0.80246 2.0029-0.80245 0.81401-1.9901 0.81401t-1.9901-0.81401q-0.80246-0.814-0.80246-2.0029 0-1.1674 0.80246-2.0029 0.80244-0.84612 1.9687-0.84612 1.1769 0 1.9901 0.83542 0.82386 0.83542 0.82386 2.0136zm-0.22469 0q0-1.0603-0.75965-1.8529-0.74896-0.8033-1.8082-0.8033t-1.8189 0.8033q-0.74896 0.79258-0.74896 1.8529 0 1.0496 0.75965 1.8636 0.77036 0.814 1.8082 0.814t1.7975-0.814q0.77036-0.814 0.77036-1.8636zm-1.3374 0q0 1.3174-1.2304 1.3174-0.56707 0-0.89875-0.36416-0.33168-0.37487-0.33168-0.95324 0-0.55695 0.34238-0.95323 0.34238-0.3963 0.88805-0.3963 0.56707 0 0.89874 0.38558 0.33169 0.38558 0.33169 0.96395zm-0.23539 0.0429q0-0.46056-0.27818-0.77117-0.26749-0.32131-0.71686-0.32131-0.43868 0-0.71686 0.32131-0.27818 0.32132-0.27818 0.77117 0 0.46055 0.26748 0.78186 0.27819 0.32132 0.72756 0.32132 0.99504 0 0.99504-1.1032z"/>
</g>
</svg>
