<svg xmlns:rdf="http://www.w3.org/1999/02/22-rdf-syntax-ns#" xmlns="http://www.w3.org/2000/svg" height="25" width="25" version="1.1" xmlns:cc="http://creativecommons.org/ns#" xmlns:dc="http://purl.org/dc/elements/1.1/" viewBox="0 0 24.999999 24.999999">
<g transform="translate(-200.84 -360)">
<path d="m223.59 366.85q0 0.1901-0.23247 0.3591-0.22191 0.15842-0.41212 0.15842-0.16907 0-0.54948-0.17954-0.36985-0.17956-0.59175-0.17956-0.51779 0-1.4054 0.50695-0.1902 0.10562-1.2258 1.0034 0.92989 0.54921 0.92989 1.8483 0 0.86604-0.62345 1.4892-0.26417-0.0211-0.26417 0.35909 0 0.36966-0.6763 1.1406-0.23247 0.26405-1.7964 2.0701-0.23247 0.32741-0.7714 0.87661-0.0528 0.0422-0.23246 0.10562 0.17964 0.16898 0.3487 0.33797 0.25361 0.2429 0.25361 0.35908 0 0.2746-0.45438 0.80268-0.10567 0.0211-0.31701 0.0528-0.0211 0.10562-0.11624 0.30629-0.0951 0.19011-0.67628 0.53864 0 0.0739-0.0106 0.23236-0.21134 0.16898-0.41211 0.34853-0.2853 0.23235-0.44382 0.23235-0.1585 0-0.45437-0.29572-0.21134-0.20068-0.42268-0.4119-0.52835 0.67593-1.3526 1.4892-0.11625 0.0106-0.33815 0.0846-0.0528 0.0317-0.39097 0.40133-0.6129 0.66538-0.88764 0.83437-0.45438 0.28515-1.1835 0.28515-1.5428 0-2.1768-1.0667-0.0422-0.13729-0.13737-0.42246-0.45438 0.38022-1.2046 1.2252 0 0 0 0.24291 0 0.33797-0.61288 0.67594-0.15852 0.0845-0.39098 0.0845-0.21134 0-0.59176-0.27461-0.38041-0.26402-0.49664-0.4647-0.0634-0.26403-0.17964-0.79211 0.23248-0.21123 0.46495-0.42246 0.24304-0.21123 0.57061-0.21123 0.0528 0 0.15851 0.0106 0.11624 0.0211 0.16907 0.0211 0.0317-0.0105 0.0739-0.0528 0.30645-0.26404 1.7436-1.7427 1.0884-1.1406 3.2758-3.4114-0.0528-0.1373-0.19021-0.26404l0.32758-0.40133q-0.10566-0.14788-0.20077-0.14788-0.0739 0-0.21135 0.0528-0.13736 0.0422-0.21133 0.0422-0.0422-0.0528-0.0422-0.15842 0-0.14787 0.50722-0.63369h0.1902q0.0951 0.0739 0.0951 0.17954 0 0.0528-0.0528 0.14786-0.0422 0.0846-0.0422 0.1373 0 0.0845 0.22191 0.20068 0.16908-0.1373 0.51778-0.48584-0.10567-0.21122-0.2219-0.21122-0.0528 0-0.1585 0.0317-0.10568 0.0317-0.15851 0.0317-0.0634-0.10562-0.0634-0.14786 0-0.16898 0.47551-0.61256h0.2219q0.0634 0.12673 0.0634 0.17954 0 0.0528-0.0634 0.12673-0.0634 0.0634-0.0634 0.11618 0 0.0422 0.21133 0.24291 0.16907-0.13729 0.54949-0.51751-0.0951-0.15842-0.22192-0.28515-0.095 0.0634-0.19019 0.0634-0.19021 0-0.19021-0.11617 0-0.10563 0.27474-0.35909 0.27474-0.25348 0.39098-0.25348 0.13737 0 0.13737 0.17955 0 0.11617-0.13737 0.24291 0.0634 0.0845 0.19021 0.24292 0.30643-0.23236 0.43325-0.23236 0.0422 0 0.11623 0.0317 0.0845 0.0317 0.1268 0.0317 0.0951 0 0.13737-0.14788-0.0951-0.12673-0.36984-0.31683l0.0105-0.34854q0.22191-0.53863 0.59175-0.51751v0.15842q0 0.0528-0.11623 0.22179-0.11625 0.16898-0.11625 0.23236 0 0.0634 0.14795 0.15842 1.0884-1.2357 3.2546-3.7282 0.94046-1.0667 1.8704-2.1334 1.2152-1.5209 1.2152-2.3764 0-0.23236-0.16907-0.65481-0.15851-0.42246-0.15851-0.64425 0-0.19012 0.14794-0.34853 0.15851-0.16899 0.34871-0.16899 0.61289 0 2.293 1.5526 1.49 1.373 2.0183 2.1546 0.30645 0.45413 0.30645 0.89773zm-4.7234 5.2913q0-0.0422-0.0422-0.14786l-3.6139 4.0134q0.10567 0.0845 0.17964 0.0845 0 0 2.8214-2.9995 0.65515-0.69706 0.65515-0.95054zm3.9943-5.5342q-0.48609-0.79212-1.733-2.0595-1.3209-1.3413-2.05-1.7004v0.11618q0-0.0211 0.0845 0.20068 0.11624 0.30628 0.11624 1.1723v0.0739q0 0.2746-0.26418 0.81324-0.46495 0.96111-1.3737 2.0489-0.80309 0.93998-1.6168 1.8694-1.3103 1.542-2.5044 2.915-0.47552 0.54921-1.4477 1.637-2.4516 2.4608-7.3441 7.4036 0.12682 0.1901 0.21134 0.34853l5.6639-5.4286 1.2469 1.1829q-0.51778 0.55977-1.0356 1.1195-0.69743 0.78156-0.69743 1.2251 0 0.46471 0.86649 0.46471 0.30645 0 1.0039-0.81324 0.708-0.80268 0.85592-0.80268 0.43326 0 0.64459 0.16899 0.23248 0.2218 0.47552 0.45415 0.1585-0.1373 0.44382-0.45415l-0.7397-0.70761q-0.47551 0.26402-0.68685 0.26402-0.32758 0-0.59175-0.16897-1.4054 1.6687-1.5111 1.6687-0.23248 0-0.23248-0.19012 0-0.0422 1.49-1.6159 0-0.0846-0.0528-0.24293-0.0528-0.16898-0.0528-0.25347 0-0.31685 0.25361-0.72875l-1.173-1.2463 0.25362-0.22179 1.099 1.204q0.31701-0.2746 0.87705-0.2746l-1.3948-1.542q0.10568-0.10561 0.22191-0.11617l0.0317 0.0211q0.29588 0.22179 0.87706 0.89773 0.52835 0.63368 0.90876 0.86604v0.2218l-0.30644 0.1373q0.20078 0.0422 0.48608 0.1901l0.0951-0.1056 1.0673 1.0033q0.23247-0.23236 0.51778-0.59145l-0.91933-0.8766q-0.28531 0.23235-0.47552 0.23235-0.11623 0-0.16907-0.0845 0.0846-0.0422 0.2536-0.12674 0.0951-0.0528 0.84536-0.85548 0.9933-1.0984 3.0327-3.2318 0.56005-0.5492 0.61289-0.60201 0.38041-0.42247 0.42269-0.69707 0.0634-0.11618 0.0634-0.51752 0-0.0951 0-0.29571-0.0105-0.20067-0.0105-0.29572 0-0.17955-0.72911-0.77099-0.71856-0.60202-0.91933-0.60202-0.26417 0-0.47552 0.11618-0.2853 0.14786-0.86649 0.78156-0.79252 0.83436-0.85592 0.89772-0.0739-0.0634-0.0845-0.14786 0.8348-0.89773 1.9232-1.8694 0.17964-0.0211 0.50721-0.12674 0.28531-0.34853 0.7714-0.92941 0.45437-0.53864 1.0778-1.0456 0.82422-0.67593 1.268-0.67593 0 0 0.75026 0.45415v0.15841l-0.0211 0.0211q-0.2853-0.0105-0.34871-0.0105-1.2152 0-2.6946 1.7426-0.16907 0.20067-0.40155 0.42246l0.1585 0.0422q0.57063-0.6337 1.4688-1.1723 1.025-0.59144 1.7541-0.59144 0.48608 0 0.66573 0.0739 0.38041 0.15843 0.36983 0.15843h0.0422zm-10.778 6.7699q-0.0739-0.0528-0.2219-0.14786l-0.54949 0.5492q0.0106 0.0105 0.25361 0.14786 0.1268-0.15843 0.51778-0.5492zm2.9588 4.457q0-0.0317-0.75025-0.87661-0.41211 0.69705-0.41211 0.69705 0 0.0528 0.33814 0.34854 0.34871 0.28516 0.41211 0.28516 0.0952 0 0.25361-0.17954 0.1585-0.19012 0.1585-0.2746zm-3.7302-3.6543-0.21134-0.22178q-0.17963 0.17954-0.48608 0.58088 0.0422 0.0528 0.11623 0.14785 0.19022-0.16898 0.58119-0.50695zm2.6629 2.8727q0-0.0317-0.0317-0.12674-0.0317 0-0.10567-0.0211-0.0634-0.0211-0.10568-0.0211-0.0317 0-0.30643 0.27461-0.27475 0.26403-0.43325 0.26403-0.17965 0-0.17965-0.25347 0-0.17955 0.20078-0.3591 0.15851-0.1373 0.32757-0.2746-0.0422-0.21122-0.23246-0.21122-0.27475 0-0.48609 0.30627-0.21134 0.30629-0.21134 0.59144 0 0.57033 0.82423 0.57033 0.10566 0 0.42268-0.31685 0.31701-0.3274 0.31701-0.42245zm-3.4871-2.2496q-0.0528-0.0634-0.1585-0.14786l-0.44382 0.45416q0.0317 0.0634 0.11624 0.17954 0.26418-0.21123 0.48608-0.48584zm0.59175 2.5665q-0.23248-0.28516-0.47551-0.48584-0.13737 0.12675-1.2152 1.0667-0.39098 0.3274-0.78196 0.65481-0.45437 0.45414-0.45437 0.85549 0 0.85548 1.0884 0.85548 0.14794 0 0.35929-0.34853-0.0634-0.67594-0.0634-0.602 0-0.34854 0.63402-1.0456 0.45438-0.47527 0.90876-0.95053zm-0.46495 3.0206q-0.45438-0.21123-0.47552-0.21123-0.0317 0-0.3804 0.34853-0.34871 0.34854-0.71856 0.34854-1.0144 0-1.3103-0.51754-0.17963-0.31683-0.17963-0.69705 0 0.0528 0.1268-0.61256-0.20078 0.21121-0.39098 0.4119-0.23247 0.26403-0.23247 0.50695 0 0.64424 0.58119 1.0667 0.51778 0.38022 1.1835 0.38022 0.94046 0 1.7964-1.0245zm-5.8224 1.3202q0-0.12673-0.33814-0.51751-0.0317-0.0105-0.0845-0.0105-0.17964 0-0.38041 0.10561-0.24304 0.12675-0.23247 0.28517 0.35928 0.45414 0.82423 0.57032 0.21133-0.28516 0.21133-0.43303zm14.413-11.311q0 0.30629-0.63402 0.92942l-4.5861 4.4887q-0.0422-0.0634-0.0422-0.0951 0-0.10563 4.3008-4.4042-0.0422-0.0211-0.10566-0.0211-0.16908 0-0.21134 0.0105-1.2469 1.1934-3.8675 3.7494l-1.3103-1.278 4.8291-4.626-0.0211-0.0211q-0.10566 0.0105-0.26417 0.12673-0.14795 0.11618-0.31701 0.10562h-0.0634v-0.14786q0.35928-0.45414 0.89819-0.45414 0.0845 0 0.2219 0.0106 0.34872 0.39078 0.69743 0.77099 0.47551 0.55976 0.47551 0.85548zm-0.49665 0.0106-0.85593-0.93997q-0.20077 0.20067-0.24304 0.34854l0.95102 0.8766q0.0317-0.0422 0.14795-0.28517zm-0.7397 0.24292q-0.19019-0.2218-0.61288-0.62313-0.23247 0.20068-0.71856 0.68651 0.47553 0.58088 0.54949 0.58088 0.13737 0 0.78195-0.64426zm-1.0567 0.86605q-0.15851-0.17955-0.51778-0.51752l-1.8492 1.7849q0.42267 0.0634 0.68685 0.27458l1.6802-1.542zm-1.9655 1.8483q-0.0211-0.0422-0.0422-0.1373h-0.38041q-0.14794 0.0951-0.14794 0.31684 0 0.0951 0.0845 0.34853l0.48608-0.52807zm-0.69742 0.76043q0-0.0739-0.11624-0.32741-0.11623-0.26404-0.11623-0.33796 0-0.0528 0.0105-0.14788 0.0105-0.1056 0.0105-0.14785-0.22191 0.2218-0.65516 0.67593l0.58118 0.61257q0.28531-0.36966 0.28531-0.3274z"/>
</g>
</svg>
