<svg xmlns:rdf="http://www.w3.org/1999/02/22-rdf-syntax-ns#" xmlns="http://www.w3.org/2000/svg" height="25" width="25" version="1.1" xmlns:cc="http://creativecommons.org/ns#" xmlns:dc="http://purl.org/dc/elements/1.1/" viewBox="0 0 24.999999 24.999999">
<g transform="translate(-365.91 -457.08)">
<path d="m371.49 479.67c-0.46191-0.1417-0.85625-0.43784-1.0297-0.77328-0.19692-0.38081-0.1843-0.4974 0.0991-0.91496 0.13418-0.19773 0.24397-0.39971 0.24397-0.44884 0-0.0491-0.17577-0.14201-0.39061-0.20637-0.54213-0.16243-0.87804-0.62217-0.87804-1.2017 0-0.51125 0.24708-0.63719 0.34785-0.17729 0.12406 0.56618 0.18789 0.53744 0.2167-0.0976 0.0353-0.77806 0.1653-0.8442 0.64215-0.32673 0.24558 0.26652 0.39332 0.3387 0.74903 0.36595 0.44074 0.0338 0.44624 0.0303 1.0304-0.64915 1.4089-1.6388 1.5691-1.8923 1.697-2.6837 0.0651-0.40255 0.13283-1.3589 0.1506-2.1252 0.0178-0.76633 0.0815-1.5423 0.14157-1.7244 0.13774-0.41735 0.84842-1.079 1.424-1.3257 0.24226-0.10384 0.72399-0.24105 1.0705-0.3049 0.34652-0.0639 0.62954-0.16339 0.62892-0.22121-0.00083-0.0578-0.18102-0.19133-0.40088-0.29671-0.41131-0.19714-0.98923-0.81988-1.1014-1.1869-0.0349-0.11407-0.21342-0.36185-0.39676-0.55064l-0.33336-0.34324 0.0517-1.2548c0.0804-1.9523 0.40278-2.8026 1.2713-3.3534 1.2113-0.7682 3.147-0.56127 3.9928 0.42683 0.48269 0.56391 0.69782 1.3927 0.75972 2.9266l0.0506 1.2548-0.33336 0.34324c-0.18335 0.18879-0.3624 0.43657-0.39789 0.55064-0.11626 0.37362-0.60672 0.90302-1.0588 1.1428-0.24394 0.12941-0.44353 0.28323-0.44353 0.34182 0 0.0586 0.31331 0.16251 0.69624 0.23094 0.93097 0.16638 1.8031 0.62613 2.1653 1.1414 0.23396 0.33289 0.30004 0.559 0.37874 1.2959 0.067 0.62718 0.064 0.93045-0.0101 1.0197-0.16634 0.20042 0.13612 2.5454 0.3778 2.9291 0.105 0.1667 0.60093 0.78615 1.1021 1.3766l0.91117 1.0735 0.4342-0.032c0.34617-0.0256 0.49749-0.0997 0.74639-0.36595 0.48425-0.51799 0.6149-0.45416 0.6149 0.30039 0 0.35782 0.0425 0.63433 0.0976 0.63433 0.0537 0 0.0976-0.12297 0.0976-0.27325 0-0.26339 0.1502-0.50747 0.31229-0.50747 0.0429 0 0.0781 0.211 0.0781 0.46888 0 0.39673-0.0508 0.52436-0.33032 0.8295-0.18168 0.19834-0.41784 0.36062-0.52479 0.36062-0.10696 0-0.2456 0.0616-0.3081 0.13693-0.0897 0.10802-0.0608 0.19398 0.13678 0.40715 0.33298 0.35928 0.39127 0.64153 0.20634 0.99913-0.36244 0.70089-1.1345 0.94743-2.7243 0.86996-1.1473-0.0559-2.7424-0.41451-4.0475-0.90999-0.70914-0.2692-0.79047-0.26674-1.9717 0.0597-1.7821 0.49246-3.4688 0.79216-4.6842 0.83235-0.70825 0.0234-1.3616-0.003-1.5578-0.0633zm12.238-3.4628c-1.9294-1.791-2.3374-2.2578-2.4709-2.8277-0.0716-0.30554-0.092-0.13193-0.0998 0.84895-0.01 1.2296-0.009 1.2335 0.24778 1.4018 0.28555 0.18709 0.51342 0.20985 0.98782 0.0986 0.28665-0.0672 0.35372-0.037 0.67422 0.30375 0.34822 0.37022 0.72082 0.59858 1.0025 0.61443 0.0775 0.004-0.0762-0.19358-0.34155-0.43988zm-10.354 0.20025c0.25007-0.0469 0.35577-0.12571 0.39883-0.29726 0.0322-0.12838 0.17124-0.30724 0.30894-0.39745 0.21799-0.14284 0.31127-0.14842 0.72194-0.0432 0.40321 0.10334 0.51526 0.0983 0.77278-0.0349l0.30118-0.15575-0.0128-1.7297c-0.0106-1.4182-0.0292-1.633-0.10384-1.193-0.23182 1.367-0.19513 1.3109-2.0029 3.0582-0.54631 0.528-0.93277 0.93679-0.85882 0.90841 0.074-0.0284 0.28757-0.0803 0.4747-0.11542z" stroke="#000" fill="none"/>
</g>
</svg>
