<svg xmlns:rdf="http://www.w3.org/1999/02/22-rdf-syntax-ns#" xmlns="http://www.w3.org/2000/svg" height="25" width="25" version="1.1" xmlns:cc="http://creativecommons.org/ns#" xmlns:dc="http://purl.org/dc/elements/1.1/" viewBox="0 0 24.999999 24.999999">
<g transform="translate(-162.74 -528.79)">
<path d="m185.49 551.54h-20.5v-20.5h20.5v20.5zm-0.59974-3.2403v-14.467h-3.1295l-0.0872 9.83h-1.145v4.735q0 0.0546 0.11995 0.16365 0.11995 0.12002 0.17447 0.12002h3.7838q0.28351 0 0.28351-0.38186zm-5.7247-5.5314q-0.0981-0.0873-0.0981-0.13093v-8.8044h-0.32713v9.2954q0 0.13092 0.10904 0.12h0.0109q0.0981-0.16364 0.30532-0.48003zm0.73059 5.6623v-4.7786h-1.3085l-0.0981-0.0873v-9.7318h-1.5811v9.7318l-0.0981 0.0873h-1.2322v4.8113q0 0.2182 0.28351 0.2182h3.7511q0.0654 0 0.17446-0.0982 0.10905-0.0873 0.10905-0.15274zm-5.583-5.6623q-0.10904-0.0436-0.10904-0.13093v-8.8044h-0.32713v9.4154q0.11994 0.0109 0.2508-0.18546 0.0872-0.15275 0.18537-0.29457zm0.58883 5.695v-4.8113h-1.1668l-0.10904-0.0873v-9.7318h-1.8973v9.819h-1.145v4.7786q0 0.0655 0.10904 0.15274 0.10905 0.0982 0.17447 0.0982h3.7511q0.28352 0 0.28352-0.2182zm-5.7574-5.695q-0.0981-0.0873-0.0981-0.13093v-8.8044h-0.32712v9.2954q0 0.13092 0.10903 0.12h0.0109q0.0981-0.16364 0.30532-0.48003zm0.79601 5.6296v-4.7459h-1.3957l-0.0981-0.0873v-9.7318h-2.8569v14.401q0 0.44731 0.28351 0.44731h3.7838q0.0654 0 0.17447-0.10911 0.10904-0.10909 0.10904-0.17456zm14.677-0.28366q0 0.32731-0.21809 0.32731h-3.3912q0-0.0655 0.13085-0.19638h3.2931v-13.768q0.0654-0.0546 0.18537-0.17456v13.812zm-4.9942 0.0982q0 0.22912-0.20718 0.22912h-3.3694q0.0327-0.0764 0.0981-0.19638h3.2277l0.0981-0.0873v-4.0258q0.0654-0.0655 0.15266-0.14183v4.2222zm-4.9832 0.0873q-0.11995 0.14184-0.18538 0.14184h-3.4021q0-0.0546 0.14175-0.19638h3.2822v-4.1131q0.0545-0.0436 0.16357-0.14183v4.3095zm-4.9614-0.1091q0 0.25094-0.19628 0.25094h-3.4239q0.0436-0.0655 0.14175-0.19638h3.2277q0.0872-0.0873 0.0872-0.12002v-4.0258t0.16357-0.14182v4.2331z"/>
</g>
</svg>
