<svg xmlns:rdf="http://www.w3.org/1999/02/22-rdf-syntax-ns#" xmlns="http://www.w3.org/2000/svg" height="25" width="25" version="1.1" xmlns:cc="http://creativecommons.org/ns#" xmlns:dc="http://purl.org/dc/elements/1.1/" viewBox="0 0 24.999999 24.999999">
<g transform="translate(-207.39 -189.35)">
<path d="m230.14 196.01q0 0.23502-0.43777 0.67301-3.0964 3.0659-3.3099 3.0659-0.5125 0-0.5125-0.53413 0-0.21365 0.0641-0.30979 0.0747-0.10683 1.6443-1.6772 1.5695-1.5703 1.687-1.6558 0.16016-0.1175 0.33098-0.1175 0.20288 0 0.36303 0.18161 0.17084 0.17091 0.17084 0.37388zm-0.4698-3.8671q0 0.20296-1.5375 1.7413l-7.5487 7.5633q-0.24557 0.24571-0.73671 0.71575-0.096 0.0854-0.30963 0.0854-0.51252 0-0.51252-0.53413 0-0.23502 1.5375-1.7626 1.8898-1.9015 5.6696-5.6832l1.8685-1.8588q0.24557-0.2564 0.7474-0.73712 0.0854-0.0747 0.27759-0.0747 0.54454 0 0.54454 0.54483zm-6.8547 2.5104q0 0.23503-0.4698 0.69438-0.10676 0.10683-1.8898 1.9015-0.30963 0.34184-0.97162 0.96144-0.12812 0.10681-0.36302 0.10681-0.53385 0-0.53385-0.51275 0-0.24571 0.43775-0.6837l1.9005-1.8908q0.30963-0.34183 0.96093-0.95075 0.19219-0.16023 0.38438-0.16023 0.54454 0 0.54454 0.53412zm-0.19218 10.01q0 0.32047-0.19219 0.51275-0.10679 0.10684-1.0143 0.77984-0.72605 0.52345-2.1568 1.5917l1.1958 3.6962q-0.032 0.85462-0.90756 0.85462-0.13881 0-0.21354-0.0427-1.5375-1.1644-3.2031-2.3502-1.1104 0.81189-2.05 1.5169-0.30963 0.2457-0.91823 0.69438-0.26693 0.1816-0.54453 0.1816-0.68333 0-0.80079-0.67301-0.0213-0.10683-0.0106-0.12819l1.1958-3.771q-0.21354-0.17093-2.7547-2.0084-0.60859-0.43799-0.60859-0.85461 0-0.27775 0.21354-0.56618t0.48047-0.28843h3.8438q0.20285-0.61959 0.60858-1.8481 0.16017-0.69437 0.65131-1.9015 0.19219-0.30979 0.69401-0.30979 0.67266 0 0.87553 0.81187 0.0854 0.33116 0.39506 1.2606 0.21353 0.66232 0.65129 1.987h3.8758q0.26693 0 0.48047 0.29912 0.21355 0.28843 0.21355 0.55549zm-1.1745 0.11751h-4.0253l-1.2812-3.8671-1.2706 3.8351h-4.1l3.3313 2.4677-1.2599 3.7817 3.2992-2.3609 3.2779 2.3609-1.2919-3.803 3.3206-2.4143zm-1.388 0.48071-2.3383 1.752 0.96094 2.9484-2.5412-1.8267-2.6052 1.8588q0.0534-0.39526 0.3737-1.0896 0.30963-0.36321 0.97161-0.8012 0.54455-0.34185 1.0784-0.69438l1.751 1.2285q0.0106-0.0214 0.0106-0.0427l-0.69401-2.0404 2.0714-1.4101h0.87553l0.0854 0.11751z"/>
</g>
</svg>
