<svg xmlns:rdf="http://www.w3.org/1999/02/22-rdf-syntax-ns#" xmlns="http://www.w3.org/2000/svg" height="25" width="25" version="1.1" xmlns:cc="http://creativecommons.org/ns#" xmlns:dc="http://purl.org/dc/elements/1.1/" viewBox="0 0 24.999999 24.999999">
<g transform="translate(-136.17 -557.36)">
<path d="m155.4 564.87q0 0.46616-0.28397 2.0489-0.49391 2.7644-0.75317 4.4122-0.11116 0.84558-0.43215 2.5259-0.0246 0.1084-0.30868 0.9323-0.11116 0.45532-0.45688 1.3117-0.25924 0.31439-0.74077 0.96484-0.0619 0.0867-0.0493 0.15177l0.29636 1.6912q0.0247 0.13009-0.56794 0.37942-1.9755 0.82391-3.9881 0.82391-1.5434 0-2.4942-0.32523-0.062-0.68297-0.1358-1.3659-0.0864-0.80222-0.29629-1.3334-0.0247-0.0651-0.98777-1.431-1.1607-1.6586-1.6051-2.721-0.0989-0.2385-0.20989-1.8213-0.0987-1.3985-0.0987-1.9622 0-0.0217 0.50623-0.5854 0.012-0.10841 0.012-0.15177l-0.87663-6.9815q0-0.0108 0-0.0867 0-1.7345 1.4693-1.7345 1.4076 0 1.9385 2.9487 0.18522 1.3117 0.37045 2.6126 0.27165 1.7887 0.60499 2.4609 0.50624-0.83474 1.4446-0.83474 0.98775 0 1.5186 1.0299 0.48152-0.22766 1.0125-0.22766 1.1112 0 1.568 1.2467 0.30869-1.4744 1.2224-4.3363 0.4075-0.93232 1.2471-0.93232 1.0742 0 1.0742 1.2901zm-10.112 1.5936q-0.2346-1.5069-0.81494-4.5098-0.40743-1.702-1.0742-1.702-0.74083 0-0.74083 1.2358 0 1.1817 0.32108 3.068 0.43214 2.4717 0.49384 3.068 0.41983-0.49868 1.2224-1.5177l0.59266 0.35774zm6.1118 4.087q0-0.0325-0.13586-0.88895-0.2222-1.3876-1.0371-1.3876-0.17283 0-0.44448 0.11925-0.30869 0.13009-0.28397 0.27102l0.33334 1.7887-0.4692 1.4635q0.28398 1.0407 1.1853 1.4093 0.85198-2.7427 0.85198-2.7752zm-2.3706-0.23849q0-0.24934-0.13585-0.93232-0.20988-1.0624-0.24693-1.16-0.27163-0.7155-0.88895-0.7155-0.7038 0-0.7038 0.69381 0 0.0434 0.33335 2.1682-0.28398 0.5312-0.28398 1.0082 0 1.1383 1.173 1.6044 0.75316-2.6235 0.75316-2.6668zm5.6426-5.583q0-0.50952-0.34573-0.50952-0.65442 0-1.3953 3.1222-0.17283 0.72634-0.50617 1.9947-0.11116 0.33606-0.27164 0.99736 0.0119-0.0976 0.0119 0.36858 0 0.45532-1.1112 3.5233l-0.074 0.0325q-0.76549-0.33607-1.0865-0.54204-0.53095-0.33607-0.85198-0.80222-0.11116 0.52036-0.33333 0.96483-1.6792-0.5312-2.0991-1.4635 0.0247 0.18429 0.0247 0.72633-0.22228 0.0433-0.66676 0.0976l-0.0246-0.0325q-0.0372-0.18429-0.0989-0.56372-0.1605-0.93231-1.1112-2.0164 0.98776-1.0949 0.98776-2.0814 0-0.98651-0.82726-1.5502-0.75316 0.88895-1.8644 2.4934 0.0246 0.65045 0.0865 1.6044 0.0864 1.2684 0.22226 1.7345 0.17283 0.5312 0.8643 1.5719 0.75317 1.1383 1.5063 2.2657 0.41975 0.81306 0.59266 2.6452 0.70373 0.16262 1.815 0.16262 2.2101 0 3.7782-0.78054-0.27165-1.1058-0.27165-1.3334 0-0.37943 0.41982-0.96483 0.5309-0.73718 0.605-0.92148 0.53095-1.2467 1.0001-4.2279 0.34567-2.2224 0.75318-4.423 0.27163-1.4852 0.27163-2.0923zm-8.1121 5.518q0 0.0542-0.17284-1.0407-0.0989 0.30354-0.28397 0.68297-0.41982 0.86727-0.41982 0.7697 0-0.11925 0.67908 1.0841-0.0372-0.13008-0.0372-0.27102 0-0.20597 0.11116-0.60708 0.12346-0.41196 0.12346-0.61793z" stroke="#000" stroke-width="0.2"/>
</g>
</svg>
