<svg xmlns:rdf="http://www.w3.org/1999/02/22-rdf-syntax-ns#" xmlns="http://www.w3.org/2000/svg" height="25" width="25" version="1.1" xmlns:cc="http://creativecommons.org/ns#" xmlns:dc="http://purl.org/dc/elements/1.1/" viewBox="0 0 24.999999 24.999999">
<g transform="translate(-342.01 -496.52)">
<path d="m344.26 516.37q0 0.52174 0.41348 1.3478 0.27203 0.54349 0.7508 0.86957 0.0326 0.0218 0.4026 0.18478 1.1425 0.5 2.7638 0.5 0.56581 0 1.186-0.3913 0.087-0.0543 0.38083-0.42391 0.65287-0.81523 1.1208-2.0544 0.0762-0.25 0.28291-0.70652 0.1741-0.10869 0.47876-0.40217 0.23939-0.32609 0.67463-1.4674 0.42437-1.087 0.5767-1.2609 0.11969-0.0543 0.30467-0.22825 0.0109-0.0978 0.0544-0.30435 0.0326-0.0978 0.18498-0.34783 0.11969-0.20652 0.11969-0.40217 0-0.0543-0.0109-0.27174-0.1197-0.0543-0.30468-0.22826l3.2208-7.0543 0.20674 0.0652 0.96842-1.9456q-0.0653-0.0652-0.35908-0.27174 0.20674-0.58696 0.3482-0.74999 0.23938-0.29349 0.75079-0.29349 0.31556 0 1.8607 0.19565 1.5778 0.20653 1.6866 0.28261 0.0979 0.0761 0.19586 0.31522 0.13058 0.0109 0.45701 0.0434 0.31555 0.0326 0.48965 0.0326 0.0218-0.0435 0.19586-0.36955h1.0337l0.0653-0.15218q-0.79432-0.42391-1.0555-0.86957-0.0544-0.1413-0.18498-0.40217-0.0979-0.13043-1.6648-0.38043-2.9161-0.45652-3.3296-0.45652-1.0664 0-1.4472 0.23913-0.23938 0.15217-1.0228 1.1196-0.13057 0.0109-0.4026 0.0218-0.14146 0.18479-0.14146 0.31522 0 0.0435 0.0979 0.11956 0.0979 0.0761 0.0979 0.13043 0 0.10871-0.32643 0.88044-0.11969 0.0109-0.35908 0.0218-0.34819 0.61957-1.0337 1.8804h-0.33731q-0.4026 0.91305-1.0664 2.0544-0.23938 0.0652-0.47877 0.13043-0.33731 0.0978-0.35908 0.54348l-0.2285 0.0761q-0.10881 0.13043-0.29379 0.38044-0.85961-0.4674-1.3928-0.4674h-2.5571q-0.71815 0-1.4472 0.31522-0.51142 0.21739-0.51142 0.96739 0 0.46739 0.93578 0.88043 0.16321 0.73913 0.16321 1.0217 0 0.21739-0.6855 2.1196-0.1197 0.35869-0.38084 1.0652-0.18498 0.3587-0.51142 1.0978-0.57669 1.4674-0.57669 2.6848zm9.7495-11.891q0.0979-0.31521 0.38084-0.31521 0.21763 0 0.21763 0.22827 0 0.27173-0.21763 0.27173-0.21762 0-0.38084-0.18479zm-0.35907 0.57609v-0.18478q0-0.0326 0.10881-0.1413 0.0762 0.0218 0.21762 0.0978v0.22826q-0.0762 0.0652-0.15233 0.0652-0.0435 0-0.0979-0.0326t-0.0762-0.0326zm-1.1643 1.3913v-0.10869q0.0544-0.1087 0.21762-0.28261 0.10881 0.20652 0.10881 0.19565 0 0.14131-0.21762 0.27174-0.0326-0.0326-0.10881-0.0761zm0.59846-0.35869v-0.26087q0.21762-0.0978 0.20674-0.0978 0.0979 0 0.18498 0.0978v0.26087q-0.21762 0.0978-0.18498 0.0978 0.0109 0-0.20674-0.0978zm-1.5669 1.1522q0-0.0326 0.21763-0.34782 0.0762 0.13043 0.2285 0.13043-0.14146 0 0.44612-0.0978-0.0218 0.13043-0.0218 0.30435 0 0.18478 0.0218 0.31521-0.35907 0.20652-0.50053 0.20652-0.0653 0-0.2285-0.21739-0.16322-0.21738-0.16322-0.29347zm-0.76168 1.5761v-0.45651q0.1741-0.0869 0.39173-0.16305-0.0979 0.19565-0.39173 0.61956zm2.7964-2.3261v-0.27174q0-0.0652 0.28291-0.35869 0.14145 0.3913 0.14145 0.31521 0 0.11957-0.14145 0.31522h-0.28291zm-0.83785 0.82609v-0.1413q0.21762 0.0218 0.25027 0.0218h0.10881q0.0762 0 0.14145-0.0218v-0.16305q-0.0653-0.0543-0.16321-0.18478 0.0653 0 0.14145-0.0761 0.21762 0.21739 0.21762 0.28261 0 0.14131-0.16321 0.31521-0.16322 0.17392-0.30468 0.17392 0 0-0.2285-0.20652zm-5.0271 4.663q0-0.66305 0.81608-0.66305 0.35908 0 0.54405 0.28261-0.89225 0.19565-0.89225 0.32609 0 0.15217 0.1741 0.21739l0.81608-0.19565v0.30435q0 0.19565-0.19586 0.34782-0.20674 0.14131-0.41348 0.14131-0.84872 0-0.84872-0.76087zm3.6343-2.6956q0.087-0.33695 0.3482-0.76087 0.0326 0.11957 0.10881 0.34783-0.13057 0.0326-0.45701 0.41304zm0.58758-0.97826q0-0.0326 0.0218-0.0652t0.0218-0.0543q0.56582 0.16304 0.62022 0.16304l0.0435-0.0218v-0.15217q-0.10882-0.0652-0.33732-0.20652 0.0653 0 0.18498-0.0761 0.10881-0.0761 0.16322-0.0761 0.21762 0 0.21762 0.33696 0 0.53261-0.53318 0.53261-0.0435 0-0.11969-0.0218-0.0871-0.0218-0.13057-0.0218-0.15233-0.29348-0.15233-0.33696zm-6.8007 7.9891q0-1.4457 0.45701-2.413 0.18498-0.28261 0.47877-0.8913 0.36996-1.0109 0.72903-2.0217 0.38084-1.1956 0.38084-2.1087 0-0.38043-0.2285-0.72826 0.23938 0.0218 0.44612 0.0218 0.30467 0 0.47877-0.0543v-0.11956q-0.29379-0.0326-0.88137-0.13044-0.29379-0.0761-0.88137-0.43478v-0.18478q0.41348-0.40217 1.0881-0.40217h2.5135q0.11969 0 0.60934 0.0978 0.47877 0.0978 0.54405 0.14131 0.20675 0.13043 0.20675 0.28261 0 0.33695-1.1099 0.5326-0.70727 0.0761-1.4254 0.16305v0.15217q0.2285 0.1413 0.73991 0.20652 0.76168 0.0761 0.79432 0.087v0.43478q0 1.0652-0.64198 2.4565-0.25027-0.17391-0.51141-0.34782-0.27203-0.17391-0.54406-0.17391-0.0762 0-0.16321 0.0109 0.42436-1.2717 0.42436-2.2609 0-0.39129-0.54406-0.39129-0.2285 0-0.25026 0.1739 0.11969 0.0978 0.11969 0.46739 0 1.2065-0.35908 2.2391-0.26114 0.75-0.26114 1.1196 0 0.18479 0.32643 0.61956-0.10881-0.0326-0.23938-0.0326-0.44613 0-0.81609 0.34782-0.36995 0.33696-0.36995 0.78261 0 0.56521 0.39172 0.90217 0.38083 0.33696 0.94665 0.33696 0.41348 0 0.81608-0.34783-0.0109 0.0652-0.0109 0.13044 0 0.45651 0.31555 0.72825-0.0979 0.26087-0.33731 0.66305-0.13057 0.0652-0.29379 0.2826h-0.66375q0.1741-0.30435 0.1741-0.27173v-0.8913q-0.67463-0.11957-0.92489-0.4674-0.38084-0.0109-0.73992 0.22826-0.4026 0.26087-0.4026 0.61956 0 1.1196 1.1208 1.1196 0.15233 0 0.30467-0.0326-0.0979 0.24999-0.0979 0.48912 0 0.40218 0.32643 0.83695-0.29379-0.087-0.84873-0.33695-1.186-0.71739-1.186-1.6304zm5.6364-5.8804v-0.15217q0-0.0435 0.30468-0.73913h0.2285q-0.0653 0.087-0.0653 0.23914 0 0.0435 0.0653 0.41304-0.23938 0.0543-0.4026 0.23912h-0.13058zm-4.0586 3.5761q0-0.28261 0.2829-0.54348 0.28291-0.27174 0.5767-0.27174 0.2285 0 0.63111 0.41304v0.14131q-0.82697 0.23912-0.82697 0.43477 0 0.1087 0.16322 0.1087 0.087 0 0.66375-0.19565-0.10882 0.66304-0.58758 0.66304-0.21763 0-0.78344-0.28261-0.11969-0.24999-0.11969-0.46738zm3.569-2.6848q0.0762-0.22825 0.23938-0.69565 0.21762 0.11957 0.21762 0.3261v0.23912q-0.16322 0.0218-0.457 0.13043zm1.3275-1.4782v-0.1087q0.19586 0.0978 0.25026 0.0978 0.10882 0 0.10882-0.0978 0-0.0543-0.22851-0.2826 0.0544-0.0761 0.1741-0.2174h0.35907v0.55435q-0.29378 0.23913-0.50052 0.23913-0.16322 0-0.16322-0.18478zm-3.3187 3.3587q0.0871 0.0218 0.19586 0.0218 0.39172 0 0.7508-0.32609 0.3482-0.33695 0.31555-0.72826 0.20674-0.13043 0.47877-0.40217 0 0.0978 0.0435 0.30435 0.0327 0.19565 0.0327 0.30434 0 0.0869-0.10881 0.20652-0.1197 0.11957-0.0979 0.27174-0.16322-0.0978-0.20674-0.0978-0.18498 0-0.40261 0.27174-0.21762 0.27174-0.18497 0.45651-0.23939 0-0.47877 0.14131-0.0979-0.15218-0.33732-0.42391zm2.7856-2.0543v-0.19565q0.21762 0.0218 0.29378 0.0218 0.10881 0 0.1741-0.0218v-0.13044q-0.11969-0.0761-0.36995-0.23913 0.21762-0.15218 0.2829-0.15218 0.3482 0 0.3482 0.36957v0.21739q0 0.34783-0.38084 0.34783-0.34819 0-0.34819-0.21739zm11.088-10.511v-0.17391q0-0.14131 0.0326-0.36956 0.0435-0.27175 0.0544-0.36957 0.21763 0.0218 0.21763 0.61956 0 0.33696-0.19586 0.33696-0.0762 0-0.10882-0.0435zm-16.289 15.196q0-0.15218 0.26115-0.27174 0.21762-0.1087 0.39171-0.1087 0.19587 0 0.44613 0.11956-0.10881 0.0652-0.33731 0.17392-0.5223 0.22827-0.5223 0.3913 0 0.15218 0.15234 0.15218 0.14145 0 0.93577-0.43479v0.38044q-0.18498 0.38043-0.70727 0.38043-0.62022 0-0.62022-0.7826zm4.5701-3.5217v-0.31521q0.11969 0.0435 0.35908 0.0978l0.0326-0.0218v-0.11957q-0.10881-0.087-0.32643-0.27174 0.16321-0.25 0.26114-0.25 0.10881 0 0.35908 0.22827 0.23938 0.22825 0.23938 0.33695 0 0.13043-0.20674 0.33696-0.20674 0.19564-0.33731 0.19564-0.38084 0-0.38084-0.21739zm-1.828 2.0435v-0.32608q0.27203-0.17392 0.47877-0.27175 0.0762 0.15218 0.0762 0.26088-0.31555 0.0543-0.55493 0.33695zm1.9586-0.0109q0.0979-0.14131 0.22851-0.43479 0.0109-0.33695 0.18498-0.99999 0.67462-0.46739 0.67462-0.83695 0-0.18479-0.087-0.36957 0.59847-0.20652 0.59847-0.77174 0 0.11956-0.13058-0.58696 0.5223-0.26086 0.5223-0.69565 0-0.33695-0.087-0.60869 0.18498-0.0218 0.44612-0.26086 0.25027-0.23914 0.25027-0.42392 0-0.0652-0.0109-0.18478-0.0218-0.11957-0.0218-0.18478 0-0.20653 0.1197-0.25 0.18497 0.19565 0.29379 0.19565 0.14145 0 0.27202-0.40217 0.10882-0.34783 0.10882-0.53262-0.10882-0.0652-0.32644-0.21738 0.44613 0.13043 0.42436 0.13043 0.1741 0 0.46789-0.67391 0.16322-0.44565 0.33732-0.88043 0-0.0761-0.087-0.10869l-0.48965 0.69565h-0.11969q-0.15234-0.3261-0.28291-0.38044-0.22851-0.0435-0.45701-0.0978l0.0435-0.15217q0.18498 0.0978 0.39172 0.0978 0.23939 0 0.35908-0.22825 0.10881-0.23913 0.18498-0.23913 0.10881 0 0.43524 0.27173 0.10881-0.11956 0.33732-0.47826 0.21762-0.36956 0.21762-0.47825 0-0.0543-0.0979-0.14131-0.10881-0.0978-0.10881-0.15217 0-0.0978 0.20674-0.53261 0.19586-0.43478 0.19586-0.53261 0-0.13043-0.0871-0.18478-0.33732 0.18478-0.77256 1.3587-0.0762-0.0543-0.0762-0.16304 0-0.1413 0.64198-1.5543h0.21762q0.15234 0 0.25027-0.0109 0.30467-0.63043 0.60934-1.2717 0.36996-0.76086 0.71815-1.1956 0.29379-0.35869 1.4254-0.35869 0.44613 0 1.7954 0.1739 1.4689 0.19566 1.5995 0.33696-0.0109 0.0978-0.0326 0.28261l-3.0576-0.3913q-0.087 0.0435-0.65286 0.17391-0.35908 0.0761-0.53317 0.41305-1.2404 2.663-3.754 7.9565-0.85961 1.7717-0.85961 1.9674v0.087q0 0.0761 0.087 0.21739 0.0871 0.14131 0.0871 0.30434 0 0.0978 0.087 0.19566 0.0762 0.0978 0.0762 0.13044 0 0.24999-0.25026 0.52173-0.0326 0.0326-0.23939 0.1413-0.14145 0.0652-0.14145 0.22827 0 0.0543 0.0218 0.15217 0.0109 0.0869 0.0109 0.1413 0 0.0109-0.0109 0.0761-0.0326 0-0.10881-0.0109-0.0653 0-0.10881 0-0.1741 0-0.1741 0.17391 0 0.0435 0.0653 0.1087t0.0653 0.10869q0 0.0978-0.10881 0.27174-0.42436 0.0218-0.42436 0.23913 0 0.16304 0.0109 0.25 0.13058 0.1413 0.13058 0.18478 0-0.0761-0.47877 0.83696-0.28291 0-0.41348 0.0652-0.0218-0.26088-0.23939-0.48913-0.26115-0.0327-0.36996-0.0218zm-1.0663-0.8913q0-0.39131 0.25026-0.39131 0.11969 0 0.41348 0.18479 0.28291 0.18477 0.28291 0.29348 0 0.58694-0.46789 0.58694-0.47876 0-0.47876-0.6739zm-0.72904 1.5978q0-0.23914 0.1741-0.46739 0.16322-0.22826 0.4026-0.22826 0.30467 0 0.46789 0.20652 0.087 0.10869 0.087 0.45652 0 0.31522-0.087 0.42391-0.0979 0.1087-0.43525 0.1087-0.60934 0-0.60934-0.5zm1.4472-0.40217v-0.15218h0.0653v0.15218h-0.0653zm0.28291 0.0109q0.0218 0 0.0653-0.0326t0.087-0.0326h0.20674v0.2826q-0.0762 0.0761-0.15233 0.0761-0.11969-0.11956-0.20674-0.29348zm-3.297 2.7283q0-0.14131 0.19587-0.29347 0.19585-0.14131 0.33731-0.14131 0.68551 0 0.65286 0.29347-0.32643 0.0435-0.6855 0.19566v0.15217q0.0762 0.0869 0.18497 0.0869 0.15234 0 0.73992-0.0978v0.39131q-0.25027 0.33695-0.42436 0.33695-0.39172 0-0.69639-0.27174-0.30468-0.26086-0.30468-0.65217zm1.9695-0.28261q0.1741-0.28261 0.3482-0.55435 0.19586-0.35869 0.15234-0.61956 0.62022-0.10869 0.62022-0.82608 0-0.0978-0.0218-0.18478 0.27203 0.33695 0.44613 0.33695 0.15233 0 0.30467-0.0978l-0.96842 1.9239q-0.19586-0.0652-0.29379-0.0652-0.20674 0-0.58758 0.087zm-0.27202 1.1739q0.10881-0.40218 0.0979-0.76088 0.29378-0.0652 0.89225-0.19565v0.0218q0 0.18478-0.39172 0.53261-0.39172 0.34782-0.59846 0.40218zm-1.7301-11q0.0109 0.61957 1.5451 0.61957 1.3928 0 1.8171-0.41305-0.29379 0.0326-0.88137 0.0869-0.0979-0.19564-0.457-0.19564-0.13058 0-0.35908-0.0978-0.2285-0.1087-0.35908-0.1087h-1.1969l-0.10881 0.1087zm2.4591 6.3587q0 0.34782 0.21762 0.34782 0.5223 0 0.5223-0.32608 0-0.13043-0.16322-0.26087-0.16322-0.1413-0.29379-0.1413-0.0109 0-0.26115 0.20652-0.0218 0.0543-0.0218 0.17391zm0.1741 0.1087v-0.14131q0.0326-0.0543 0.10881-0.15217l0.21762 0.10869v0.11957q-0.10881 0.10869-0.1741 0.10869h-0.0544q-0.0544 0-0.0979-0.0434z"/>
</g>
</svg>
