<svg xmlns:rdf="http://www.w3.org/1999/02/22-rdf-syntax-ns#" xmlns="http://www.w3.org/2000/svg" height="25" width="25" version="1.1" xmlns:cc="http://creativecommons.org/ns#" xmlns:dc="http://purl.org/dc/elements/1.1/" viewBox="0 0 24.999999 24.999999">
<g transform="translate(-404.16 -228.81)">
<path d="m426.83 245.1q0 0.1165-0.11649 0.39185-0.1059 0.27534-0.19063 0.30712-0.12708 0.0529-0.39184 0.0529-0.0423 0-0.12708-0.0212-0.0741-0.0212-0.11649-0.0212-0.10591 0-0.26476 0.2118-0.14827 0.2224-0.14827 0.33889 0 0.0847 0.15886 0.33889-0.0423 0.053-0.15886 0.053-0.32829 0-0.646-0.45538-0.15885 0.16945-0.23299 0.45538-0.57187-0.3283-0.59305-0.65659-0.18004 0.26475-0.3283 0.41302-0.16944-0.0741-0.39184-0.37066-0.21181-0.29653-0.21181-0.47657 0 0.10591 0.29654-0.90017-0.0636-0.0212-0.1165-0.0212t-0.15886 0.0106q-0.1059 0.0212-0.15885 0.0212-0.30712 0-0.68837-0.27536-0.38125-0.26476-0.37066-0.26476 0.0953 0-0.46597 0.20123-0.70955 0.25416-1.758 0.25416-1.8639 0-4.9774-0.66719-0.94253-0.20122-1.0167-0.20122-0.0635 0-0.25417 0.20122-0.78368 0.81545-0.92135 2.1816-0.12708 0.18004-0.39184 0.18004-0.11649 0-0.3283-0.0635-0.21181-0.053-0.32829-0.053-0.26476 0-0.54012 0.37066-0.41301 0.55069-0.4342 0.57188-0.0741-0.12709-0.25416-0.94254-0.16945 0.15885-0.27535 0.3283-0.16944-0.0635-0.18003-0.29653 0-0.18004 0-0.37066-0.13768 0.0635-0.27535 0.20122h-0.14826q-0.0423-0.15886-0.0423-0.20122 0-0.34948 0.21181-0.80486 0.13767-0.29653 0.57188-0.52952 0.39183-0.2118 0.7519-0.24357 0-0.0106 0.12709-0.63542 0.18003-0.94253 0.56128-1.472-0.19063-0.14826-0.65659-0.14826-0.18004 0-0.52952 0.0423-0.33888 0.0318-0.51892 0.0318-1.292 0-2.404-1.1543-0.2118-0.22239-0.57188-0.96371-0.34947-0.74133-0.34947-1.0167 0-0.46598 0.25416-0.77309 0.18004-0.1165 0.47657-0.41303 0.1059-0.18003 0.2118-0.36006 0.0953-0.10591 0.41302-0.10591 0.21181 0 0.36007 0.1165 0.2224 0.18003 0.29653 0.2118 0.15886 0.0212 0.48716 0.0635 0.46596 0.13768 1.3873 0.40244 0-0.0847-0.0423-0.26476-0.0423-0.19063-0.0423-0.28594 0-0.22239 0.21181-0.54011 0.2118-0.3283 0.41302-0.42361 0.27535-0.0318 0.79427-0.11649 1.3556-0.38125 4.0878-1.0061 1.0484-0.18003 2.4146-0.18003 2.3404 0 4.6174 1.2602 0.12708 0.10591 0.37066 0.30712 1.5038 1.1649 1.7156 2.7323 0.81544 0.41302 1.0061 0.41302-0.0847 0 0.82603-0.2118 0.0953 0.0741 0.0953 0.19063 0 0.44478-0.36006 0.77308-0.34948 0.31771-0.81545 0.31771-0.16945 0-0.47656-0.11649-0.30713-0.12708-0.47657-0.12708-0.0318 0-0.18004 0.47656-0.0635 0.22239-0.37065 0.8684v0.10591q0.0212 0.0741 0.1059 0.0741 0.0423 0 0.28593-0.18004 0.24358-0.19063 0.41303-0.19063-0.0635 0 0.37066 0.19063 0.37065 0.1165 0.73073 0.23299 0.52951 0.18003 0.52951 0.42361 0 0.0741-0.11649 0.3283-0.10591 0.25416-0.10591 0.4342 0 0.26476 0.23299 0.70955 0.23298 0.44479 0.23298 0.73072zm-2.6899-6.1741q-0.62483-1.3132-1.2602-1.6203 0.15886 0.51892 0.31771 1.0484 0.16945 0.29652 0.94253 0.57187zm2.3087 1.2285q-0.36007 0.20121-0.5401 0.20121-0.0847 0-1.0484-0.24357-0.0318 0.14826-0.12708 0.44479 0.59305 0.21181 0.96371 0.21181 0.23299 0 0.47657-0.19063 0.25416-0.20121 0.27534-0.42361zm-3.5477-1.8321q-0.11649-0.4342-0.42361-1.2073-0.85782-0.4342-1.8321-0.84722v0.26476q0 0.30711 0.0953 0.63541 0.72014 0.39184 2.1604 1.1543zm1.5356 1.1332q-0.57188-0.30712-1.1861-0.58247l-0.50834 1.4615 0.053 0.0953 1.3873 0.41302q0.0212-0.0741 0.25417-1.3873zm-1.4826-0.82605-2.0969-1.0802q0.0318 0.32829 0.0636 0.65659 0.0318 0.38126 0.19062 0.61424 0.19062 0.28593 0.69896 0.64601 0.74132 0.51892 0.79427 0.56129l0.34948-1.3979zm-2.4887-1.5462v-0.88959q-1.3873-0.25416-1.3238-0.25416h-0.41302q0.0106 0.10591 0.0106 0.28594 0 0.21181-0.0212 0.36007l1.7474 0.49774zm0.29653 1.4509q0-0.19062-0.2118-1.0908-0.85782-0.3283-1.8004-0.59305 0.0106 0.62482 0.28593 1.758 0.13768 0.26476 0.47657 0.54011 0.52951 0.42361 0.57187 0.46597 0.67778-1.059 0.67778-1.0802zm-2.2769-1.9698v-0.58247q-0.69896-0.0212-0.66719-0.0212h-0.65659q0.13767 0-0.36008 0.0212-0.0741 0.30712-0.12708 0.58247h1.8109zm4.0137 3.8125q0-0.0847-1.5991-1.4297-0.59305 0.80486-0.59305 0.82604l0.2118 1.8215h1.2708q0.70955-1.1438 0.70955-1.2179zm1.5674 0.81545q-0.5507-0.25417-1.472-0.50833l-0.67778 1.0061 0.50833 1.5568q1.0484-0.40243 1.6415-2.0545zm2.2346 4.1832v-0.38125q0-0.0212-0.27535-0.45538-0.27534-0.42361-0.27534-0.78368 0-0.10591 0.11649-0.82604-0.13768-0.12709-0.49775-0.20122-0.34948-0.0741-0.45538-0.18003-0.26476 0.37066-0.82604 0.37066-0.0423 0-0.13767-0.0212-0.0847-0.0212-0.12709-0.0212-0.053 0-0.64601 0.49775-0.70954 0.58246-0.72013 0.59305 0.30711 0.14827 0.49774 0.14827 0.39184 0 0.78368-0.24358 0.39184-0.25417 0.56129-0.25417l0.0212 0.0212q-0.0847 0.26475-0.30712 0.77309-0.44479 0.78369-0.44479 0.92135 0 0.0847 0.0212 0.23299 0.0318 0.15886 0.0318 0.23299l0.14826 0.0423q0.14826-0.15885 0.47656-0.44479 0.0423 0.2224 0.19062 0.6566 0.13768-0.24358 0.46598-0.54011 0.0635 0.16945 0.26476 0.45538 0.34948-0.56128 0.84722-0.56128 0.0318 0 0.0953 0.0106 0.0741 0.0106 0.1059 0.0106 0.0847 0 0.0847-0.0529zm-7.5191-6.6613-0.33888-1.9062h-1.8109q0.2224 1.112 0.39184 1.8321 0.46597 0.28594 1.0802 0.67778 0.2224-0.20121 0.67777-0.60365zm-2.1922-2.7323q-0.80486 0.12708-1.6733 0.3283-0.0423 0.18004-0.13768 0.52951l1.6415-0.16944q0.0741-0.44479 0.16944-0.68837zm3.6536 4.6915q0-0.61424-0.38125-1.0061-0.40244-0.36007-0.81545-0.72014l-0.879 0.80486v2.0016l1.0273 0.58247q0.33889-0.25418 1.0272-0.75192-0.0106-0.11649-0.0106-0.19062 0-0.1165 0.0106-0.36008 0.0212-0.24357 0.0212-0.36006zm1.8427 2.6158q0-0.0847-0.46598-1.3662h-1.2496q-0.0953 0-1.0802 0.63541-0.0741 0.95313-0.0741 1.0379v0.40242q0 0.0741 0.0318 0.1165h0.45537q0.18004 0 1.0908-0.20122 0.92135-0.19062 1.0272-0.26476 0.26476-0.16944 0.26476-0.36006zm-5.3693-4.5432-0.25416-1.8215h-0.38125q-0.5507 0-1.3026 0.2224 0.1165 0.59305 0.38125 1.7898 0.90018 0.50833 0.95313 0.50833 0.12708 0 0.37066-0.28594 0.25416-0.28594 0.23298-0.41303zm1.2391 3.0076v-2.2134q-0.81546-0.59306-0.84723-0.59306-0.15885 0-0.49774 0.31771-0.3283 0.31771-0.38125 0.48715-0.1059 0.31771-0.0953 0.86841 0.0106 0.74131 0 0.87899 0.94253 0.59305 1.0167 0.59305 0.0636 0 0.38125-0.14826 0.36008-0.16944 0.42362-0.19062zm-3.3783-5.3587q-0.30712 0.0635-1.8957 0.42361-0.25416 0.3283-0.5401 1.0167 1.0273-0.31771 2.2769-0.8684 0.12708-0.13767 0.15886-0.57187zm0.36006 2.584-0.33888-1.8427-2.4252 0.92136 1.1861 1.472 1.578-0.5507zm4.0031 5.1257v-1.5886q0-0.0635-0.46597-0.30711-0.45538-0.24358-0.56129-0.24358-0.13767 0-0.77309 0.33889-0.24357 0.88959-0.46597 1.5462 0.75191 0.10589 2.2663 0.25416zm-3.0182-3.9502v-0.37066q-0.3177-0.20121-0.96372-0.58246l-1.4191 0.41302v0.18003q0 0.2224 0.13767 0.6566 0.14827 0.4342 0.27535 0.59306 0.13767 0.14826 0.50833 0.32829 0.37066 0.18004 0.56129 0.18004 0.13767 0 0.40243-0.0423 0.27535-0.0423 0.41302-0.0423 0.0847-0.97431 0.0847-1.3132zm-3.6325-3.1771q-0.39185 0.0318-1.1861 0.11649-0.11649 0.23299-0.28593 0.73073 0.4342-0.1059 1.059-0.12708 0.2118-0.40243 0.41302-0.72014zm-0.1165 1.6309q-0.0741-0.20122-0.25417-0.59305-0.0847-0.0106-0.30711-0.053-0.21181-0.0423-0.3283-0.0423-0.0847 0-0.25417 0.0212-0.16944 0.0212-0.25416 0.0212 0.11648 0.54011 0.33888 1.1967 0.26476-0.16944 1.059-0.55069zm4.6597 3.6113q-0.83662-0.46597-1.0484-0.46597-0.11649 0-0.34948 0.0423-0.2224 0.0318-0.33889 0.0318-0.15886 0-0.2224-0.0635l-0.7625 1.5885q0.38125 0.18003 1.0908 0.27534 0.56129 0.0741 1.1332 0.14827 0.20121-0.27535 0.3177-0.75191 0.0953-0.40243 0.18003-0.80486zm-3.8337-2.6264q0-0.0212-0.59305-0.84723l-1.2285 0.62484 0.34948 1.5144q1.472-1.1649 1.472-1.292zm0.78368 1.5356-0.46596-1.3979q-0.46598 0.39184-0.93195 0.78368-0.75191 0.63542-0.75191 0.75191 0 0.46598 0.80486 0.94254l1.345-1.0802zm0.86841 0.63542q-0.7625-0.38125-0.78368-0.38125-0.13767 0-1.1967 1.059 0.80487 0.84722 1.0273 0.84722 0.0953 0 0.15886-0.0212 0.26475-0.4342 0.79427-1.5038zm-3.3571-0.0953-0.6566-2.7958q-0.39184-0.16945-1.2073-0.44479-0.39184-0.0741-1.1543-0.31771-0.0635-0.0318-0.29653-0.21181-0.14826-0.11649-0.33889-0.1059-0.0741 0.12709-0.23298 0.38125-0.51893 0.6566-0.51893 0.75191 0-0.13767 0.19063 0.58247 0.0212 0.14826 0.1059 0.42361 0.3283 0.72014 1.1226 1.2391 0.80486 0.50833 1.5885 0.50833 0.13767 0 0.39184-0.0423 0.26476-0.053 0.40243-0.053 0.28594 0 0.60365 0.0847zm1.9062 1.7474q-0.12708-0.053-0.63542-0.49775-0.48715-0.41302-0.51892-0.41302-0.27535 0-0.52951 0.93194-0.13768 0.61424-0.26476 1.2179-0.27535 0-0.80486 0.0953-0.45538 0.15885-0.62483 0.80486 0.0953-0.0423 0.59306-0.15886l0.0212 0.053v0.0423q-0.15886 0.21181-0.34948 0.51893 0.20121-0.1059 0.41302-0.24357l0.0635 0.0635q-0.0847 0.50834-0.0847 0.45539 0 0.0635 0.0106 0.0953 0.0529-0.0318 0.37066-0.29653 0.16944-0.15885 0.46597-0.15885 0.15885 0 0.40243 0.053 0.29653 0.0635 0.39184 0.0741 0.1165-0.52952 0.23299-1.0484 0.11649-0.46597 0.52951-0.98489 0.3283-0.40243 0.31771-0.60364zm-3.463-3.3148q0 0.18004-0.23299 0.46597-0.22239 0.28594-0.40243 0.28594-0.34948 0-0.62482-0.2118-0.27535-0.2224-0.27535-0.57188 0-0.38125 0.27535-0.62482 0.27534-0.24358 0.6566-0.24358 0.60364 0 0.60364 0.90017zm-0.79427-0.12708v-0.13768q0-0.0741-0.18004-0.22239-0.0635 0.0423-0.18003 0.13767 0.0212 0.0953 0.0847 0.26476 0.0953-0.0212 0.27535-0.0423zm0.62483 0.0635q-0.0953-0.0212-0.27536-0.053-0.14826 0.28593-0.33888 0.41302 0 0.18003 0.0953 0.3283 0.27535-0.13768 0.51893-0.68837z" stroke="#000" stroke-width=".14545"/>
</g>
</svg>
