<?xml version="1.0" encoding="UTF-8" standalone="no"?>
<!-- Created with Inkscape (http://www.inkscape.org/) -->

<svg
   xmlns:dc="http://purl.org/dc/elements/1.1/"
   xmlns:cc="http://creativecommons.org/ns#"
   xmlns:rdf="http://www.w3.org/1999/02/22-rdf-syntax-ns#"
   xmlns:svg="http://www.w3.org/2000/svg"
   xmlns="http://www.w3.org/2000/svg"
   xmlns:sodipodi="http://sodipodi.sourceforge.net/DTD/sodipodi-0.dtd"
   xmlns:inkscape="http://www.inkscape.org/namespaces/inkscape"
   width="70.652069mm"
   height="55.60083mm"
   viewBox="0 0 250.34198 197.01081"
   id="svg11196"
   version="1.1"
   inkscape:version="0.91 r13725"
   sodipodi:docname="template.svg">
  <defs
     id="defs11198" />
  <sodipodi:namedview
     id="base"
     pagecolor="#ffffff"
     bordercolor="#666666"
     borderopacity="1.0"
     inkscape:pageopacity="0.0"
     inkscape:pageshadow="2"
     inkscape:zoom="0.29630813"
     inkscape:cx="509.83201"
     inkscape:cy="-65.531071"
     inkscape:document-units="px"
     inkscape:current-layer="layer1"
     showgrid="false"
     fit-margin-top="0"
     fit-margin-left="0"
     fit-margin-right="0"
     fit-margin-bottom="0"
     inkscape:window-width="1366"
     inkscape:window-height="744"
     inkscape:window-x="0"
     inkscape:window-y="24"
     inkscape:window-maximized="1" />
  <metadata
     id="metadata11201">
    <rdf:RDF>
      <cc:Work
         rdf:about="">
        <dc:format>image/svg+xml</dc:format>
        <dc:type
           rdf:resource="http://purl.org/dc/dcmitype/StillImage" />
        <dc:title></dc:title>
      </cc:Work>
    </rdf:RDF>
  </metadata>
  <g
     inkscape:label="Layer 1"
     inkscape:groupmode="layer"
     id="layer1"
     transform="translate(-232.78753,-268.96283)">
    <g
       id="g15642"
       transform="translate(132.12153,-373.81818)">
      <g
         transform="translate(155.9023,-114.89941)"
         id="g15581">
        <path
           inkscape:connector-curvature="0"
           style="opacity:1;fill:none;fill-opacity:1;stroke:#000000;stroke-width:1;stroke-linecap:round;stroke-linejoin:miter;stroke-miterlimit:4;stroke-dasharray:none;stroke-dashoffset:0;stroke-opacity:1"
           d="m -54.564381,800.1853 249.005941,0 0,154.00594 -249.005941,0 z"
           id="rect15547" />
        <path
           inkscape:connector-curvature="0"
           style="opacity:1;fill:none;fill-opacity:1;stroke:#000000;stroke-width:1;stroke-linecap:round;stroke-linejoin:miter;stroke-miterlimit:4;stroke-dasharray:none;stroke-dashoffset:0;stroke-opacity:1"
           d="m -54.564388,800.22974 249.170058,0 0,49.17005 -249.170058,0 z"
           id="rect15549" />
      </g>
      <g
         style="font-style:normal;font-weight:normal;font-size:40px;line-height:125%;font-family:sans-serif;letter-spacing:0px;word-spacing:0px;fill:#000000;fill-opacity:1;stroke:none;stroke-width:1px;stroke-linecap:butt;stroke-linejoin:miter;stroke-opacity:1"
         id="text15473">
        <path
           inkscape:connector-curvature="0"
           d="m 134.98115,645.40601 -1.005,0.645 q -0.705,-1.23 -1.95,-1.23 -0.765,0 -1.32,0.495 -0.555,0.495 -0.555,1.26 0,0.345 0.15,0.63 0.15,0.285 0.465,0.51 0.315,0.21 0.525,0.33 0.225,0.12 0.63,0.3 l 0.75,0.33 q 0.645,0.285 1.065,0.54 0.42,0.24 0.825,0.615 0.42,0.36 0.615,0.87 0.21,0.51 0.21,1.155 0,1.47 -1.035,2.49 -1.035,1.005 -2.52,1.005 -1.35,0 -2.31,-0.795 -0.945,-0.81 -1.215,-2.13 l 1.23,-0.345 q 0.12,0.885 0.75,1.5 0.63,0.6 1.515,0.6 0.93,0 1.62,-0.63 0.705,-0.645 0.705,-1.575 0,-0.375 -0.135,-0.69 -0.12,-0.33 -0.285,-0.525 -0.15,-0.195 -0.495,-0.42 -0.345,-0.225 -0.54,-0.315 -0.195,-0.105 -0.63,-0.3 l -0.69,-0.3 q -1.2,-0.54 -1.83,-1.17 -0.63,-0.63 -0.63,-1.725 0,-1.275 0.93,-2.07 0.93,-0.81 2.235,-0.81 0.945,0 1.71,0.465 0.765,0.45 1.215,1.29 z"
           style="font-style:normal;font-variant:normal;font-weight:normal;font-stretch:normal;font-size:15.00000095px;font-family:'Futura LT';-inkscape-font-specification:'Futura LT'"
           id="path7338" />
        <path
           inkscape:connector-curvature="0"
           d="m 143.36005,651.88601 -5.535,0 q 0.015,0.99 0.66,1.68 0.645,0.675 1.65,0.675 1.335,0 2.145,-1.455 l 1.02,0.585 q -1.065,1.98 -3.255,1.98 -1.545,0 -2.505,-1.035 -0.945,-1.05 -0.945,-2.595 0,-1.635 0.915,-2.715 0.915,-1.095 2.505,-1.095 1.635,0 2.535,1.17 0.9,1.155 0.81,2.805 z m -5.475,-1.02 4.215,0 q -0.12,-0.78 -0.705,-1.305 -0.585,-0.54 -1.365,-0.54 -0.78,0 -1.41,0.54 -0.63,0.54 -0.735,1.305 z"
           style="font-style:normal;font-variant:normal;font-weight:normal;font-stretch:normal;font-size:15.00000095px;font-family:'Futura LT';-inkscape-font-specification:'Futura LT'"
           id="path7340" />
        <path
           inkscape:connector-curvature="0"
           d="m 150.25302,648.61601 0,1.59 -0.03,0 q -0.93,-1.185 -2.19,-1.185 -1.065,0 -1.785,0.765 -0.705,0.765 -0.705,1.845 0,1.08 0.675,1.845 0.675,0.765 1.755,0.765 1.365,0 2.295,-1.215 l 0.03,0 0,1.605 q -1.065,0.72 -2.235,0.72 -1.605,0 -2.685,-1.065 -1.065,-1.065 -1.065,-2.655 0,-1.56 1.095,-2.64 1.11,-1.08 2.67,-1.08 1.185,0 2.175,0.705 z m -1.515,7.335 -1.71,2.19 -0.84,-0.42 1.44,-2.22 1.11,0.45 z"
           style="font-style:normal;font-variant:normal;font-weight:normal;font-stretch:normal;font-size:15.00000095px;font-family:'Futura LT';-inkscape-font-specification:'Futura LT'"
           id="path7342" />
        <path
           inkscape:connector-curvature="0"
           d="m 155.09146,649.02101 q -1.005,0 -1.65,0.75 -0.645,0.75 -0.645,1.785 0,1.095 0.615,1.89 0.63,0.795 1.695,0.795 1.11,0 1.725,-0.765 0.63,-0.78 0.63,-1.905 0,-1.095 -0.645,-1.815 -0.645,-0.735 -1.725,-0.735 z m 3.51,-0.915 0,7.05 -1.2,0 0,-0.975 -0.03,0 q -0.915,1.17 -2.43,1.17 -1.5,0 -2.445,-1.095 -0.93,-1.095 -0.93,-2.61 0,-1.56 0.93,-2.64 0.93,-1.095 2.46,-1.095 1.485,0 2.415,1.2 l 0.03,0 0,-1.005 1.2,0 z m -5.13,-1.77 -0.735,-0.585 q 0.675,-1.185 1.53,-1.185 0.525,0 1.215,0.345 0.78,0.345 0.96,0.345 0.45,0 0.84,-0.72 l 0.705,0.57 q -0.21,0.525 -0.645,0.87 -0.42,0.345 -0.945,0.345 -0.405,0 -1.125,-0.345 -0.75,-0.33 -1.05,-0.33 -0.285,0 -0.45,0.18 -0.15,0.18 -0.3,0.51 z"
           style="font-style:normal;font-variant:normal;font-weight:normal;font-stretch:normal;font-size:15.00000095px;font-family:'Futura LT';-inkscape-font-specification:'Futura LT'"
           id="path7344" />
        <path
           inkscape:connector-curvature="0"
           d="m 166.50904,654.27101 q -1.08,1.08 -2.625,1.08 -1.545,0 -2.625,-1.08 -1.08,-1.08 -1.08,-2.625 0,-1.56 1.08,-2.64 1.08,-1.095 2.625,-1.095 1.545,0 2.625,1.095 1.08,1.08 1.08,2.64 0,1.545 -1.08,2.625 z m -0.825,-4.485 q -0.705,-0.765 -1.8,-0.765 -1.095,0 -1.8,0.765 -0.705,0.75 -0.705,1.845 0,1.095 0.705,1.86 0.705,0.75 1.8,0.75 1.095,0 1.8,-0.75 0.705,-0.765 0.705,-1.86 0,-1.095 -0.705,-1.845 z"
           style="font-style:normal;font-variant:normal;font-weight:normal;font-stretch:normal;font-size:15.00000095px;font-family:'Futura LT';-inkscape-font-specification:'Futura LT'"
           id="path7346" />
        <path
           inkscape:connector-curvature="0"
           d="m 176.80045,649.02101 q -1.005,0 -1.65,0.75 -0.645,0.75 -0.645,1.785 0,1.095 0.615,1.89 0.63,0.795 1.695,0.795 1.11,0 1.725,-0.765 0.63,-0.78 0.63,-1.905 0,-1.095 -0.645,-1.815 -0.645,-0.735 -1.725,-0.735 z m 2.31,6.135 0,-0.975 -0.03,0 q -0.9,1.17 -2.43,1.17 -1.5,0 -2.445,-1.095 -0.93,-1.095 -0.93,-2.61 0,-1.56 0.93,-2.64 0.93,-1.095 2.46,-1.095 1.5,0 2.415,1.2 l 0.03,0 0,-6.33 1.2,0 0,12.375 -1.2,0 z"
           style="font-style:normal;font-variant:normal;font-weight:normal;font-stretch:normal;font-size:15.00000095px;font-family:'Futura LT';-inkscape-font-specification:'Futura LT'"
           id="path7348" />
        <path
           inkscape:connector-curvature="0"
           d="m 188.65303,651.88601 -5.535,0 q 0.015,0.99 0.66,1.68 0.645,0.675 1.65,0.675 1.335,0 2.145,-1.455 l 1.02,0.585 q -1.065,1.98 -3.255,1.98 -1.545,0 -2.505,-1.035 -0.945,-1.05 -0.945,-2.595 0,-1.635 0.915,-2.715 0.915,-1.095 2.505,-1.095 1.635,0 2.535,1.17 0.9,1.155 0.81,2.805 z m -5.475,-1.02 4.215,0 q -0.12,-0.78 -0.705,-1.305 -0.585,-0.54 -1.365,-0.54 -0.78,0 -1.41,0.54 -0.63,0.54 -0.735,1.305 z"
           style="font-style:normal;font-variant:normal;font-weight:normal;font-stretch:normal;font-size:15.00000095px;font-family:'Futura LT';-inkscape-font-specification:'Futura LT'"
           id="path7350" />
        <path
           inkscape:connector-curvature="0"
           d="m 196.3649,648.10601 0,7.05 -1.2,0 0,-7.05 1.2,0 z m 0.045,-4.11 1.26,0.57 -2.295,2.31 -0.75,-0.42 1.785,-2.46 z"
           style="font-style:normal;font-variant:normal;font-weight:normal;font-stretch:normal;font-size:15.00000095px;font-family:'Futura LT';-inkscape-font-specification:'Futura LT'"
           id="path7352" />
        <path
           inkscape:connector-curvature="0"
           d="m 204.10069,648.61601 0,1.59 -0.03,0 q -0.93,-1.185 -2.19,-1.185 -1.065,0 -1.785,0.765 -0.705,0.765 -0.705,1.845 0,1.08 0.675,1.845 0.675,0.765 1.755,0.765 1.365,0 2.295,-1.215 l 0.03,0 0,1.605 q -1.065,0.72 -2.235,0.72 -1.605,0 -2.685,-1.065 -1.065,-1.065 -1.065,-2.655 0,-1.56 1.095,-2.64 1.11,-1.08 2.67,-1.08 1.185,0 2.175,0.705 z"
           style="font-style:normal;font-variant:normal;font-weight:normal;font-stretch:normal;font-size:15.00000095px;font-family:'Futura LT';-inkscape-font-specification:'Futura LT'"
           id="path7354" />
        <path
           inkscape:connector-curvature="0"
           d="m 211.71412,654.27101 q -1.08,1.08 -2.625,1.08 -1.545,0 -2.625,-1.08 -1.08,-1.08 -1.08,-2.625 0,-1.56 1.08,-2.64 1.08,-1.095 2.625,-1.095 1.545,0 2.625,1.095 1.08,1.08 1.08,2.64 0,1.545 -1.08,2.625 z m -0.825,-4.485 q -0.705,-0.765 -1.8,-0.765 -1.095,0 -1.8,0.765 -0.705,0.75 -0.705,1.845 0,1.095 0.705,1.86 0.705,0.75 1.8,0.75 1.095,0 1.8,-0.75 0.705,-0.765 0.705,-1.86 0,-1.095 -0.705,-1.845 z"
           style="font-style:normal;font-variant:normal;font-weight:normal;font-stretch:normal;font-size:15.00000095px;font-family:'Futura LT';-inkscape-font-specification:'Futura LT'"
           id="path7356" />
        <path
           inkscape:connector-curvature="0"
           d="m 215.65162,648.10601 0,0.855 0.03,0 q 0.765,-1.05 2.01,-1.05 1.35,0 1.875,0.825 0.525,0.825 0.525,2.235 l 0,4.185 -1.2,0 0,-3.975 q 0,-0.51 -0.045,-0.825 -0.03,-0.33 -0.165,-0.66 -0.135,-0.345 -0.465,-0.51 -0.315,-0.165 -0.81,-0.165 -0.48,0 -0.825,0.18 -0.33,0.18 -0.51,0.435 -0.18,0.255 -0.285,0.66 -0.09,0.405 -0.12,0.735 -0.015,0.315 -0.015,0.78 l 0,3.345 -1.2,0 0,-7.05 1.2,0 z"
           style="font-style:normal;font-variant:normal;font-weight:normal;font-stretch:normal;font-size:15.00000095px;font-family:'Futura LT';-inkscape-font-specification:'Futura LT'"
           id="path7358" />
        <path
           inkscape:connector-curvature="0"
           d="m 228.49678,651.88601 -5.535,0 q 0.015,0.99 0.66,1.68 0.645,0.675 1.65,0.675 1.335,0 2.145,-1.455 l 1.02,0.585 q -1.065,1.98 -3.255,1.98 -1.545,0 -2.505,-1.035 -0.945,-1.05 -0.945,-2.595 0,-1.635 0.915,-2.715 0.915,-1.095 2.505,-1.095 1.635,0 2.535,1.17 0.9,1.155 0.81,2.805 z m -5.475,-1.02 4.215,0 q -0.12,-0.78 -0.705,-1.305 -0.585,-0.54 -1.365,-0.54 -0.78,0 -1.41,0.54 -0.63,0.54 -0.735,1.305 z"
           style="font-style:normal;font-variant:normal;font-weight:normal;font-stretch:normal;font-size:15.00000095px;font-family:'Futura LT';-inkscape-font-specification:'Futura LT'"
           id="path7360" />
        <path
           inkscape:connector-curvature="0"
           d="m 234.00975,649.21601 -1.005,0.525 q -0.135,-0.3 -0.39,-0.51 -0.255,-0.21 -0.57,-0.21 -0.33,0 -0.6,0.225 -0.27,0.225 -0.27,0.555 0,0.135 0.03,0.255 0.045,0.105 0.15,0.21 0.12,0.105 0.195,0.18 0.09,0.075 0.285,0.165 0.195,0.09 0.285,0.135 0.09,0.045 0.345,0.15 0.255,0.105 0.345,0.135 0.75,0.315 1.185,0.765 0.45,0.45 0.45,1.26 0,0.99 -0.705,1.65 -0.69,0.645 -1.68,0.645 -0.885,0 -1.545,-0.465 -0.66,-0.48 -0.945,-1.32 l 1.065,-0.45 q 0.255,0.555 0.57,0.84 0.315,0.285 0.87,0.285 0.495,0 0.81,-0.3 0.33,-0.3 0.33,-0.78 0,-0.435 -0.33,-0.72 -0.33,-0.285 -0.795,-0.465 -0.465,-0.195 -0.93,-0.405 -0.465,-0.225 -0.795,-0.63 -0.33,-0.42 -0.33,-1.035 0,-0.87 0.615,-1.425 0.615,-0.57 1.485,-0.57 0.6,0 1.11,0.375 0.525,0.36 0.765,0.93 z"
           style="font-style:normal;font-variant:normal;font-weight:normal;font-stretch:normal;font-size:15.00000095px;font-family:'Futura LT';-inkscape-font-specification:'Futura LT'"
           id="path7362" />
        <path
           inkscape:connector-curvature="0"
           d="m 242.38022,643.33601 1.065,0.51 q -1.2,3.18 -1.2,7.2 0,4.02 1.2,7.2 l -1.065,0.51 q -1.365,-2.91 -1.365,-7.71 0,-4.8 1.365,-7.71 z"
           style="font-style:normal;font-variant:normal;font-weight:normal;font-stretch:normal;font-size:15.00000095px;font-family:'Futura LT';-inkscape-font-specification:'Futura LT'"
           id="path7364" />
        <path
           inkscape:connector-curvature="0"
           d="m 251.20186,651.88601 -5.535,0 q 0.015,0.99 0.66,1.68 0.645,0.675 1.65,0.675 1.335,0 2.145,-1.455 l 1.02,0.585 q -1.065,1.98 -3.255,1.98 -1.545,0 -2.505,-1.035 -0.945,-1.05 -0.945,-2.595 0,-1.635 0.915,-2.715 0.915,-1.095 2.505,-1.095 1.635,0 2.535,1.17 0.9,1.155 0.81,2.805 z m -5.475,-1.02 4.215,0 q -0.12,-0.78 -0.705,-1.305 -0.585,-0.54 -1.365,-0.54 -0.78,0 -1.41,0.54 -0.63,0.54 -0.735,1.305 z"
           style="font-style:normal;font-variant:normal;font-weight:normal;font-stretch:normal;font-size:15.00000095px;font-family:'Futura LT';-inkscape-font-specification:'Futura LT'"
           id="path7366" />
        <path
           inkscape:connector-curvature="0"
           d="m 254.05983,648.10601 0,0.765 0.03,0 q 0.615,-0.96 1.695,-0.96 0.63,0 1.14,0.315 0.525,0.315 0.81,0.855 0.3,-0.57 0.87,-0.87 0.585,-0.3 1.245,-0.3 2.25,0 2.25,2.955 l 0,4.29 -1.2,0 0,-4.095 q 0,-0.435 -0.03,-0.72 -0.03,-0.285 -0.15,-0.63 -0.12,-0.345 -0.405,-0.51 -0.27,-0.18 -0.705,-0.18 -0.495,0 -0.825,0.21 -0.315,0.21 -0.465,0.6 -0.135,0.39 -0.195,0.75 -0.045,0.36 -0.045,0.84 l 0,3.735 -1.2,0 0,-4.005 q 0,-2.13 -1.26,-2.13 -0.495,0 -0.84,0.225 -0.33,0.225 -0.48,0.63 -0.135,0.405 -0.195,0.78 -0.045,0.375 -0.045,0.855 l 0,3.645 -1.2,0 0,-7.05 1.2,0 z"
           style="font-style:normal;font-variant:normal;font-weight:normal;font-stretch:normal;font-size:15.00000095px;font-family:'Futura LT';-inkscape-font-specification:'Futura LT'"
           id="path7368" />
        <path
           inkscape:connector-curvature="0"
           d="m 270.07351,654.27101 q -1.08,1.08 -2.625,1.08 -1.545,0 -2.625,-1.08 -1.08,-1.08 -1.08,-2.625 0,-1.56 1.08,-2.64 1.08,-1.095 2.625,-1.095 1.545,0 2.625,1.095 1.08,1.08 1.08,2.64 0,1.545 -1.08,2.625 z m -0.825,-4.485 q -0.705,-0.765 -1.8,-0.765 -1.095,0 -1.8,0.765 -0.705,0.75 -0.705,1.845 0,1.095 0.705,1.86 0.705,0.75 1.8,0.75 1.095,0 1.8,-0.75 0.705,-0.765 0.705,-1.86 0,-1.095 -0.705,-1.845 z"
           style="font-style:normal;font-variant:normal;font-weight:normal;font-stretch:normal;font-size:15.00000095px;font-family:'Futura LT';-inkscape-font-specification:'Futura LT'"
           id="path7370" />
        <path
           inkscape:connector-curvature="0"
           d="m 274.23601,648.10601 0,11.01 -1.2,0 0,-11.01 1.2,0 z m -1.2,-3.255 q 0.255,-0.255 0.6,-0.255 0.345,0 0.6,0.255 0.255,0.255 0.255,0.6 0,0.36 -0.255,0.615 -0.255,0.24 -0.6,0.24 -0.345,0 -0.6,-0.24 -0.255,-0.255 -0.255,-0.615 0,-0.345 0.255,-0.6 z"
           style="font-style:normal;font-variant:normal;font-weight:normal;font-stretch:normal;font-size:15.00000095px;font-family:'Futura LT';-inkscape-font-specification:'Futura LT'"
           id="path7372" />
        <path
           inkscape:connector-curvature="0"
           d="m 278.16179,648.10601 0,7.05 -1.2,0 0,-7.05 1.2,0 z m -1.2,-3.255 q 0.255,-0.255 0.6,-0.255 0.345,0 0.6,0.255 0.255,0.255 0.255,0.6 0,0.36 -0.255,0.615 -0.255,0.24 -0.6,0.24 -0.345,0 -0.6,-0.24 -0.255,-0.255 -0.255,-0.615 0,-0.345 0.255,-0.6 z"
           style="font-style:normal;font-variant:normal;font-weight:normal;font-stretch:normal;font-size:15.00000095px;font-family:'Futura LT';-inkscape-font-specification:'Futura LT'"
           id="path7374" />
        <path
           inkscape:connector-curvature="0"
           d="m 284.51757,649.21601 -1.005,0.525 q -0.135,-0.3 -0.39,-0.51 -0.255,-0.21 -0.57,-0.21 -0.33,0 -0.6,0.225 -0.27,0.225 -0.27,0.555 0,0.135 0.03,0.255 0.045,0.105 0.15,0.21 0.12,0.105 0.195,0.18 0.09,0.075 0.285,0.165 0.195,0.09 0.285,0.135 0.09,0.045 0.345,0.15 0.255,0.105 0.345,0.135 0.75,0.315 1.185,0.765 0.45,0.45 0.45,1.26 0,0.99 -0.705,1.65 -0.69,0.645 -1.68,0.645 -0.885,0 -1.545,-0.465 -0.66,-0.48 -0.945,-1.32 l 1.065,-0.45 q 0.255,0.555 0.57,0.84 0.315,0.285 0.87,0.285 0.495,0 0.81,-0.3 0.33,-0.3 0.33,-0.78 0,-0.435 -0.33,-0.72 -0.33,-0.285 -0.795,-0.465 -0.465,-0.195 -0.93,-0.405 -0.465,-0.225 -0.795,-0.63 -0.33,-0.42 -0.33,-1.035 0,-0.87 0.615,-1.425 0.615,-0.57 1.485,-0.57 0.6,0 1.11,0.375 0.525,0.36 0.765,0.93 z"
           style="font-style:normal;font-variant:normal;font-weight:normal;font-stretch:normal;font-size:15.00000095px;font-family:'Futura LT';-inkscape-font-specification:'Futura LT'"
           id="path7376" />
        <path
           inkscape:connector-curvature="0"
           d="m 285.97913,643.84601 1.065,-0.51 q 1.365,2.91 1.365,7.71 0,4.8 -1.365,7.71 l -1.065,-0.51 q 1.2,-3.18 1.2,-7.2 0,-4.02 -1.2,-7.2 z"
           style="font-style:normal;font-variant:normal;font-weight:normal;font-stretch:normal;font-size:15.00000095px;font-family:'Futura LT';-inkscape-font-specification:'Futura LT'"
           id="path7378" />
      </g>
      <path
         inkscape:connector-curvature="0"
         id="path15518"
         d="m 125.5756,655.58616 c -6.716,2.27431 -13.41867,7.88218 -16.58395,15.41364 l -7.11854,0 10.97261,10.97261 11.57868,-10.7088 -7.79867,0 c 0.0821,-1.66127 7.29338,-13.84543 8.94987,-15.67745 z"
         style="fill:#000000;fill-rule:evenodd;stroke:#000000;stroke-width:1px;stroke-linecap:butt;stroke-linejoin:miter;stroke-opacity:1" />
      <g
         transform="translate(2.0236104,-4.1823475)"
         id="g15618">
        <g
           id="g15258">
          <g
             transform="matrix(0.70710678,-0.70710678,0.70710678,0.70710678,0,0)"
             style="font-style:normal;font-weight:normal;font-size:40px;line-height:125%;font-family:sans-serif;letter-spacing:0px;word-spacing:0px;fill:#000000;fill-opacity:1;stroke:none;stroke-width:1px;stroke-linecap:butt;stroke-linejoin:miter;stroke-opacity:1"
             id="text15592">
            <path
               inkscape:connector-curvature="0"
               d="m -432.74476,588.3629 q -0.8375,0 -1.375,0.625 -0.5375,0.625 -0.5375,1.4875 0,0.9125 0.5125,1.575 0.525,0.6625 1.4125,0.6625 0.925,0 1.4375,-0.6375 0.525,-0.65 0.525,-1.5875 0,-0.9125 -0.5375,-1.5125 -0.5375,-0.6125 -1.4375,-0.6125 z m 2.925,-0.7625 0,5.5875 q 0,0.6125 -0.025,0.925 -0.0125,0.325 -0.15,0.775 -0.1375,0.4625 -0.425,0.825 -0.8125,1.0375 -2.275,1.0375 -1.25,0 -2.0625,-0.7375 -0.8,-0.7375 -0.825,-1.9625 l 1,0 q 0.0125,0.8 0.5375,1.2875 0.525,0.4875 1.3375,0.4875 0.5625,0 0.9375,-0.2 0.3875,-0.1875 0.5875,-0.55 0.2,-0.35 0.275,-0.7625 0.0875,-0.4125 0.0875,-0.95 l 0,-0.7 -0.025,0 q -0.35,0.4625 -0.9,0.725 -0.5375,0.25 -1.1375,0.25 -1.25,0 -2.025,-0.9 -0.775,-0.9 -0.775,-2.175 0,-1.2875 0.7875,-2.2 0.7875,-0.925 2.05,-0.925 1.25,0 2,1 l 0.025,0 0,-0.8375 1,0 z"
               style="font-style:normal;font-variant:normal;font-weight:normal;font-stretch:normal;font-size:12.5px;font-family:'Futura LT';-inkscape-font-specification:'Futura LT'"
               id="path7381" />
            <path
               inkscape:connector-curvature="0"
               d="m -422.75629,590.7504 -4.6125,0 q 0.0125,0.825 0.55,1.4 0.5375,0.5625 1.375,0.5625 1.1125,0 1.7875,-1.2125 l 0.85,0.4875 q -0.8875,1.65 -2.7125,1.65 -1.2875,0 -2.0875,-0.8625 -0.7875,-0.875 -0.7875,-2.1625 0,-1.3625 0.7625,-2.2625 0.7625,-0.9125 2.0875,-0.9125 1.3625,0 2.1125,0.975 0.75,0.9625 0.675,2.3375 z m -4.5625,-0.85 3.5125,0 q -0.1,-0.65 -0.5875,-1.0875 -0.4875,-0.45 -1.1375,-0.45 -0.65,0 -1.175,0.45 -0.525,0.45 -0.6125,1.0875 z m -0.2125,-3.975 1.95,-1.6625 1.975,1.6625 -0.725,0.5625 -1.25,-1.0625 -1.2375,1.0625 -0.7125,-0.5625 z"
               style="font-style:normal;font-variant:normal;font-weight:normal;font-stretch:normal;font-size:12.5px;font-family:'Futura LT';-inkscape-font-specification:'Futura LT'"
               id="path7383" />
            <path
               inkscape:connector-curvature="0"
               d="m -420.37465,587.6004 0,0.7125 0.025,0 q 0.6375,-0.875 1.675,-0.875 1.125,0 1.5625,0.6875 0.4375,0.6875 0.4375,1.8625 l 0,3.4875 -1,0 0,-3.3125 q 0,-0.425 -0.0375,-0.6875 -0.025,-0.275 -0.1375,-0.55 -0.1125,-0.2875 -0.3875,-0.425 -0.2625,-0.1375 -0.675,-0.1375 -0.4,0 -0.6875,0.15 -0.275,0.15 -0.425,0.3625 -0.15,0.2125 -0.2375,0.55 -0.075,0.3375 -0.1,0.6125 -0.0125,0.2625 -0.0125,0.65 l 0,2.7875 -1,0 0,-5.875 1,0 z"
               style="font-style:normal;font-variant:normal;font-weight:normal;font-stretch:normal;font-size:12.5px;font-family:'Futura LT';-inkscape-font-specification:'Futura LT'"
               id="path7385" />
            <path
               inkscape:connector-curvature="0"
               d="m -409.67035,590.7504 -4.6125,0 q 0.0125,0.825 0.55,1.4 0.5375,0.5625 1.375,0.5625 1.1125,0 1.7875,-1.2125 l 0.85,0.4875 q -0.8875,1.65 -2.7125,1.65 -1.2875,0 -2.0875,-0.8625 -0.7875,-0.875 -0.7875,-2.1625 0,-1.3625 0.7625,-2.2625 0.7625,-0.9125 2.0875,-0.9125 1.3625,0 2.1125,0.975 0.75,0.9625 0.675,2.3375 z m -4.5625,-0.85 3.5125,0 q -0.1,-0.65 -0.5875,-1.0875 -0.4875,-0.45 -1.1375,-0.45 -0.65,0 -1.175,0.45 -0.525,0.45 -0.6125,1.0875 z"
               style="font-style:normal;font-variant:normal;font-weight:normal;font-stretch:normal;font-size:12.5px;font-family:'Futura LT';-inkscape-font-specification:'Futura LT'"
               id="path7387" />
            <path
               inkscape:connector-curvature="0"
               d="m -407.33871,587.6004 0,0.6375 0.025,0 q 0.3125,-0.4125 0.575,-0.6 0.275,-0.2 0.725,-0.2 0.4125,0 0.9,0.275 l -0.475,0.9125 q -0.3875,-0.2625 -0.6,-0.2625 -1.15,0 -1.15,2.175 l 0,2.9375 -1,0 0,-5.875 1,0 z"
               style="font-style:normal;font-variant:normal;font-weight:normal;font-stretch:normal;font-size:12.5px;font-family:'Futura LT';-inkscape-font-specification:'Futura LT'"
               id="path7389" />
            <path
               inkscape:connector-curvature="0"
               d="m -399.33949,592.7379 q -0.9,0.9 -2.1875,0.9 -1.2875,0 -2.1875,-0.9 -0.9,-0.9 -0.9,-2.1875 0,-1.3 0.9,-2.2 0.9,-0.9125 2.1875,-0.9125 1.2875,0 2.1875,0.9125 0.9,0.9 0.9,2.2 0,1.2875 -0.9,2.1875 z m -0.6875,-3.7375 q -0.5875,-0.6375 -1.5,-0.6375 -0.9125,0 -1.5,0.6375 -0.5875,0.625 -0.5875,1.5375 0,0.9125 0.5875,1.55 0.5875,0.625 1.5,0.625 0.9125,0 1.5,-0.625 0.5875,-0.6375 0.5875,-1.55 0,-0.9125 -0.5875,-1.5375 z"
               style="font-style:normal;font-variant:normal;font-weight:normal;font-stretch:normal;font-size:12.5px;font-family:'Futura LT';-inkscape-font-specification:'Futura LT'"
               id="path7391" />
          </g>
          <g
             transform="matrix(0.70710678,-0.70710678,0.70710678,0.70710678,0,0)"
             style="font-style:normal;font-weight:normal;font-size:40px;line-height:125%;font-family:sans-serif;letter-spacing:0px;word-spacing:0px;fill:#000000;fill-opacity:1;stroke:none;stroke-width:1px;stroke-linecap:butt;stroke-linejoin:miter;stroke-opacity:1"
             id="text15596">
            <path
               inkscape:connector-curvature="0"
               d="m -412.51463,622.47217 0,5.875 -1,0 0,-5.875 1,0 z m -1,-2.7125 q 0.2125,-0.2125 0.5,-0.2125 0.2875,0 0.5,0.2125 0.2125,0.2125 0.2125,0.5 0,0.3 -0.2125,0.5125 -0.2125,0.2 -0.5,0.2 -0.2875,0 -0.5,-0.2 -0.2125,-0.2125 -0.2125,-0.5125 0,-0.2875 0.2125,-0.5 z"
               style="font-style:normal;font-variant:normal;font-weight:normal;font-stretch:normal;font-size:12.5px;font-family:'Futura LT';-inkscape-font-specification:'Futura LT';text-align:center;text-anchor:middle"
               id="path7394" />
            <path
               inkscape:connector-curvature="0"
               d="m -409.43065,622.47217 0,0.7125 0.025,0 q 0.6375,-0.875 1.675,-0.875 1.125,0 1.5625,0.6875 0.4375,0.6875 0.4375,1.8625 l 0,3.4875 -1,0 0,-3.3125 q 0,-0.425 -0.0375,-0.6875 -0.025,-0.275 -0.1375,-0.55 -0.1125,-0.2875 -0.3875,-0.425 -0.2625,-0.1375 -0.675,-0.1375 -0.4,0 -0.6875,0.15 -0.275,0.15 -0.425,0.3625 -0.15,0.2125 -0.2375,0.55 -0.075,0.3375 -0.1,0.6125 -0.0125,0.2625 -0.0125,0.65 l 0,2.7875 -1,0 0,-5.875 1,0 z"
               style="font-style:normal;font-variant:normal;font-weight:normal;font-stretch:normal;font-size:12.5px;font-family:'Futura LT';-inkscape-font-specification:'Futura LT';text-align:center;text-anchor:middle"
               id="path7396" />
            <path
               inkscape:connector-curvature="0"
               d="m -400.62635,623.39717 -0.8375,0.4375 q -0.1125,-0.25 -0.325,-0.425 -0.2125,-0.175 -0.475,-0.175 -0.275,0 -0.5,0.1875 -0.225,0.1875 -0.225,0.4625 0,0.1125 0.025,0.2125 0.0375,0.0875 0.125,0.175 0.1,0.0875 0.1625,0.15 0.075,0.0625 0.2375,0.1375 0.1625,0.075 0.2375,0.1125 0.075,0.0375 0.2875,0.125 0.2125,0.0875 0.2875,0.1125 0.625,0.2625 0.9875,0.6375 0.375,0.375 0.375,1.05 0,0.825 -0.5875,1.375 -0.575,0.5375 -1.4,0.5375 -0.7375,0 -1.2875,-0.3875 -0.55,-0.4 -0.7875,-1.1 l 0.8875,-0.375 q 0.2125,0.4625 0.475,0.7 0.2625,0.2375 0.725,0.2375 0.4125,0 0.675,-0.25 0.275,-0.25 0.275,-0.65 0,-0.3625 -0.275,-0.6 -0.275,-0.2375 -0.6625,-0.3875 -0.3875,-0.1625 -0.775,-0.3375 -0.3875,-0.1875 -0.6625,-0.525 -0.275,-0.35 -0.275,-0.8625 0,-0.725 0.5125,-1.1875 0.5125,-0.475 1.2375,-0.475 0.5,0 0.925,0.3125 0.4375,0.3 0.6375,0.775 z"
               style="font-style:normal;font-variant:normal;font-weight:normal;font-stretch:normal;font-size:12.5px;font-family:'Futura LT';-inkscape-font-specification:'Futura LT';text-align:center;text-anchor:middle"
               id="path7398" />
            <path
               inkscape:connector-curvature="0"
               d="m -397.80838,623.39717 0,4.95 -1,0 0,-4.95 -0.6125,0 0,-0.925 0.6125,0 0,-2.1125 1,0 0,2.1125 1.05,0 0,0.925 -1.05,0 z"
               style="font-style:normal;font-variant:normal;font-weight:normal;font-stretch:normal;font-size:12.5px;font-family:'Futura LT';-inkscape-font-specification:'Futura LT';text-align:center;text-anchor:middle"
               id="path7400" />
            <path
               inkscape:connector-curvature="0"
               d="m -394.90545,622.47217 0,0.6375 0.025,0 q 0.3125,-0.4125 0.575,-0.6 0.275,-0.2 0.725,-0.2 0.4125,0 0.9,0.275 l -0.475,0.9125 q -0.3875,-0.2625 -0.6,-0.2625 -1.15,0 -1.15,2.175 l 0,2.9375 -1,0 0,-5.875 1,0 z"
               style="font-style:normal;font-variant:normal;font-weight:normal;font-stretch:normal;font-size:12.5px;font-family:'Futura LT';-inkscape-font-specification:'Futura LT';text-align:center;text-anchor:middle"
               id="path7402" />
            <path
               inkscape:connector-curvature="0"
               d="m -390.73123,622.47217 0,3.275 q 0,0.3375 0.0125,0.575 0.025,0.2375 0.1,0.5 0.0875,0.25 0.225,0.4125 0.1375,0.15 0.3875,0.25 0.25,0.1 0.6,0.1 0.35,0 0.6,-0.1 0.25,-0.1 0.3875,-0.25 0.1375,-0.1625 0.2125,-0.4125 0.0875,-0.2625 0.1,-0.5 0.025,-0.2375 0.025,-0.575 l 0,-3.275 1,0 0,3.3875 q 0,2.65 -2.325,2.65 -2.325,0 -2.325,-2.65 l 0,-3.3875 1,0 z"
               style="font-style:normal;font-variant:normal;font-weight:normal;font-stretch:normal;font-size:12.5px;font-family:'Futura LT';-inkscape-font-specification:'Futura LT';text-align:center;text-anchor:middle"
               id="path7404" />
            <path
               inkscape:connector-curvature="0"
               d="m -384.25975,622.47217 0,0.6375 0.025,0 q 0.5125,-0.8 1.4125,-0.8 0.525,0 0.95,0.2625 0.4375,0.2625 0.675,0.7125 0.25,-0.475 0.725,-0.725 0.4875,-0.25 1.0375,-0.25 1.875,0 1.875,2.4625 l 0,3.575 -1,0 0,-3.4125 q 0,-0.3625 -0.025,-0.6 -0.025,-0.2375 -0.125,-0.525 -0.1,-0.2875 -0.3375,-0.425 -0.225,-0.15 -0.5875,-0.15 -0.4125,0 -0.6875,0.175 -0.2625,0.175 -0.3875,0.5 -0.1125,0.325 -0.1625,0.625 -0.0375,0.3 -0.0375,0.7 l 0,3.1125 -1,0 0,-3.3375 q 0,-1.775 -1.05,-1.775 -0.4125,0 -0.7,0.1875 -0.275,0.1875 -0.4,0.525 -0.1125,0.3375 -0.1625,0.65 -0.0375,0.3125 -0.0375,0.7125 l 0,3.0375 -1,0 0,-5.875 1,0 z"
               style="font-style:normal;font-variant:normal;font-weight:normal;font-stretch:normal;font-size:12.5px;font-family:'Futura LT';-inkscape-font-specification:'Futura LT';text-align:center;text-anchor:middle"
               id="path7406" />
            <path
               inkscape:connector-curvature="0"
               d="m -370.55252,625.62217 -4.6125,0 q 0.0125,0.825 0.55,1.4 0.5375,0.5625 1.375,0.5625 1.1125,0 1.7875,-1.2125 l 0.85,0.4875 q -0.8875,1.65 -2.7125,1.65 -1.2875,0 -2.0875,-0.8625 -0.7875,-0.875 -0.7875,-2.1625 0,-1.3625 0.7625,-2.2625 0.7625,-0.9125 2.0875,-0.9125 1.3625,0 2.1125,0.975 0.75,0.9625 0.675,2.3375 z m -4.5625,-0.85 3.5125,0 q -0.1,-0.65 -0.5875,-1.0875 -0.4875,-0.45 -1.1375,-0.45 -0.65,0 -1.175,0.45 -0.525,0.45 -0.6125,1.0875 z"
               style="font-style:normal;font-variant:normal;font-weight:normal;font-stretch:normal;font-size:12.5px;font-family:'Futura LT';-inkscape-font-specification:'Futura LT';text-align:center;text-anchor:middle"
               id="path7408" />
            <path
               inkscape:connector-curvature="0"
               d="m -368.17088,622.47217 0,0.7125 0.025,0 q 0.6375,-0.875 1.675,-0.875 1.125,0 1.5625,0.6875 0.4375,0.6875 0.4375,1.8625 l 0,3.4875 -1,0 0,-3.3125 q 0,-0.425 -0.0375,-0.6875 -0.025,-0.275 -0.1375,-0.55 -0.1125,-0.2875 -0.3875,-0.425 -0.2625,-0.1375 -0.675,-0.1375 -0.4,0 -0.6875,0.15 -0.275,0.15 -0.425,0.3625 -0.15,0.2125 -0.2375,0.55 -0.075,0.3375 -0.1,0.6125 -0.0125,0.2625 -0.0125,0.65 l 0,2.7875 -1,0 0,-5.875 1,0 z"
               style="font-style:normal;font-variant:normal;font-weight:normal;font-stretch:normal;font-size:12.5px;font-family:'Futura LT';-inkscape-font-specification:'Futura LT';text-align:center;text-anchor:middle"
               id="path7410" />
            <path
               inkscape:connector-curvature="0"
               d="m -361.52908,623.39717 0,4.95 -1,0 0,-4.95 -0.6125,0 0,-0.925 0.6125,0 0,-2.1125 1,0 0,2.1125 1.05,0 0,0.925 -1.05,0 z"
               style="font-style:normal;font-variant:normal;font-weight:normal;font-stretch:normal;font-size:12.5px;font-family:'Futura LT';-inkscape-font-specification:'Futura LT';text-align:center;text-anchor:middle"
               id="path7412" />
            <path
               inkscape:connector-curvature="0"
               d="m -354.82615,627.60967 q -0.9,0.9 -2.1875,0.9 -1.2875,0 -2.1875,-0.9 -0.9,-0.9 -0.9,-2.1875 0,-1.3 0.9,-2.2 0.9,-0.9125 2.1875,-0.9125 1.2875,0 2.1875,0.9125 0.9,0.9 0.9,2.2 0,1.2875 -0.9,2.1875 z m -0.6875,-3.7375 q -0.5875,-0.6375 -1.5,-0.6375 -0.9125,0 -1.5,0.6375 -0.5875,0.625 -0.5875,1.5375 0,0.9125 0.5875,1.55 0.5875,0.625 1.5,0.625 0.9125,0 1.5,-0.625 0.5875,-0.6375 0.5875,-1.55 0,-0.9125 -0.5875,-1.5375 z"
               style="font-style:normal;font-variant:normal;font-weight:normal;font-stretch:normal;font-size:12.5px;font-family:'Futura LT';-inkscape-font-specification:'Futura LT';text-align:center;text-anchor:middle"
               id="path7414" />
          </g>
          <g
             transform="matrix(0.70710678,-0.70710678,0.70710678,0.70710678,0,0)"
             style="font-style:normal;font-weight:normal;font-size:40px;line-height:125%;font-family:sans-serif;letter-spacing:0px;word-spacing:0px;fill:#000000;fill-opacity:1;stroke:none;stroke-width:1px;stroke-linecap:butt;stroke-linejoin:miter;stroke-opacity:1"
             id="text15600">
            <path
               inkscape:connector-curvature="0"
               d="m -366.00464,655.85988 0,4.95 -1,0 0,-4.95 -0.6125,0 0,-0.925 0.6125,0 0,-2.1125 1,0 0,2.1125 1.05,0 0,0.925 -1.05,0 z"
               style="font-style:normal;font-variant:normal;font-weight:normal;font-stretch:normal;font-size:12.5px;font-family:'Futura LT';-inkscape-font-specification:'Futura LT'"
               id="path7417" />
            <path
               inkscape:connector-curvature="0"
               d="m -358.93921,658.08488 -4.6125,0 q 0.0125,0.825 0.55,1.4 0.5375,0.5625 1.375,0.5625 1.1125,0 1.7875,-1.2125 l 0.85,0.4875 q -0.8875,1.65 -2.7125,1.65 -1.2875,0 -2.0875,-0.8625 -0.7875,-0.875 -0.7875,-2.1625 0,-1.3625 0.7625,-2.2625 0.7625,-0.9125 2.0875,-0.9125 1.3625,0 2.1125,0.975 0.75,0.9625 0.675,2.3375 z m -4.5625,-0.85 3.5125,0 q -0.1,-0.65 -0.5875,-1.0875 -0.4875,-0.45 -1.1375,-0.45 -0.65,0 -1.175,0.45 -0.525,0.45 -0.6125,1.0875 z"
               style="font-style:normal;font-variant:normal;font-weight:normal;font-stretch:normal;font-size:12.5px;font-family:'Futura LT';-inkscape-font-specification:'Futura LT'"
               id="path7419" />
            <path
               inkscape:connector-curvature="0"
               d="m -356.55757,654.93488 0,0.6375 0.025,0 q 0.5125,-0.8 1.4125,-0.8 0.525,0 0.95,0.2625 0.4375,0.2625 0.675,0.7125 0.25,-0.475 0.725,-0.725 0.4875,-0.25 1.0375,-0.25 1.875,0 1.875,2.4625 l 0,3.575 -1,0 0,-3.4125 q 0,-0.3625 -0.025,-0.6 -0.025,-0.2375 -0.125,-0.525 -0.1,-0.2875 -0.3375,-0.425 -0.225,-0.15 -0.5875,-0.15 -0.4125,0 -0.6875,0.175 -0.2625,0.175 -0.3875,0.5 -0.1125,0.325 -0.1625,0.625 -0.0375,0.3 -0.0375,0.7 l 0,3.1125 -1,0 0,-3.3375 q 0,-1.775 -1.05,-1.775 -0.4125,0 -0.7,0.1875 -0.275,0.1875 -0.4,0.525 -0.1125,0.3375 -0.1625,0.65 -0.0375,0.3125 -0.0375,0.7125 l 0,3.0375 -1,0 0,-5.875 1,0 z"
               style="font-style:normal;font-variant:normal;font-weight:normal;font-stretch:normal;font-size:12.5px;font-family:'Futura LT';-inkscape-font-specification:'Futura LT'"
               id="path7421" />
            <path
               inkscape:connector-curvature="0"
               d="m -345.15034,655.69738 q -0.8375,0 -1.375,0.625 -0.5375,0.625 -0.5375,1.4875 0,0.9125 0.5125,1.575 0.525,0.6625 1.4125,0.6625 0.925,0 1.4375,-0.6375 0.525,-0.65 0.525,-1.5875 0,-0.9125 -0.5375,-1.5125 -0.5375,-0.6125 -1.4375,-0.6125 z m -1.8625,-0.7625 0,0.8375 0.025,0 q 0.75,-1 2.025,-1 1.25,0 2.025,0.925 0.7875,0.9125 0.7875,2.1875 0,1.3 -0.775,2.2 -0.7625,0.8875 -2.05,0.8875 -1.275,0 -2.0125,-0.9875 l -0.025,0 0,4.125 -1,0 0,-9.175 1,0 z"
               style="font-style:normal;font-variant:normal;font-weight:normal;font-stretch:normal;font-size:12.5px;font-family:'Futura LT';-inkscape-font-specification:'Futura LT'"
               id="path7423" />
            <path
               inkscape:connector-curvature="0"
               d="m -336.01069,660.07238 q -0.9,0.9 -2.1875,0.9 -1.2875,0 -2.1875,-0.9 -0.9,-0.9 -0.9,-2.1875 0,-1.3 0.9,-2.2 0.9,-0.9125 2.1875,-0.9125 1.2875,0 2.1875,0.9125 0.9,0.9 0.9,2.2 0,1.2875 -0.9,2.1875 z m -0.6875,-3.7375 q -0.5875,-0.6375 -1.5,-0.6375 -0.9125,0 -1.5,0.6375 -0.5875,0.625 -0.5875,1.5375 0,0.9125 0.5875,1.55 0.5875,0.625 1.5,0.625 0.9125,0 1.5,-0.625 0.5875,-0.6375 0.5875,-1.55 0,-0.9125 -0.5875,-1.5375 z"
               style="font-style:normal;font-variant:normal;font-weight:normal;font-stretch:normal;font-size:12.5px;font-family:'Futura LT';-inkscape-font-specification:'Futura LT'"
               id="path7425" />
          </g>
          <g
             transform="matrix(0.70710678,-0.70710678,0.70710678,0.70710678,0,0)"
             style="font-style:normal;font-weight:normal;font-size:40px;line-height:125%;font-family:sans-serif;letter-spacing:0px;word-spacing:0px;fill:#000000;fill-opacity:1;stroke:none;stroke-width:1px;stroke-linecap:butt;stroke-linejoin:miter;stroke-opacity:1"
             id="text15604">
            <path
               inkscape:connector-curvature="0"
               d="m -345.12635,686.39717 -0.8375,0.4375 q -0.1125,-0.25 -0.325,-0.425 -0.2125,-0.175 -0.475,-0.175 -0.275,0 -0.5,0.1875 -0.225,0.1875 -0.225,0.4625 0,0.1125 0.025,0.2125 0.0375,0.0875 0.125,0.175 0.1,0.0875 0.1625,0.15 0.075,0.0625 0.2375,0.1375 0.1625,0.075 0.2375,0.1125 0.075,0.0375 0.2875,0.125 0.2125,0.0875 0.2875,0.1125 0.625,0.2625 0.9875,0.6375 0.375,0.375 0.375,1.05 0,0.825 -0.5875,1.375 -0.575,0.5375 -1.4,0.5375 -0.7375,0 -1.2875,-0.3875 -0.55,-0.4 -0.7875,-1.1 l 0.8875,-0.375 q 0.2125,0.4625 0.475,0.7 0.2625,0.2375 0.725,0.2375 0.4125,0 0.675,-0.25 0.275,-0.25 0.275,-0.65 0,-0.3625 -0.275,-0.6 -0.275,-0.2375 -0.6625,-0.3875 -0.3875,-0.1625 -0.775,-0.3375 -0.3875,-0.1875 -0.6625,-0.525 -0.275,-0.35 -0.275,-0.8625 0,-0.725 0.5125,-1.1875 0.5125,-0.475 1.2375,-0.475 0.5,0 0.925,0.3125 0.4375,0.3 0.6375,0.775 z"
               style="font-style:normal;font-variant:normal;font-weight:normal;font-stretch:normal;font-size:12.5px;font-family:'Futura LT';-inkscape-font-specification:'Futura LT'"
               id="path7428" />
            <path
               inkscape:connector-curvature="0"
               d="m -338.24588,688.62217 -4.6125,0 q 0.0125,0.825 0.55,1.4 0.5375,0.5625 1.375,0.5625 1.1125,0 1.7875,-1.2125 l 0.85,0.4875 q -0.8875,1.65 -2.7125,1.65 -1.2875,0 -2.0875,-0.8625 -0.7875,-0.875 -0.7875,-2.1625 0,-1.3625 0.7625,-2.2625 0.7625,-0.9125 2.0875,-0.9125 1.3625,0 2.1125,0.975 0.75,0.9625 0.675,2.3375 z m -4.5625,-0.85 3.5125,0 q -0.1,-0.65 -0.5875,-1.0875 -0.4875,-0.45 -1.1375,-0.45 -0.65,0 -1.175,0.45 -0.525,0.45 -0.6125,1.0875 z"
               style="font-style:normal;font-variant:normal;font-weight:normal;font-stretch:normal;font-size:12.5px;font-family:'Futura LT';-inkscape-font-specification:'Futura LT'"
               id="path7430" />
            <path
               inkscape:connector-curvature="0"
               d="m -335.86424,685.47217 0,0.7125 0.025,0 q 0.6375,-0.875 1.675,-0.875 1.125,0 1.5625,0.6875 0.4375,0.6875 0.4375,1.8625 l 0,3.4875 -1,0 0,-3.3125 q 0,-0.425 -0.0375,-0.6875 -0.025,-0.275 -0.1375,-0.55 -0.1125,-0.2875 -0.3875,-0.425 -0.2625,-0.1375 -0.675,-0.1375 -0.4,0 -0.6875,0.15 -0.275,0.15 -0.425,0.3625 -0.15,0.2125 -0.2375,0.55 -0.075,0.3375 -0.1,0.6125 -0.0125,0.2625 -0.0125,0.65 l 0,2.7875 -1,0 0,-5.875 1,0 z"
               style="font-style:normal;font-variant:normal;font-weight:normal;font-stretch:normal;font-size:12.5px;font-family:'Futura LT';-inkscape-font-specification:'Futura LT'"
               id="path7432" />
            <path
               inkscape:connector-curvature="0"
               d="m -329.22244,686.39717 0,4.95 -1,0 0,-4.95 -0.6125,0 0,-0.925 0.6125,0 0,-2.1125 1,0 0,2.1125 1.05,0 0,0.925 -1.05,0 z"
               style="font-style:normal;font-variant:normal;font-weight:normal;font-stretch:normal;font-size:12.5px;font-family:'Futura LT';-inkscape-font-specification:'Futura LT'"
               id="path7434" />
            <path
               inkscape:connector-curvature="0"
               d="m -326.08201,685.47217 0,5.875 -1,0 0,-5.875 1,0 z m -1,-2.7125 q 0.2125,-0.2125 0.5,-0.2125 0.2875,0 0.5,0.2125 0.2125,0.2125 0.2125,0.5 0,0.3 -0.2125,0.5125 -0.2125,0.2 -0.5,0.2 -0.2875,0 -0.5,-0.2 -0.2125,-0.2125 -0.2125,-0.5125 0,-0.2875 0.2125,-0.5 z"
               style="font-style:normal;font-variant:normal;font-weight:normal;font-stretch:normal;font-size:12.5px;font-family:'Futura LT';-inkscape-font-specification:'Futura LT'"
               id="path7436" />
            <path
               inkscape:connector-curvature="0"
               d="m -322.99803,685.47217 0,0.6375 0.025,0 q 0.5125,-0.8 1.4125,-0.8 0.525,0 0.95,0.2625 0.4375,0.2625 0.675,0.7125 0.25,-0.475 0.725,-0.725 0.4875,-0.25 1.0375,-0.25 1.875,0 1.875,2.4625 l 0,3.575 -1,0 0,-3.4125 q 0,-0.3625 -0.025,-0.6 -0.025,-0.2375 -0.125,-0.525 -0.1,-0.2875 -0.3375,-0.425 -0.225,-0.15 -0.5875,-0.15 -0.4125,0 -0.6875,0.175 -0.2625,0.175 -0.3875,0.5 -0.1125,0.325 -0.1625,0.625 -0.0375,0.3 -0.0375,0.7 l 0,3.1125 -1,0 0,-3.3375 q 0,-1.775 -1.05,-1.775 -0.4125,0 -0.7,0.1875 -0.275,0.1875 -0.4,0.525 -0.1125,0.3375 -0.1625,0.65 -0.0375,0.3125 -0.0375,0.7125 l 0,3.0375 -1,0 0,-5.875 1,0 z"
               style="font-style:normal;font-variant:normal;font-weight:normal;font-stretch:normal;font-size:12.5px;font-family:'Futura LT';-inkscape-font-specification:'Futura LT'"
               id="path7438" />
            <path
               inkscape:connector-curvature="0"
               d="m -309.2908,688.62217 -4.6125,0 q 0.0125,0.825 0.55,1.4 0.5375,0.5625 1.375,0.5625 1.1125,0 1.7875,-1.2125 l 0.85,0.4875 q -0.8875,1.65 -2.7125,1.65 -1.2875,0 -2.0875,-0.8625 -0.7875,-0.875 -0.7875,-2.1625 0,-1.3625 0.7625,-2.2625 0.7625,-0.9125 2.0875,-0.9125 1.3625,0 2.1125,0.975 0.75,0.9625 0.675,2.3375 z m -4.5625,-0.85 3.5125,0 q -0.1,-0.65 -0.5875,-1.0875 -0.4875,-0.45 -1.1375,-0.45 -0.65,0 -1.175,0.45 -0.525,0.45 -0.6125,1.0875 z"
               style="font-style:normal;font-variant:normal;font-weight:normal;font-stretch:normal;font-size:12.5px;font-family:'Futura LT';-inkscape-font-specification:'Futura LT'"
               id="path7440" />
            <path
               inkscape:connector-curvature="0"
               d="m -306.90916,685.47217 0,0.7125 0.025,0 q 0.6375,-0.875 1.675,-0.875 1.125,0 1.5625,0.6875 0.4375,0.6875 0.4375,1.8625 l 0,3.4875 -1,0 0,-3.3125 q 0,-0.425 -0.0375,-0.6875 -0.025,-0.275 -0.1375,-0.55 -0.1125,-0.2875 -0.3875,-0.425 -0.2625,-0.1375 -0.675,-0.1375 -0.4,0 -0.6875,0.15 -0.275,0.15 -0.425,0.3625 -0.15,0.2125 -0.2375,0.55 -0.075,0.3375 -0.1,0.6125 -0.0125,0.2625 -0.0125,0.65 l 0,2.7875 -1,0 0,-5.875 1,0 z"
               style="font-style:normal;font-variant:normal;font-weight:normal;font-stretch:normal;font-size:12.5px;font-family:'Futura LT';-inkscape-font-specification:'Futura LT'"
               id="path7442" />
            <path
               inkscape:connector-curvature="0"
               d="m -300.26736,686.39717 0,4.95 -1,0 0,-4.95 -0.6125,0 0,-0.925 0.6125,0 0,-2.1125 1,0 0,2.1125 1.05,0 0,0.925 -1.05,0 z"
               style="font-style:normal;font-variant:normal;font-weight:normal;font-stretch:normal;font-size:12.5px;font-family:'Futura LT';-inkscape-font-specification:'Futura LT'"
               id="path7444" />
            <path
               inkscape:connector-curvature="0"
               d="m -293.56443,690.60967 q -0.9,0.9 -2.1875,0.9 -1.2875,0 -2.1875,-0.9 -0.9,-0.9 -0.9,-2.1875 0,-1.3 0.9,-2.2 0.9,-0.9125 2.1875,-0.9125 1.2875,0 2.1875,0.9125 0.9,0.9 0.9,2.2 0,1.2875 -0.9,2.1875 z m -0.6875,-3.7375 q -0.5875,-0.6375 -1.5,-0.6375 -0.9125,0 -1.5,0.6375 -0.5875,0.625 -0.5875,1.5375 0,0.9125 0.5875,1.55 0.5875,0.625 1.5,0.625 0.9125,0 1.5,-0.625 0.5875,-0.6375 0.5875,-1.55 0,-0.9125 -0.5875,-1.5375 z"
               style="font-style:normal;font-variant:normal;font-weight:normal;font-stretch:normal;font-size:12.5px;font-family:'Futura LT';-inkscape-font-specification:'Futura LT'"
               id="path7446" />
          </g>
          <g
             transform="matrix(0.70710678,-0.70710678,0.70710678,0.70710678,0,0)"
             style="font-style:normal;font-weight:normal;font-size:40px;line-height:125%;font-family:sans-serif;letter-spacing:0px;word-spacing:0px;fill:#000000;fill-opacity:1;stroke:none;stroke-width:1px;stroke-linecap:butt;stroke-linejoin:miter;stroke-opacity:1"
             id="text15608">
            <path
               inkscape:connector-curvature="0"
               d="m -303.74757,721.35204 q -0.8375,0 -1.375,0.625 -0.5375,0.625 -0.5375,1.4875 0,0.9125 0.5125,1.575 0.525,0.6625 1.4125,0.6625 0.925,0 1.4375,-0.6375 0.525,-0.65 0.525,-1.5875 0,-0.9125 -0.5375,-1.5125 -0.5375,-0.6125 -1.4375,-0.6125 z m 1.925,5.1125 0,-0.8125 -0.025,0 q -0.75,0.975 -2.025,0.975 -1.25,0 -2.0375,-0.9125 -0.775,-0.9125 -0.775,-2.175 0,-1.3 0.775,-2.2 0.775,-0.9125 2.05,-0.9125 1.25,0 2.0125,1 l 0.025,0 0,-5.275 1,0 0,10.3125 -1,0 z"
               style="font-style:normal;font-variant:normal;font-weight:normal;font-stretch:normal;font-size:12.5px;font-family:'Futura LT';-inkscape-font-specification:'Futura LT';text-align:center;text-anchor:middle"
               id="path7449" />
            <path
               inkscape:connector-curvature="0"
               d="m -296.54542,721.35204 q -0.8375,0 -1.375,0.625 -0.5375,0.625 -0.5375,1.4875 0,0.9125 0.5125,1.575 0.525,0.6625 1.4125,0.6625 0.925,0 1.4375,-0.6375 0.525,-0.65 0.525,-1.5875 0,-0.9125 -0.5375,-1.5125 -0.5375,-0.6125 -1.4375,-0.6125 z m 2.925,-0.7625 0,5.875 -1,0 0,-0.8125 -0.025,0 q -0.7625,0.975 -2.025,0.975 -1.25,0 -2.0375,-0.9125 -0.775,-0.9125 -0.775,-2.175 0,-1.3 0.775,-2.2 0.775,-0.9125 2.05,-0.9125 1.2375,0 2.0125,1 l 0.025,0 0,-0.8375 1,0 z"
               style="font-style:normal;font-variant:normal;font-weight:normal;font-stretch:normal;font-size:12.5px;font-family:'Futura LT';-inkscape-font-specification:'Futura LT';text-align:center;text-anchor:middle"
               id="path7451" />
            <path
               inkscape:connector-curvature="0"
               d="m -290.78077,720.58954 0,0.7125 0.025,0 q 0.6375,-0.875 1.675,-0.875 1.125,0 1.5625,0.6875 0.4375,0.6875 0.4375,1.8625 l 0,3.4875 -1,0 0,-3.3125 q 0,-0.425 -0.0375,-0.6875 -0.025,-0.275 -0.1375,-0.55 -0.1125,-0.2875 -0.3875,-0.425 -0.2625,-0.1375 -0.675,-0.1375 -0.4,0 -0.6875,0.15 -0.275,0.15 -0.425,0.3625 -0.15,0.2125 -0.2375,0.55 -0.075,0.3375 -0.1,0.6125 -0.0125,0.2625 -0.0125,0.65 l 0,2.7875 -1,0 0,-5.875 1,0 z"
               style="font-style:normal;font-variant:normal;font-weight:normal;font-stretch:normal;font-size:12.5px;font-family:'Futura LT';-inkscape-font-specification:'Futura LT';text-align:center;text-anchor:middle"
               id="path7453" />
            <path
               inkscape:connector-curvature="0"
               d="m -280.82648,721.01454 0,1.325 -0.025,0 q -0.775,-0.9875 -1.825,-0.9875 -0.8875,0 -1.4875,0.6375 -0.5875,0.6375 -0.5875,1.5375 0,0.9 0.5625,1.5375 0.5625,0.6375 1.4625,0.6375 1.1375,0 1.9125,-1.0125 l 0.025,0 0,1.3375 q -0.8875,0.6 -1.8625,0.6 -1.3375,0 -2.2375,-0.8875 -0.8875,-0.8875 -0.8875,-2.2125 0,-1.3 0.9125,-2.2 0.925,-0.9 2.225,-0.9 0.9875,0 1.8125,0.5875 z m -1.2625,6.1125 -1.425,1.825 -0.7,-0.35 1.2,-1.85 0.925,0.375 z"
               style="font-style:normal;font-variant:normal;font-weight:normal;font-stretch:normal;font-size:12.5px;font-family:'Futura LT';-inkscape-font-specification:'Futura LT';text-align:center;text-anchor:middle"
               id="path7455" />
            <path
               inkscape:connector-curvature="0"
               d="m -276.79445,721.35204 q -0.8375,0 -1.375,0.625 -0.5375,0.625 -0.5375,1.4875 0,0.9125 0.5125,1.575 0.525,0.6625 1.4125,0.6625 0.925,0 1.4375,-0.6375 0.525,-0.65 0.525,-1.5875 0,-0.9125 -0.5375,-1.5125 -0.5375,-0.6125 -1.4375,-0.6125 z m 2.925,-0.7625 0,5.875 -1,0 0,-0.8125 -0.025,0 q -0.7625,0.975 -2.025,0.975 -1.25,0 -2.0375,-0.9125 -0.775,-0.9125 -0.775,-2.175 0,-1.3 0.775,-2.2 0.775,-0.9125 2.05,-0.9125 1.2375,0 2.0125,1 l 0.025,0 0,-0.8375 1,0 z m -1.975,-3.425 1.05,0.475 -1.9125,1.925 -0.625,-0.35 1.4875,-2.05 z"
               style="font-style:normal;font-variant:normal;font-weight:normal;font-stretch:normal;font-size:12.5px;font-family:'Futura LT';-inkscape-font-specification:'Futura LT';text-align:center;text-anchor:middle"
               id="path7457" />
            <path
               inkscape:connector-curvature="0"
               d="m -271.8298,720.58954 1.75,3.95 1.75,-3.95 1.125,0 -2.875,6.2625 -2.8875,-6.2625 1.1375,0 z"
               style="font-style:normal;font-variant:normal;font-weight:normal;font-stretch:normal;font-size:12.5px;font-family:'Futura LT';-inkscape-font-specification:'Futura LT';text-align:center;text-anchor:middle"
               id="path7459" />
            <path
               inkscape:connector-curvature="0"
               d="m -261.13116,723.73954 -4.6125,0 q 0.0125,0.825 0.55,1.4 0.5375,0.5625 1.375,0.5625 1.1125,0 1.7875,-1.2125 l 0.85,0.4875 q -0.8875,1.65 -2.7125,1.65 -1.2875,0 -2.0875,-0.8625 -0.7875,-0.875 -0.7875,-2.1625 0,-1.3625 0.7625,-2.2625 0.7625,-0.9125 2.0875,-0.9125 1.3625,0 2.1125,0.975 0.75,0.9625 0.675,2.3375 z m -4.5625,-0.85 3.5125,0 q -0.1,-0.65 -0.5875,-1.0875 -0.4875,-0.45 -1.1375,-0.45 -0.65,0 -1.175,0.45 -0.525,0.45 -0.6125,1.0875 z"
               style="font-style:normal;font-variant:normal;font-weight:normal;font-stretch:normal;font-size:12.5px;font-family:'Futura LT';-inkscape-font-specification:'Futura LT';text-align:center;text-anchor:middle"
               id="path7461" />
            <path
               inkscape:connector-curvature="0"
               d="m -258.77452,716.15204 0,10.3125 -1,0 0,-10.3125 1,0 z"
               style="font-style:normal;font-variant:normal;font-weight:normal;font-stretch:normal;font-size:12.5px;font-family:'Futura LT';-inkscape-font-specification:'Futura LT';text-align:center;text-anchor:middle"
               id="path7463" />
            <path
               inkscape:connector-curvature="0"
               d="m -295.85646,741.35204 q -0.9,0.9 -2.1875,0.9 -1.2875,0 -2.1875,-0.9 -0.9,-0.9 -0.9,-2.1875 0,-1.3 0.9,-2.2 0.9,-0.9125 2.1875,-0.9125 1.2875,0 2.1875,0.9125 0.9,0.9 0.9,2.2 0,1.2875 -0.9,2.1875 z m -0.6875,-3.7375 q -0.5875,-0.6375 -1.5,-0.6375 -0.9125,0 -1.5,0.6375 -0.5875,0.625 -0.5875,1.5375 0,0.9125 0.5875,1.55 0.5875,0.625 1.5,0.625 0.9125,0 1.5,-0.625 0.5875,-0.6375 0.5875,-1.55 0,-0.9125 -0.5875,-1.5375 z"
               style="font-style:normal;font-variant:normal;font-weight:normal;font-stretch:normal;font-size:12.5px;font-family:'Futura LT';-inkscape-font-specification:'Futura LT';text-align:center;text-anchor:middle"
               id="path7465" />
            <path
               inkscape:connector-curvature="0"
               d="m -292.65021,736.21454 0,3.275 q 0,0.3375 0.0125,0.575 0.025,0.2375 0.1,0.5 0.0875,0.25 0.225,0.4125 0.1375,0.15 0.3875,0.25 0.25,0.1 0.6,0.1 0.35,0 0.6,-0.1 0.25,-0.1 0.3875,-0.25 0.1375,-0.1625 0.2125,-0.4125 0.0875,-0.2625 0.1,-0.5 0.025,-0.2375 0.025,-0.575 l 0,-3.275 1,0 0,3.3875 q 0,2.65 -2.325,2.65 -2.325,0 -2.325,-2.65 l 0,-3.3875 1,0 z"
               style="font-style:normal;font-variant:normal;font-weight:normal;font-stretch:normal;font-size:12.5px;font-family:'Futura LT';-inkscape-font-specification:'Futura LT';text-align:center;text-anchor:middle"
               id="path7467" />
            <path
               inkscape:connector-curvature="0"
               d="m -282.3213,736.21454 0,0.7125 0.025,0 q 0.6375,-0.875 1.675,-0.875 1.125,0 1.5625,0.6875 0.4375,0.6875 0.4375,1.8625 l 0,3.4875 -1,0 0,-3.3125 q 0,-0.425 -0.0375,-0.6875 -0.025,-0.275 -0.1375,-0.55 -0.1125,-0.2875 -0.3875,-0.425 -0.2625,-0.1375 -0.675,-0.1375 -0.4,0 -0.6875,0.15 -0.275,0.15 -0.425,0.3625 -0.15,0.2125 -0.2375,0.55 -0.075,0.3375 -0.1,0.6125 -0.0125,0.2625 -0.0125,0.65 l 0,2.7875 -1,0 0,-5.875 1,0 z"
               style="font-style:normal;font-variant:normal;font-weight:normal;font-stretch:normal;font-size:12.5px;font-family:'Futura LT';-inkscape-font-specification:'Futura LT';text-align:center;text-anchor:middle"
               id="path7469" />
            <path
               inkscape:connector-curvature="0"
               d="m -274.292,736.97704 q -0.8375,0 -1.375,0.625 -0.5375,0.625 -0.5375,1.4875 0,0.9125 0.5125,1.575 0.525,0.6625 1.4125,0.6625 0.925,0 1.4375,-0.6375 0.525,-0.65 0.525,-1.5875 0,-0.9125 -0.5375,-1.5125 -0.5375,-0.6125 -1.4375,-0.6125 z m 2.925,-0.7625 0,5.875 -1,0 0,-0.8125 -0.025,0 q -0.7625,0.975 -2.025,0.975 -1.25,0 -2.0375,-0.9125 -0.775,-0.9125 -0.775,-2.175 0,-1.3 0.775,-2.2 0.775,-0.9125 2.05,-0.9125 1.2375,0 2.0125,1 l 0.025,0 0,-0.8375 1,0 z m -4.275,-1.475 -0.6125,-0.4875 q 0.5625,-0.9875 1.275,-0.9875 0.4375,0 1.0125,0.2875 0.65,0.2875 0.8,0.2875 0.375,0 0.7,-0.6 l 0.5875,0.475 q -0.175,0.4375 -0.5375,0.725 -0.35,0.2875 -0.7875,0.2875 -0.3375,0 -0.9375,-0.2875 -0.625,-0.275 -0.875,-0.275 -0.2375,0 -0.375,0.15 -0.125,0.15 -0.25,0.425 z"
               style="font-style:normal;font-variant:normal;font-weight:normal;font-stretch:normal;font-size:12.5px;font-family:'Futura LT';-inkscape-font-specification:'Futura LT';text-align:center;text-anchor:middle"
               id="path7471" />
            <path
               inkscape:connector-curvature="0"
               d="m -264.77736,741.35204 q -0.9,0.9 -2.1875,0.9 -1.2875,0 -2.1875,-0.9 -0.9,-0.9 -0.9,-2.1875 0,-1.3 0.9,-2.2 0.9,-0.9125 2.1875,-0.9125 1.2875,0 2.1875,0.9125 0.9,0.9 0.9,2.2 0,1.2875 -0.9,2.1875 z m -0.6875,-3.7375 q -0.5875,-0.6375 -1.5,-0.6375 -0.9125,0 -1.5,0.6375 -0.5875,0.625 -0.5875,1.5375 0,0.9125 0.5875,1.55 0.5875,0.625 1.5,0.625 0.9125,0 1.5,-0.625 0.5875,-0.6375 0.5875,-1.55 0,-0.9125 -0.5875,-1.5375 z"
               style="font-style:normal;font-variant:normal;font-weight:normal;font-stretch:normal;font-size:12.5px;font-family:'Futura LT';-inkscape-font-specification:'Futura LT';text-align:center;text-anchor:middle"
               id="path7473" />
          </g>
        </g>
      </g>
      <g
         transform="translate(39.334903,-10)"
         id="g15636">
        <g
           style="font-style:normal;font-weight:normal;font-size:40px;line-height:125%;font-family:sans-serif;letter-spacing:0px;word-spacing:0px;fill:#000000;fill-opacity:1;stroke:none;stroke-width:1px;stroke-linecap:butt;stroke-linejoin:miter;stroke-opacity:1"
           id="text15477">
          <path
             inkscape:connector-curvature="0"
             d="m 134.55971,782.62128 -1.1725,0.7525 q -0.8225,-1.435 -2.275,-1.435 -0.8925,0 -1.54,0.5775 -0.6475,0.5775 -0.6475,1.47 0,0.4025 0.175,0.735 0.175,0.3325 0.5425,0.595 0.3675,0.245 0.6125,0.385 0.2625,0.14 0.735,0.35 l 0.875,0.385 q 0.7525,0.3325 1.2425,0.63 0.49,0.28 0.9625,0.7175 0.49,0.42 0.7175,1.015 0.245,0.595 0.245,1.3475 0,1.715 -1.2075,2.905 -1.2075,1.1725 -2.94,1.1725 -1.575,0 -2.695,-0.9275 -1.1025,-0.945 -1.4175,-2.485 l 1.435,-0.4025 q 0.14,1.0325 0.875,1.75 0.735,0.7 1.7675,0.7 1.085,0 1.89,-0.735 0.8225,-0.7525 0.8225,-1.8375 0,-0.4375 -0.1575,-0.805 -0.14,-0.385 -0.3325,-0.6125 -0.175,-0.2275 -0.5775,-0.49 -0.4025,-0.2625 -0.63,-0.3675 -0.2275,-0.1225 -0.735,-0.35 l -0.805,-0.35 q -1.4,-0.63 -2.135,-1.365 -0.735,-0.735 -0.735,-2.0125 0,-1.4875 1.085,-2.415 1.085,-0.945 2.6075,-0.945 1.1025,0 1.995,0.5425 0.8925,0.525 1.4175,1.505 z"
             style="font-style:normal;font-variant:normal;font-weight:normal;font-stretch:normal;font-size:17.5px;font-family:'Futura LT';-inkscape-font-specification:'Futura LT'"
             id="path7476" />
          <path
             inkscape:connector-curvature="0"
             d="m 144.3351,790.18128 -6.4575,0 q 0.0175,1.155 0.77,1.96 0.7525,0.7875 1.925,0.7875 1.5575,0 2.5025,-1.6975 l 1.19,0.6825 q -1.2425,2.31 -3.7975,2.31 -1.8025,0 -2.9225,-1.2075 -1.1025,-1.225 -1.1025,-3.0275 0,-1.9075 1.0675,-3.1675 1.0675,-1.2775 2.9225,-1.2775 1.9075,0 2.9575,1.365 1.05,1.3475 0.945,3.2725 z m -6.3875,-1.19 4.9175,0 q -0.14,-0.91 -0.8225,-1.5225 -0.6825,-0.63 -1.5925,-0.63 -0.91,0 -1.645,0.63 -0.735,0.63 -0.8575,1.5225 z"
             style="font-style:normal;font-variant:normal;font-weight:normal;font-stretch:normal;font-size:17.5px;font-family:'Futura LT';-inkscape-font-specification:'Futura LT'"
             id="path7478" />
          <path
             inkscape:connector-curvature="0"
             d="m 152.3769,786.36628 0,1.855 -0.035,0 q -1.085,-1.3825 -2.555,-1.3825 -1.2425,0 -2.0825,0.8925 -0.8225,0.8925 -0.8225,2.1525 0,1.26 0.7875,2.1525 0.7875,0.8925 2.0475,0.8925 1.5925,0 2.6775,-1.4175 l 0.035,0 0,1.8725 q -1.2425,0.84 -2.6075,0.84 -1.8725,0 -3.1325,-1.2425 -1.2425,-1.2425 -1.2425,-3.0975 0,-1.82 1.2775,-3.08 1.295,-1.26 3.115,-1.26 1.3825,0 2.5375,0.8225 z m -1.7675,8.5575 -1.995,2.555 -0.98,-0.49 1.68,-2.59 1.295,0.525 z"
             style="font-style:normal;font-variant:normal;font-weight:normal;font-stretch:normal;font-size:17.5px;font-family:'Futura LT';-inkscape-font-specification:'Futura LT'"
             id="path7480" />
          <path
             inkscape:connector-curvature="0"
             d="m 158.02174,786.83878 q -1.1725,0 -1.925,0.875 -0.7525,0.875 -0.7525,2.0825 0,1.2775 0.7175,2.205 0.735,0.9275 1.9775,0.9275 1.295,0 2.0125,-0.8925 0.735,-0.91 0.735,-2.2225 0,-1.2775 -0.7525,-2.1175 -0.7525,-0.8575 -2.0125,-0.8575 z m 4.095,-1.0675 0,8.225 -1.4,0 0,-1.1375 -0.035,0 q -1.0675,1.365 -2.835,1.365 -1.75,0 -2.8525,-1.2775 -1.085,-1.2775 -1.085,-3.045 0,-1.82 1.085,-3.08 1.085,-1.2775 2.87,-1.2775 1.7325,0 2.8175,1.4 l 0.035,0 0,-1.1725 1.4,0 z m -5.985,-2.065 -0.8575,-0.6825 q 0.7875,-1.3825 1.785,-1.3825 0.6125,0 1.4175,0.4025 0.91,0.4025 1.12,0.4025 0.525,0 0.98,-0.84 l 0.8225,0.665 q -0.245,0.6125 -0.7525,1.015 -0.49,0.4025 -1.1025,0.4025 -0.4725,0 -1.3125,-0.4025 -0.875,-0.385 -1.225,-0.385 -0.3325,0 -0.525,0.21 -0.175,0.21 -0.35,0.595 z"
             style="font-style:normal;font-variant:normal;font-weight:normal;font-stretch:normal;font-size:17.5px;font-family:'Futura LT';-inkscape-font-specification:'Futura LT'"
             id="path7482" />
          <path
             inkscape:connector-curvature="0"
             d="m 171.34225,792.96378 q -1.26,1.26 -3.0625,1.26 -1.8025,0 -3.0625,-1.26 -1.26,-1.26 -1.26,-3.0625 0,-1.82 1.26,-3.08 1.26,-1.2775 3.0625,-1.2775 1.8025,0 3.0625,1.2775 1.26,1.26 1.26,3.08 0,1.8025 -1.26,3.0625 z m -0.9625,-5.2325 q -0.8225,-0.8925 -2.1,-0.8925 -1.2775,0 -2.1,0.8925 -0.8225,0.875 -0.8225,2.1525 0,1.2775 0.8225,2.17 0.8225,0.875 2.1,0.875 1.2775,0 2.1,-0.875 0.8225,-0.8925 0.8225,-2.17 0,-1.2775 -0.8225,-2.1525 z"
             style="font-style:normal;font-variant:normal;font-weight:normal;font-stretch:normal;font-size:17.5px;font-family:'Futura LT';-inkscape-font-specification:'Futura LT'"
             id="path7484" />
          <path
             inkscape:connector-curvature="0"
             d="m 183.34889,786.83878 q -1.1725,0 -1.925,0.875 -0.7525,0.875 -0.7525,2.0825 0,1.2775 0.7175,2.205 0.735,0.9275 1.9775,0.9275 1.295,0 2.0125,-0.8925 0.735,-0.91 0.735,-2.2225 0,-1.2775 -0.7525,-2.1175 -0.7525,-0.8575 -2.0125,-0.8575 z m 2.695,7.1575 0,-1.1375 -0.035,0 q -1.05,1.365 -2.835,1.365 -1.75,0 -2.8525,-1.2775 -1.085,-1.2775 -1.085,-3.045 0,-1.82 1.085,-3.08 1.085,-1.2775 2.87,-1.2775 1.75,0 2.8175,1.4 l 0.035,0 0,-7.385 1.4,0 0,14.4375 -1.4,0 z"
             style="font-style:normal;font-variant:normal;font-weight:normal;font-stretch:normal;font-size:17.5px;font-family:'Futura LT';-inkscape-font-specification:'Futura LT'"
             id="path7486" />
          <path
             inkscape:connector-curvature="0"
             d="m 197.1769,790.18128 -6.4575,0 q 0.0175,1.155 0.77,1.96 0.7525,0.7875 1.925,0.7875 1.5575,0 2.5025,-1.6975 l 1.19,0.6825 q -1.2425,2.31 -3.7975,2.31 -1.8025,0 -2.9225,-1.2075 -1.1025,-1.225 -1.1025,-3.0275 0,-1.9075 1.0675,-3.1675 1.0675,-1.2775 2.9225,-1.2775 1.9075,0 2.9575,1.365 1.05,1.3475 0.945,3.2725 z m -6.3875,-1.19 4.9175,0 q -0.14,-0.91 -0.8225,-1.5225 -0.6825,-0.63 -1.5925,-0.63 -0.91,0 -1.645,0.63 -0.735,0.63 -0.8575,1.5225 z"
             style="font-style:normal;font-variant:normal;font-weight:normal;font-stretch:normal;font-size:17.5px;font-family:'Futura LT';-inkscape-font-specification:'Futura LT'"
             id="path7488" />
          <path
             inkscape:connector-curvature="0"
             d="m 205.85909,782.58628 q 2.03,-2.0125 4.865,-2.0125 2.835,0 4.8475,2.0125 2.03,1.995 2.03,4.83 0,2.835 -2.03,4.83 -2.0125,1.9775 -4.8475,1.9775 -2.835,0 -4.865,-1.9775 -2.0125,-1.995 -2.0125,-4.83 0,-2.835 2.0125,-4.83 z m 8.6975,0.9625 q -1.575,-1.61 -3.8325,-1.61 -2.2575,0 -3.8325,1.61 -1.575,1.5925 -1.575,3.85 0,2.24 1.575,3.85 1.5925,1.61 3.8325,1.61 2.24,0 3.815,-1.61 1.5925,-1.61 1.5925,-3.85 0,-2.2575 -1.575,-3.85 z"
             style="font-style:normal;font-variant:normal;font-weight:normal;font-stretch:normal;font-size:17.5px;font-family:'Futura LT';-inkscape-font-specification:'Futura LT'"
             id="path7490" />
          <path
             inkscape:connector-curvature="0"
             d="m 220.98483,785.77128 0,0.9975 0.035,0 q 0.8925,-1.225 2.345,-1.225 1.575,0 2.1875,0.9625 0.6125,0.9625 0.6125,2.6075 l 0,4.8825 -1.4,0 0,-4.6375 q 0,-0.595 -0.0525,-0.9625 -0.035,-0.385 -0.1925,-0.77 -0.1575,-0.4025 -0.5425,-0.595 -0.3675,-0.1925 -0.945,-0.1925 -0.56,0 -0.9625,0.21 -0.385,0.21 -0.595,0.5075 -0.21,0.2975 -0.3325,0.77 -0.105,0.4725 -0.14,0.8575 -0.0175,0.3675 -0.0175,0.91 l 0,3.9025 -1.4,0 0,-8.225 1.4,0 z"
             style="font-style:normal;font-variant:normal;font-weight:normal;font-stretch:normal;font-size:17.5px;font-family:'Futura LT';-inkscape-font-specification:'Futura LT'"
             id="path7492" />
          <path
             inkscape:connector-curvature="0"
             d="m 232.22585,786.83878 q -1.1725,0 -1.925,0.875 -0.7525,0.875 -0.7525,2.0825 0,1.2775 0.7175,2.205 0.735,0.9275 1.9775,0.9275 1.295,0 2.0125,-0.8925 0.735,-0.91 0.735,-2.2225 0,-1.2775 -0.7525,-2.1175 -0.7525,-0.8575 -2.0125,-0.8575 z m 2.695,7.1575 0,-1.1375 -0.035,0 q -1.05,1.365 -2.835,1.365 -1.75,0 -2.8525,-1.2775 -1.085,-1.2775 -1.085,-3.045 0,-1.82 1.085,-3.08 1.085,-1.2775 2.87,-1.2775 1.75,0 2.8175,1.4 l 0.035,0 0,-7.385 1.4,0 0,14.4375 -1.4,0 z"
             style="font-style:normal;font-variant:normal;font-weight:normal;font-stretch:normal;font-size:17.5px;font-family:'Futura LT';-inkscape-font-specification:'Futura LT'"
             id="path7494" />
          <path
             inkscape:connector-curvature="0"
             d="m 242.30885,786.83878 q -1.1725,0 -1.925,0.875 -0.7525,0.875 -0.7525,2.0825 0,1.2775 0.7175,2.205 0.735,0.9275 1.9775,0.9275 1.295,0 2.0125,-0.8925 0.735,-0.91 0.735,-2.2225 0,-1.2775 -0.7525,-2.1175 -0.7525,-0.8575 -2.0125,-0.8575 z m 4.095,-1.0675 0,8.225 -1.4,0 0,-1.1375 -0.035,0 q -1.0675,1.365 -2.835,1.365 -1.75,0 -2.8525,-1.2775 -1.085,-1.2775 -1.085,-3.045 0,-1.82 1.085,-3.08 1.085,-1.2775 2.87,-1.2775 1.7325,0 2.8175,1.4 l 0.035,0 0,-1.1725 1.4,0 z"
             style="font-style:normal;font-variant:normal;font-weight:normal;font-stretch:normal;font-size:17.5px;font-family:'Futura LT';-inkscape-font-specification:'Futura LT'"
             id="path7496" />
        </g>
        <g
           style="font-style:normal;font-weight:normal;font-size:40px;line-height:125%;font-family:sans-serif;letter-spacing:0px;word-spacing:0px;fill:#000000;fill-opacity:1;stroke:none;stroke-width:1px;stroke-linecap:butt;stroke-linejoin:miter;stroke-opacity:1"
           id="text15632">
          <path
             inkscape:connector-curvature="0"
             d="m 118.38091,800.75132 0.8875,0.425 q -1,2.65 -1,6 0,3.35 1,6 l -0.8875,0.425 q -1.1375,-2.425 -1.1375,-6.425 0,-4 1.1375,-6.425 z"
             style="font-style:normal;font-variant:normal;font-weight:normal;font-stretch:normal;font-size:12.5px;font-family:'Futura LT';-inkscape-font-specification:'Futura LT'"
             id="path7499" />
          <path
             inkscape:connector-curvature="0"
             d="m 125.36978,809.86382 q -0.9,0.9 -2.1875,0.9 -1.2875,0 -2.1875,-0.9 -0.9,-0.9 -0.9,-2.1875 0,-1.3 0.9,-2.2 0.9,-0.9125 2.1875,-0.9125 1.2875,0 2.1875,0.9125 0.9,0.9 0.9,2.2 0,1.2875 -0.9,2.1875 z m -0.6875,-3.7375 q -0.5875,-0.6375 -1.5,-0.6375 -0.9125,0 -1.5,0.6375 -0.5875,0.625 -0.5875,1.5375 0,0.9125 0.5875,1.55 0.5875,0.625 1.5,0.625 0.9125,0 1.5,-0.625 0.5875,-0.6375 0.5875,-1.55 0,-0.9125 -0.5875,-1.5375 z"
             style="font-style:normal;font-variant:normal;font-weight:normal;font-stretch:normal;font-size:12.5px;font-family:'Futura LT';-inkscape-font-specification:'Futura LT'"
             id="path7501" />
          <path
             inkscape:connector-curvature="0"
             d="m 128.65103,804.72632 0,0.7125 0.025,0 q 0.6375,-0.875 1.675,-0.875 1.125,0 1.5625,0.6875 0.4375,0.6875 0.4375,1.8625 l 0,3.4875 -1,0 0,-3.3125 q 0,-0.425 -0.0375,-0.6875 -0.025,-0.275 -0.1375,-0.55 -0.1125,-0.2875 -0.3875,-0.425 -0.2625,-0.1375 -0.675,-0.1375 -0.4,0 -0.6875,0.15 -0.275,0.15 -0.425,0.3625 -0.15,0.2125 -0.2375,0.55 -0.075,0.3375 -0.1,0.6125 -0.0125,0.2625 -0.0125,0.65 l 0,2.7875 -1,0 0,-5.875 1,0 z"
             style="font-style:normal;font-variant:normal;font-weight:normal;font-stretch:normal;font-size:12.5px;font-family:'Futura LT';-inkscape-font-specification:'Futura LT'"
             id="path7503" />
          <path
             inkscape:connector-curvature="0"
             d="m 136.68032,805.48882 q -0.8375,0 -1.375,0.625 -0.5375,0.625 -0.5375,1.4875 0,0.9125 0.5125,1.575 0.525,0.6625 1.4125,0.6625 0.925,0 1.4375,-0.6375 0.525,-0.65 0.525,-1.5875 0,-0.9125 -0.5375,-1.5125 -0.5375,-0.6125 -1.4375,-0.6125 z m 1.925,5.1125 0,-0.8125 -0.025,0 q -0.75,0.975 -2.025,0.975 -1.25,0 -2.0375,-0.9125 -0.775,-0.9125 -0.775,-2.175 0,-1.3 0.775,-2.2 0.775,-0.9125 2.05,-0.9125 1.25,0 2.0125,1 l 0.025,0 0,-5.275 1,0 0,10.3125 -1,0 z"
             style="font-style:normal;font-variant:normal;font-weight:normal;font-stretch:normal;font-size:12.5px;font-family:'Futura LT';-inkscape-font-specification:'Futura LT'"
             id="path7505" />
          <path
             inkscape:connector-curvature="0"
             d="m 143.88247,805.48882 q -0.8375,0 -1.375,0.625 -0.5375,0.625 -0.5375,1.4875 0,0.9125 0.5125,1.575 0.525,0.6625 1.4125,0.6625 0.925,0 1.4375,-0.6375 0.525,-0.65 0.525,-1.5875 0,-0.9125 -0.5375,-1.5125 -0.5375,-0.6125 -1.4375,-0.6125 z m 2.925,-0.7625 0,5.875 -1,0 0,-0.8125 -0.025,0 q -0.7625,0.975 -2.025,0.975 -1.25,0 -2.0375,-0.9125 -0.775,-0.9125 -0.775,-2.175 0,-1.3 0.775,-2.2 0.775,-0.9125 2.05,-0.9125 1.2375,0 2.0125,1 l 0.025,0 0,-0.8375 1,0 z"
             style="font-style:normal;font-variant:normal;font-weight:normal;font-stretch:normal;font-size:12.5px;font-family:'Futura LT';-inkscape-font-specification:'Futura LT'"
             id="path7507" />
          <path
             inkscape:connector-curvature="0"
             d="m 149.58462,809.22632 0.925,0.325 -1.4125,3.2 -0.675,-0.275 1.1625,-3.25 z"
             style="font-style:normal;font-variant:normal;font-weight:normal;font-stretch:normal;font-size:12.5px;font-family:'Futura LT';-inkscape-font-specification:'Futura LT'"
             id="path7509" />
          <path
             inkscape:connector-curvature="0"
             d="m 157.41196,805.65132 0,4.95 -1,0 0,-4.95 -0.6125,0 0,-0.925 0.6125,0 0,-2.1125 1,0 0,2.1125 1.05,0 0,0.925 -1.05,0 z"
             style="font-style:normal;font-variant:normal;font-weight:normal;font-stretch:normal;font-size:12.5px;font-family:'Futura LT';-inkscape-font-specification:'Futura LT'"
             id="path7511" />
          <path
             inkscape:connector-curvature="0"
             d="m 164.47739,807.87632 -4.6125,0 q 0.0125,0.825 0.55,1.4 0.5375,0.5625 1.375,0.5625 1.1125,0 1.7875,-1.2125 l 0.85,0.4875 q -0.8875,1.65 -2.7125,1.65 -1.2875,0 -2.0875,-0.8625 -0.7875,-0.875 -0.7875,-2.1625 0,-1.3625 0.7625,-2.2625 0.7625,-0.9125 2.0875,-0.9125 1.3625,0 2.1125,0.975 0.75,0.9625 0.675,2.3375 z m -4.5625,-0.85 3.5125,0 q -0.1,-0.65 -0.5875,-1.0875 -0.4875,-0.45 -1.1375,-0.45 -0.65,0 -1.175,0.45 -0.525,0.45 -0.6125,1.0875 z"
             style="font-style:normal;font-variant:normal;font-weight:normal;font-stretch:normal;font-size:12.5px;font-family:'Futura LT';-inkscape-font-specification:'Futura LT'"
             id="path7513" />
          <path
             inkscape:connector-curvature="0"
             d="m 166.85903,804.72632 0,0.6375 0.025,0 q 0.5125,-0.8 1.4125,-0.8 0.525,0 0.95,0.2625 0.4375,0.2625 0.675,0.7125 0.25,-0.475 0.725,-0.725 0.4875,-0.25 1.0375,-0.25 1.875,0 1.875,2.4625 l 0,3.575 -1,0 0,-3.4125 q 0,-0.3625 -0.025,-0.6 -0.025,-0.2375 -0.125,-0.525 -0.1,-0.2875 -0.3375,-0.425 -0.225,-0.15 -0.5875,-0.15 -0.4125,0 -0.6875,0.175 -0.2625,0.175 -0.3875,0.5 -0.1125,0.325 -0.1625,0.625 -0.0375,0.3 -0.0375,0.7 l 0,3.1125 -1,0 0,-3.3375 q 0,-1.775 -1.05,-1.775 -0.4125,0 -0.7,0.1875 -0.275,0.1875 -0.4,0.525 -0.1125,0.3375 -0.1625,0.65 -0.0375,0.3125 -0.0375,0.7125 l 0,3.0375 -1,0 0,-5.875 1,0 z"
             style="font-style:normal;font-variant:normal;font-weight:normal;font-stretch:normal;font-size:12.5px;font-family:'Futura LT';-inkscape-font-specification:'Futura LT'"
             id="path7515" />
          <path
             inkscape:connector-curvature="0"
             d="m 178.26626,805.48882 q -0.8375,0 -1.375,0.625 -0.5375,0.625 -0.5375,1.4875 0,0.9125 0.5125,1.575 0.525,0.6625 1.4125,0.6625 0.925,0 1.4375,-0.6375 0.525,-0.65 0.525,-1.5875 0,-0.9125 -0.5375,-1.5125 -0.5375,-0.6125 -1.4375,-0.6125 z m -1.8625,-0.7625 0,0.8375 0.025,0 q 0.75,-1 2.025,-1 1.25,0 2.025,0.925 0.7875,0.9125 0.7875,2.1875 0,1.3 -0.775,2.2 -0.7625,0.8875 -2.05,0.8875 -1.275,0 -2.0125,-0.9875 l -0.025,0 0,4.125 -1,0 0,-9.175 1,0 z"
             style="font-style:normal;font-variant:normal;font-weight:normal;font-stretch:normal;font-size:12.5px;font-family:'Futura LT';-inkscape-font-specification:'Futura LT'"
             id="path7517" />
          <path
             inkscape:connector-curvature="0"
             d="m 187.40591,809.86382 q -0.9,0.9 -2.1875,0.9 -1.2875,0 -2.1875,-0.9 -0.9,-0.9 -0.9,-2.1875 0,-1.3 0.9,-2.2 0.9,-0.9125 2.1875,-0.9125 1.2875,0 2.1875,0.9125 0.9,0.9 0.9,2.2 0,1.2875 -0.9,2.1875 z m -0.6875,-3.7375 q -0.5875,-0.6375 -1.5,-0.6375 -0.9125,0 -1.5,0.6375 -0.5875,0.625 -0.5875,1.5375 0,0.9125 0.5875,1.55 0.5875,0.625 1.5,0.625 0.9125,0 1.5,-0.625 0.5875,-0.6375 0.5875,-1.55 0,-0.9125 -0.5875,-1.5375 z"
             style="font-style:normal;font-variant:normal;font-weight:normal;font-stretch:normal;font-size:12.5px;font-family:'Futura LT';-inkscape-font-specification:'Futura LT'"
             id="path7519" />
          <path
             inkscape:connector-curvature="0"
             d="m 190.62466,809.22632 0.925,0.325 -1.4125,3.2 -0.675,-0.275 1.1625,-3.25 z"
             style="font-style:normal;font-variant:normal;font-weight:normal;font-stretch:normal;font-size:12.5px;font-family:'Futura LT';-inkscape-font-specification:'Futura LT'"
             id="path7521" />
          <path
             inkscape:connector-curvature="0"
             d="m 200.6145,805.65132 -0.8375,0.4375 q -0.1125,-0.25 -0.325,-0.425 -0.2125,-0.175 -0.475,-0.175 -0.275,0 -0.5,0.1875 -0.225,0.1875 -0.225,0.4625 0,0.1125 0.025,0.2125 0.0375,0.0875 0.125,0.175 0.1,0.0875 0.1625,0.15 0.075,0.0625 0.2375,0.1375 0.1625,0.075 0.2375,0.1125 0.075,0.0375 0.2875,0.125 0.2125,0.0875 0.2875,0.1125 0.625,0.2625 0.9875,0.6375 0.375,0.375 0.375,1.05 0,0.825 -0.5875,1.375 -0.575,0.5375 -1.4,0.5375 -0.7375,0 -1.2875,-0.3875 -0.55,-0.4 -0.7875,-1.1 l 0.8875,-0.375 q 0.2125,0.4625 0.475,0.7 0.2625,0.2375 0.725,0.2375 0.4125,0 0.675,-0.25 0.275,-0.25 0.275,-0.65 0,-0.3625 -0.275,-0.6 -0.275,-0.2375 -0.6625,-0.3875 -0.3875,-0.1625 -0.775,-0.3375 -0.3875,-0.1875 -0.6625,-0.525 -0.275,-0.35 -0.275,-0.8625 0,-0.725 0.5125,-1.1875 0.5125,-0.475 1.2375,-0.475 0.5,0 0.925,0.3125 0.4375,0.3 0.6375,0.775 z"
             style="font-style:normal;font-variant:normal;font-weight:normal;font-stretch:normal;font-size:12.5px;font-family:'Futura LT';-inkscape-font-specification:'Futura LT'"
             id="path7523" />
          <path
             inkscape:connector-curvature="0"
             d="m 207.49497,807.87632 -4.6125,0 q 0.0125,0.825 0.55,1.4 0.5375,0.5625 1.375,0.5625 1.1125,0 1.7875,-1.2125 l 0.85,0.4875 q -0.8875,1.65 -2.7125,1.65 -1.2875,0 -2.0875,-0.8625 -0.7875,-0.875 -0.7875,-2.1625 0,-1.3625 0.7625,-2.2625 0.7625,-0.9125 2.0875,-0.9125 1.3625,0 2.1125,0.975 0.75,0.9625 0.675,2.3375 z m -4.5625,-0.85 3.5125,0 q -0.1,-0.65 -0.5875,-1.0875 -0.4875,-0.45 -1.1375,-0.45 -0.65,0 -1.175,0.45 -0.525,0.45 -0.6125,1.0875 z"
             style="font-style:normal;font-variant:normal;font-weight:normal;font-stretch:normal;font-size:12.5px;font-family:'Futura LT';-inkscape-font-specification:'Futura LT'"
             id="path7525" />
          <path
             inkscape:connector-curvature="0"
             d="m 209.87661,804.72632 0,0.7125 0.025,0 q 0.6375,-0.875 1.675,-0.875 1.125,0 1.5625,0.6875 0.4375,0.6875 0.4375,1.8625 l 0,3.4875 -1,0 0,-3.3125 q 0,-0.425 -0.0375,-0.6875 -0.025,-0.275 -0.1375,-0.55 -0.1125,-0.2875 -0.3875,-0.425 -0.2625,-0.1375 -0.675,-0.1375 -0.4,0 -0.6875,0.15 -0.275,0.15 -0.425,0.3625 -0.15,0.2125 -0.2375,0.55 -0.075,0.3375 -0.1,0.6125 -0.0125,0.2625 -0.0125,0.65 l 0,2.7875 -1,0 0,-5.875 1,0 z"
             style="font-style:normal;font-variant:normal;font-weight:normal;font-stretch:normal;font-size:12.5px;font-family:'Futura LT';-inkscape-font-specification:'Futura LT'"
             id="path7527" />
          <path
             inkscape:connector-curvature="0"
             d="m 216.51841,805.65132 0,4.95 -1,0 0,-4.95 -0.6125,0 0,-0.925 0.6125,0 0,-2.1125 1,0 0,2.1125 1.05,0 0,0.925 -1.05,0 z"
             style="font-style:normal;font-variant:normal;font-weight:normal;font-stretch:normal;font-size:12.5px;font-family:'Futura LT';-inkscape-font-specification:'Futura LT'"
             id="path7529" />
          <path
             inkscape:connector-curvature="0"
             d="m 219.65884,804.72632 0,5.875 -1,0 0,-5.875 1,0 z m -1,-2.7125 q 0.2125,-0.2125 0.5,-0.2125 0.2875,0 0.5,0.2125 0.2125,0.2125 0.2125,0.5 0,0.3 -0.2125,0.5125 -0.2125,0.2 -0.5,0.2 -0.2875,0 -0.5,-0.2 -0.2125,-0.2125 -0.2125,-0.5125 0,-0.2875 0.2125,-0.5 z"
             style="font-style:normal;font-variant:normal;font-weight:normal;font-stretch:normal;font-size:12.5px;font-family:'Futura LT';-inkscape-font-specification:'Futura LT'"
             id="path7531" />
          <path
             inkscape:connector-curvature="0"
             d="m 222.74282,804.72632 0,0.6375 0.025,0 q 0.5125,-0.8 1.4125,-0.8 0.525,0 0.95,0.2625 0.4375,0.2625 0.675,0.7125 0.25,-0.475 0.725,-0.725 0.4875,-0.25 1.0375,-0.25 1.875,0 1.875,2.4625 l 0,3.575 -1,0 0,-3.4125 q 0,-0.3625 -0.025,-0.6 -0.025,-0.2375 -0.125,-0.525 -0.1,-0.2875 -0.3375,-0.425 -0.225,-0.15 -0.5875,-0.15 -0.4125,0 -0.6875,0.175 -0.2625,0.175 -0.3875,0.5 -0.1125,0.325 -0.1625,0.625 -0.0375,0.3 -0.0375,0.7 l 0,3.1125 -1,0 0,-3.3375 q 0,-1.775 -1.05,-1.775 -0.4125,0 -0.7,0.1875 -0.275,0.1875 -0.4,0.525 -0.1125,0.3375 -0.1625,0.65 -0.0375,0.3125 -0.0375,0.7125 l 0,3.0375 -1,0 0,-5.875 1,0 z"
             style="font-style:normal;font-variant:normal;font-weight:normal;font-stretch:normal;font-size:12.5px;font-family:'Futura LT';-inkscape-font-specification:'Futura LT'"
             id="path7533" />
          <path
             inkscape:connector-curvature="0"
             d="m 236.45005,807.87632 -4.6125,0 q 0.0125,0.825 0.55,1.4 0.5375,0.5625 1.375,0.5625 1.1125,0 1.7875,-1.2125 l 0.85,0.4875 q -0.8875,1.65 -2.7125,1.65 -1.2875,0 -2.0875,-0.8625 -0.7875,-0.875 -0.7875,-2.1625 0,-1.3625 0.7625,-2.2625 0.7625,-0.9125 2.0875,-0.9125 1.3625,0 2.1125,0.975 0.75,0.9625 0.675,2.3375 z m -4.5625,-0.85 3.5125,0 q -0.1,-0.65 -0.5875,-1.0875 -0.4875,-0.45 -1.1375,-0.45 -0.65,0 -1.175,0.45 -0.525,0.45 -0.6125,1.0875 z"
             style="font-style:normal;font-variant:normal;font-weight:normal;font-stretch:normal;font-size:12.5px;font-family:'Futura LT';-inkscape-font-specification:'Futura LT'"
             id="path7535" />
          <path
             inkscape:connector-curvature="0"
             d="m 238.83169,804.72632 0,0.7125 0.025,0 q 0.6375,-0.875 1.675,-0.875 1.125,0 1.5625,0.6875 0.4375,0.6875 0.4375,1.8625 l 0,3.4875 -1,0 0,-3.3125 q 0,-0.425 -0.0375,-0.6875 -0.025,-0.275 -0.1375,-0.55 -0.1125,-0.2875 -0.3875,-0.425 -0.2625,-0.1375 -0.675,-0.1375 -0.4,0 -0.6875,0.15 -0.275,0.15 -0.425,0.3625 -0.15,0.2125 -0.2375,0.55 -0.075,0.3375 -0.1,0.6125 -0.0125,0.2625 -0.0125,0.65 l 0,2.7875 -1,0 0,-5.875 1,0 z"
             style="font-style:normal;font-variant:normal;font-weight:normal;font-stretch:normal;font-size:12.5px;font-family:'Futura LT';-inkscape-font-specification:'Futura LT'"
             id="path7537" />
          <path
             inkscape:connector-curvature="0"
             d="m 245.47349,805.65132 0,4.95 -1,0 0,-4.95 -0.6125,0 0,-0.925 0.6125,0 0,-2.1125 1,0 0,2.1125 1.05,0 0,0.925 -1.05,0 z"
             style="font-style:normal;font-variant:normal;font-weight:normal;font-stretch:normal;font-size:12.5px;font-family:'Futura LT';-inkscape-font-specification:'Futura LT'"
             id="path7539" />
          <path
             inkscape:connector-curvature="0"
             d="m 252.17642,809.86382 q -0.9,0.9 -2.1875,0.9 -1.2875,0 -2.1875,-0.9 -0.9,-0.9 -0.9,-2.1875 0,-1.3 0.9,-2.2 0.9,-0.9125 2.1875,-0.9125 1.2875,0 2.1875,0.9125 0.9,0.9 0.9,2.2 0,1.2875 -0.9,2.1875 z m -0.6875,-3.7375 q -0.5875,-0.6375 -1.5,-0.6375 -0.9125,0 -1.5,0.6375 -0.5875,0.625 -0.5875,1.5375 0,0.9125 0.5875,1.55 0.5875,0.625 1.5,0.625 0.9125,0 1.5,-0.625 0.5875,-0.6375 0.5875,-1.55 0,-0.9125 -0.5875,-1.5375 z"
             style="font-style:normal;font-variant:normal;font-weight:normal;font-stretch:normal;font-size:12.5px;font-family:'Futura LT';-inkscape-font-specification:'Futura LT'"
             id="path7541" />
          <path
             inkscape:connector-curvature="0"
             d="m 253.90767,801.17632 0.8875,-0.425 q 1.1375,2.425 1.1375,6.425 0,4 -1.1375,6.425 l -0.8875,-0.425 q 1,-2.65 1,-6 0,-3.35 -1,-6 z"
             style="font-style:normal;font-variant:normal;font-weight:normal;font-stretch:normal;font-size:12.5px;font-family:'Futura LT';-inkscape-font-specification:'Futura LT'"
             id="path7543" />
        </g>
      </g>
    </g>
  </g>
</svg>
