<svg xmlns:rdf="http://www.w3.org/1999/02/22-rdf-syntax-ns#" xmlns="http://www.w3.org/2000/svg" height="25" width="25" version="1.1" xmlns:cc="http://creativecommons.org/ns#" xmlns:dc="http://purl.org/dc/elements/1.1/" viewBox="0 0 24.999999 24.999999">
<g transform="translate(-342.01 -496.52)">
<path d="m364.6 500.06q0 0.11812-0.161 0.30068-0.16099 0.18256-0.27905 0.18256-0.0859 0-0.31126-0.23625-0.0859 0.10738-0.17173 0.22551-0.0859 0.10738-0.22539 0.10738-0.0322 0-0.0859-0.0107-0.0537-0.0215-0.0859-0.0215t-0.24686 0.2792l0.56885 0.35438q0.22539-0.13961 0.30052-0.13961 0 0 0.49372 0.31142v0.41881q-0.39712 0.30068-0.68691 0.30068-0.13953 0-0.39712-0.23624-0.0107-0.22552-0.0215-0.36512-0.17173-0.16108-0.47225-0.39733-0.16099 0.11812-0.38639 0.41881 0.2576 0.25773 0.39713 0.31142 0.10732 0.0107 0.33271 0.0537 0.44006 0.16108 0.44006 0.60137 0 0.10738-0.1288 0.24699-0.12879 0.1396-0.22539 0.1396-0.45079 0-0.72984-0.41881 0.0537-0.1933 0.0537-0.24698 0-0.10739-0.38639-0.47251-0.2576 0.31142-0.65472 0.68727-0.0751 0.0107-0.22539 0.0537-1.4812 1.5786-3.3272 3.533 0.80497 0.93427 0.80497 2.2981 0 1.2564-0.54738 1.8793-0.23613 0.25772-1.5992 1.1383-0.24686 0.16108-0.39712 0.69801-0.1288 0.46176-0.35419 0.46176-0.21466 0-0.42932-0.22551-0.20393-0.23625-0.36492-0.23625-0.21466 0-0.74057 0.56915-0.52592 0.56915-0.59032 0.81613-0.0322 0.11813-0.0322 0.31143 0 0.17182 0.34346 0.48323 0.35418 0.30069 0.35418 0.57989 0 0.22551-0.17173 0.31142-0.17172 0.0859-0.34345 0.16108-0.23613 0.12886-0.59031 0.76244-0.46153 0.8054-0.77278 1.1705-0.60105 0.67654-1.4597 0.97722-0.49372 0.17182-1.2665 0.17182-0.64397 0-1.9641-0.82687-0.20392 0.23625-0.42932 0.23625h-0.161q-0.36491-0.32216-0.91229-0.76245-0.23613-0.10739-0.53666-0.38659-0.0107-0.0752-0.0536-0.22551-0.28979-0.26847-0.74058-0.77318-0.76204-1.0953-0.76204-3.0927 0-0.36512 0.39712-1.1383 0.35419-0.69801 1.4919-1.1598 1.2021-0.50472 1.3738-0.74097 0.18246-0.23625 0.322-0.77318 0.0429 0 0.15026-0.0107 0.10733-0.0215 0.16099-0.0215 0.28979 0 0.48298 0.27921 0.1932 0.2792 0.40786 0.2792 0.47225 0 1.0304-0.50472 0.55812-0.50471 0.55812-0.97721 0-0.0429-0.1932-0.35437-0.0107-0.0859-0.0107-0.27921 0-0.21477 0.2254-0.26846 0.18246-0.0537 0.37565-0.10739 0.16099-0.0966 0.46152-0.61211 0.36492-0.62283 0.44005-0.70874 1.0089-1.2457 2.2861-1.2457 0.82644 0 1.3631 0.21478 0.48299 0.19329 1.1484 0.7517 1.2772-1.0309 3.7458-3.1894 0.13953-0.20404 0.46152-0.57989-0.45079-0.38659-0.71911-0.38659-0.161 0-0.37566-0.23625-0.20393-0.23625-0.20393-0.39733 0-0.0322 0.38639-0.45102 0.0215-0.0107 0.0644-0.0107 0.67618 0 0.67618 0.6121 0 0.1396 0.38638 0.6121 0.2254-0.18255 0.64399-0.6121-0.13953-0.22551-0.45079-0.37585 0 0-0.18246 0-0.20393 0-0.39712-0.22551-0.1932-0.22551-0.1932-0.42955 0-0.0859 0.15027-0.21477 0.15026-0.12886 0.23612-0.12886 0 0 0.22539 0 0.1932 0 0.49372 0.31142-0.0215 0.0537-0.0215 0.1396 0 0.37585 0.36492 0.67653 0.18246-0.12886 0.36492-0.36511-0.0107-0.15034 0.27906-0.41881-0.0322-0.0752-0.16099-0.15034v-0.25773q0.40785-0.31142 0.49372-0.31142 0.18246 0 0.48298 0.23625 0.30052-0.23625 0.38639-0.23625 0.0215 0 0.61178 0.44028 0.0107 0.043 0.0107 0.12887 0 0.22552-0.1932 0.35438 0.30052 0.26846 0.30052 0.36511zm0.16099 7.1519q0 0.11813-0.39712 0.55841-0.39712 0.42954-0.54738 0.51545-0.0215 0.0107-0.13953 0.0107-0.0644 0-0.11806 0.0322-0.0966 0.0537-0.89083 0.83761 0 0-1.9641 1.8363l-5.7207 5.3478q-0.82643 0.82688-1.6421 1.643-1.0626 1.0094-1.8675 1.2779-0.0751-0.0644-0.0751-0.17182 0-0.0752 0.0859-0.15034 0 0 0-0.34364 0-0.2255 0.0215-0.28994 0.0107-0.0322 1.5885-1.3745 5.6455-4.8109 11.28-11.576l0.38639 0.10739v0.31142l-0.49372 0.82688q0.49372 0.49397 0.49372 0.60136zm-0.36492-7.1197-0.21466-0.21477q-0.0966 0.0859-0.24686 0.28995 0.25759 0.1396 0.24686 0.1396 0.10734 0 0.21466-0.21478zm-0.30052-0.74096q-0.0966-0.0859-0.31126-0.24699l-0.9445 0.7517q0.161 0.16108 0.51519 0.41881 0.49371-0.55841 0.74057-0.92352zm-0.96597-0.22552q-0.15026-0.15033-0.18246-0.15033-0.20392 0-0.21466 0.22551 0.0537 0.0644 0.16099 0.1396 0.0751-0.0752 0.23613-0.21478zm-0.22539 1.396q-0.1932-0.1933-0.32199-0.27921l-1.4812 1.4819q0.16099 0.21477 0.35419 0.34363l1.449-1.5464zm0.22539 7.7211-0.31126-0.27921q-3.5204 4.0807-8.8869 8.7627-0.51518 0.42955-1.0196 0.84835-0.78351 0.68728-0.78351 0.91279 0 0.0537 0.0107 0.21477l10.991-10.459zm-10.304 2.0618-0.18246-0.11813-1.245 1.2457 0.0751 0.0859q0.47225-0.39733 1.3524-1.2135zm0.26832 0.26847q0-0.0322-0.0859-0.11813l-1.3094 1.2457q0.0537 0.0752 0.15027 0.15035l1.245-1.2779zm3.1555-4.9935q-0.66544-0.50472-1.6743-0.68727-0.35419-0.0644-0.40785-0.0644-0.84791 0-1.6314 1.0416-0.31126 0.48324-0.93377 1.149-0.13953 0.0752-0.47226 0.15035 0.24686 0.4188 0.24686 0.53693 0 0.85909-0.75131 1.5571-0.74057 0.68727-1.6099 0.68727-0.38639 0-0.76204-0.55841-0.161 0.8054-1.0089 1.1598-1.2558 0.5262-1.449 0.68728-0.15027 0.1933-0.45079 0.56915 0.32199 0.0752 0.94451 0.28994 1.5026 0.71949 1.5026 2.0618 0 0.11813-0.0107 0.24699 0.67618-1.0953 1.3524-2.0833 0.0215-0.0107 0.0644-0.0107t0.11806 0.0215q0.0751 0.0107 0.11807 0.0107 0.13952 0 1.0304-1.0739-0.0966-0.0752-0.12879-0.16108 0.11806-0.18256 0.27905-0.28994l0.23613 0.16107q0.39712-0.34363 0.79424-0.68727 0.55812-0.51546 0.55812-0.77318 0-0.0966 0.0322-0.15034 0.0429-0.0537 1.1914-1.1276 0.9445-0.88057 2.8228-2.6632zm-3.8209 4.4243q-0.0859-0.0859-0.16099-0.0859l-1.1699 1.2564q0.0429 0.0215 0.11806 0.0752l1.2128-1.2457zm5.5812-1.8578q0-0.84835-0.57958-1.5464-1.0411 1.0739-3.0911 3.2323-0.75131 0.81614-0.86937 0.81614-0.0966 0-0.1288-0.0322l-1.3094 1.396q0.12879 0.1396 0.12879 0.22551 0 0.12887-0.27906 0.31143l-0.17172-0.12887q-0.38639 0.32216-1.1377 0.97722 0.0644 0.10738 0.0644 0.21477 0 0.0107-0.0107 0.0752-0.83717 0.60136-2.5115 1.8363-0.22538 0.17181-0.67618 0.49397 0.40786 0.61211 1.1055 1.0202 0.74058 0.44029 1.4382 0.44029 1.0518 0 1.7173-0.59063 0.26832-0.23625 0.9445-1.2135 0.52591-0.76245 1.084-0.9987-0.80498-0.34364-0.80498-0.85909 0-0.64432 0.74058-1.5356 0.74057-0.89131 1.3738-0.89131 0.49372 0 0.72984 0.42955 0.10734-0.32216 0.45079-0.90205 0.57958-0.38659 1.5134-1.3745 0.27905-0.47251 0.27905-1.396zm-6.4827 4.1236q-0.0859-0.0859-0.21467-0.15034l-0.97669 0.97721 0.0751 0.11813q0.40785-0.30068 1.1162-0.945zm-0.72985-0.63358q-0.11806-0.12886-0.19319-0.15034l-0.90157 1.0094 0.0859 0.0537q0.33273-0.30069 1.0089-0.91279zm0.33272 0.30068q-0.0429-0.0859-0.15025-0.18256l-1.0518 0.97722q0.0859 0.0644 0.25759 0.21477 0.33272-0.32215 0.9445-1.0094zm0.49372-2.1477q0 0.46176-0.33272 0.46176-0.15026 0-0.19319-0.0859-0.0429-0.0859-0.0859-0.18256-0.16099 0.17182-0.51518 0.50472-0.86937 0.73022-1.61 0.73022-0.54738 0-0.54738-0.42954 0-0.50472 0.45079-0.50472 0.15026 0 0.27905 0.0429v0.36511q0.0644 0.0322 0.0859 0.0322 0.47225 0 1.0196-0.53693 0.23613-0.26846 0.47225-0.52619 0.30052-0.30068 0.61178-0.30068 0.36492 0 0.36492 0.42954zm1.8783 1.9652q0 0.15034-0.0215 0.24699-0.64398 0.73023-1.4919 1.7182 0 0 0.28979 0 0.17173 0 0.30052 0.0859 0.0215 0.17182 0.0751 0.39733-0.18245 0.17182-0.35418 0.17182-0.74058 0-0.74058-0.6121 0-0.36511 0.69764-1.0524 0.70838-0.69801 0.70838-0.77318-0.0107-0.0107-0.26832-0.16108v-0.32216q0.0966-0.1396 0.41858-0.1396 0.31126 0 0.37566 0.11813 0 0.0537 0 0.16108 0.0107 0.10738 0.0107 0.16107z"/>
</g>
</svg>
