<svg xmlns:rdf="http://www.w3.org/1999/02/22-rdf-syntax-ns#" xmlns="http://www.w3.org/2000/svg" height="25" width="25" version="1.1" xmlns:cc="http://creativecommons.org/ns#" xmlns:dc="http://purl.org/dc/elements/1.1/" viewBox="0 0 24.999999 24.999999">
<path d="m22.75 7.7253q0 0.57298-0.04245 0.84884-0.04245 0.27589-0.4032 0.94435-0.36077 0.66849-0.36077 0.73216 0 0.0955 0.04245 0.27588 0.05302 0.16976 0.05302 0.26527 0 0.21222-0.23343 0.38198-0.23343 0.15916-0.45626 0.15916-0.04245 0-0.12733-0.01056-0.08491-0.02132-0.12733-0.02132-0.04245 0-0.08491 0.01056-0.23343 0.25465-0.76395 0.6791-0.54115 0.2971-2.1858 0.84884-1.39 0.46687-2.1009 1.008-1.7932 1.3582-4.3079 3.8411-3.3742 3.3212-4.1488 4.0215-0.15916 0.13794-0.88068 0.5836-0.75338 0.45626-0.85945 0.45626-0.084918 0-0.4987-0.15916-0.4028-0.159-0.4771-0.212-0.0954-0.107-0.2971-0.287-0.1273-0.053-0.3713-0.18-0.1167-0.064-0.5306-0.488-0.4138-0.414-0.4774-0.542-0.0637-0.127-0.2016-0.371-0.0955-0.095-0.2759-0.297-0.0743-0.191-0.2335-0.573-0.1485-0.382-0.1485-0.403 0-0.12733 0.45626-0.87006 0.43503-0.68971 0.59421-0.87006 1.8887-1.9736 5.6343-5.9527 0.764-0.817 2.2283-2.4935 0.06369-0.074258 0.31832-0.68971 0.33954-0.82762 1.0292-2.4829 0.13794-0.39259 0.4987-1.1247 0.03188-0.053025 0.39259-0.41382 0.2971-0.31831 0.2971-0.4032 0-0.053116-0.02122-0.14855-0.01056-0.095496-0.01056-0.14855 0-0.23343 0.18037-0.45626 0.18039-0.23343 0.40321-0.23343 0.0955 0 0.26527 0.053116 0.16977 0.05303 0.26526 0.05303-0.10611 0 0.89129-0.51993 0.55176-0.28649 1.772-0.28649 0.41381 0 1.2309 0.23344 2.833 0.80639 3.7243 3.3424 0.05303 0.21221 0.15916 0.63665 0.191 0.64727 0.191 1.2627zm-1.263 10.006q0 0.764-0.44565 1.3264-0.44565 0.56237-1.1884 0.70032v-0.3926q1.0292-0.36076 1.0292-1.1035 0-0.63665-0.84884-0.98679-1.0399-0.42442-1.252-0.77456l-0.02122 4.3716q0 0.53054-0.73211 0.88068-0.60482 0.2971-1.199 0.2971-0.6791 0-1.2415-0.31832-0.65788-0.37138-0.65788-1.008 0-0.61543 0.65788-0.98679 0.56237-0.30772 1.2202-0.30772 0.7215 0 1.252 0.2971l0.04245-5.1886q0.25466 0.26527 0.817 0.7215 0.83823 0.44565 1.6871 0.9019 0.88068 0.57298 0.88068 1.5704zm-12.088-11.784q0 1.3051-1.1035 1.8462-0.31833 0.15916-0.4987 0.14855h-0.053025v-0.35015q1.0292-0.4139 1.0292-1.1354 0-0.626-0.817-0.9762-1.0292-0.4244-1.2626-0.7958l-0.021223 4.3186q0 0.095505-0.095496 0.2971-0.44564 0.94435-1.8462 0.94435-0.68971 0-1.2309-0.2971-0.64727-0.36076-0.64727-0.9974 0-0.62604 0.63665-1.008 0.55176-0.32893 1.2202-0.32893 0.61543 0 1.2733 0.30772l0.031883-5.1568q0.53054 0.53054 0.88068 0.75333 0.83823 0.42443 1.6765 0.84884 0.82762 0.53054 0.82762 1.581zm10.653-1.6977v-0.18038q-0.116-0.0849-0.36-0.2122v0.3926h0.36077zm0.65783 0.66849v-0.2865l-0.1061-0.1061h-0.28649v0.3926h0.39258zm0.60482 0.62604q-0.063-0.1167-0.212-0.3501h-0.11672v0.35015h0.32893zm-2.058-1.9736q-0.13795-0.053025-0.15916-0.053025l-0.06368 0.042447 0.22283 0.010564zm0.15916 0.6791v-0.35016l-0.3926-0.042447v0.39259h0.3926zm1.963 1.963v-0.35016l-0.3926-0.042447v0.39259h0.3926zm-1.3369-1.2945v-0.3926h-0.35016v0.3926h0.35016zm0.66844 0.62604v-0.35015h-0.39258v0.35015h0.39258zm-1.963-1.963v-0.14855q-0.116-0.0317-0.35-0.1061v0.25466h0.35015zm3.035 3.1939q-0.042-0.1167-0.127-0.2865v0.36076q0.07426-0.074253 0.12733-0.074253zm-3.6607-3.1938v-0.35015h-0.3926v0.35015h0.3926zm0.62604 0.66849v-0.3926h-0.35015v0.3926h0.35015zm2.6315 2.5996v-0.36076h-0.3926v0.36076h0.3926zm-1.963-1.9311v-0.3926h-0.3926v0.3926h0.3926zm0.62604 0.62604v-0.35015h-0.35016v0.35015h0.35016zm0.66844 0.66849v-0.39259h-0.39258v0.39259h0.39258zm1.1672 1.2945q-0.03-0.2228-0.03-0.3819h-0.191v0.38198h0.22282zm-3.7562-3.2575v-0.3926h-0.3926v0.3926h0.3926zm3.2575 3.2575v-0.38198h-0.3926v0.38198h0.3926zm-3.9259-3.926v-0.35015h-0.3926v0.35015h0.3926zm1.2945 1.337v-0.3926h-0.35015v0.3926h0.35015zm0.66849 0.62604v-0.35015h-0.3926v0.35015h0.3926zm0.62604 0.66849v-0.39259h-0.35016v0.39259h0.35016zm0.66844 0.63665v-0.36076h-0.39258v0.36076h0.39258zm1.199 1.3264v-0.35017l-0.25466-0.042447v0.39259h0.25466zm-5.125-4.5944v-0.35015h-0.35015v0.35015h0.35015zm0.66849 0.66849v-0.35016l-0.36077-0.042447-0.03188 0.39259h0.3926zm0.66844 0.66849v-0.3926h-0.3926v0.3926h0.3926zm0.62604 0.62604v-0.35015h-0.35015v0.35015h0.35015zm0.66849 0.66849v-0.35016l-0.3926-0.042447v0.39259h0.3926zm1.963 1.963v-0.35017l-0.3926-0.042447v0.39259h0.3926zm-1.3369-1.3264v-0.36076h-0.35016v0.36076h0.35016zm0.66844 0.65788v-0.38198h-0.39258v0.38198h0.39258zm1.1672 1.1247v-0.18038h-0.22282v0.36076h0.11672q0.111-0.2016 0.111-0.1804zm-5.7298-5.0507v-0.36076q-0.11672 0.053116-0.35016 0.18038v0.18038h0.35016zm0.63665 0.66849v-0.3926h-0.35015v0.3926h0.35015zm1.3369 1.2945v-0.35015h-0.3926v0.35015h0.3926zm0.62604 0.66849v-0.39259h-0.35015v0.39259h0.35015zm0.66849 0.63665v-0.36076h-0.3926v0.36076h0.3926zm0.62604 0.65788v-0.38198h-0.35016v0.38198h0.35016zm1.3369 1.3051v-0.36076h-0.3926v0.36076h0.3926zm-3.9259-3.8941v-0.3926h-0.3926v0.3926h0.3926zm3.2575 3.2575v-0.3926h-0.39258v0.3926h0.39258zm-4.552-3.926v-0.3926h-0.36077v0.3926h0.36077zm5.2205 5.1886v-0.35016h-0.3926v0.35016h0.3926zm-3.2575-3.2257v-0.39259h-0.3926v0.39259h0.3926zm0.62604 0.63665v-0.36076h-0.35015v0.36076h0.35015zm0.66849 0.65788v-0.38198h-0.3926v0.38198h0.3926zm-2.6315-2.589v-0.3926h-0.35015v0.3926h0.35015zm0.66849 0.62604v-0.35015h-0.3926v0.35015h0.3926zm2.589 2.6315v-0.3926h-0.35016v0.3926h0.35016zm0.66844 0.63665v-0.36076h-0.39258v0.36076h0.39258zm-5.181-5.2312q-0.02122-0.095496-0.05303-0.095496-0.06368 0.02132-0.16975 0.095496h0.22281zm5.8572 6.2923v-0.11672l-0.22283-0.031787q0.08492 0.084918 0.22283 0.14855zm-5.8572-5.7511v-0.22283l-0.22282-0.031787q0.04245 0.084913 0.22282 0.25465zm1.9311 1.963v-0.22283l-0.26528-0.031787q0.12734 0.18039 0.26528 0.25465zm0.65783 0.66849v-0.26526h-0.25465l0.25465 0.26526zm1.3051 1.3264v-0.25467l-0.26527-0.031787q0.06368 0.0955 0.26527 0.28649zm1.2945 1.2627v-0.25467h-0.2971q0.15917 0.15916 0.2971 0.25467zm-1.963-1.9311v-0.28649h-0.2971l0.2971 0.28649zm-2.5996-2.5572v-0.32893h-0.28649q0.09549 0.11671 0.28649 0.32893zm0.63665 0.59421v-0.25465h-0.29709q0.11671 0.084913 0.29709 0.25465zm3.2575 3.3v-0.29709h-0.28649l0.28649 0.29709zm1.3688 2.0266v-0.2865q-3.969-3.322-6.897-6.898h-0.28649v0.24404q0 0.27589 3.3211 3.6076 3.3317 3.3318 3.6183 3.3318h0.24405zm-0.96557 0.01056v-0.05303h-0.12733v0.05303h0.12733zm-4.2867-3.9366v-0.22283l-0.14855-0.13793h-0.21222v0.36076h0.36077zm2.589 2.589v-0.21221l-0.13794-0.13793h-0.21221v0.35015h0.35015zm-4.5626-4.5202v-0.29709q-0.06369 0.10611-0.22283 0.29709h0.22283zm1.3369 1.2945v-0.21221l-0.16978-0.18038h-0.22282l-0.03188 0.39259h0.42442zm1.2626 1.2945v-0.24405l-0.13795-0.13794h-0.2122v0.38199h0.35015zm1.3369 1.3051v-0.22283l-0.13794-0.13793h-0.25466v0.36076h0.39259zm1.2945 1.0823-0.16978-0.18038h-0.22283v0.42443h0.36077l0.03188-0.24405zm-1.963-1.719v-0.24404l-0.13794-0.14855h-0.22283l-0.03188 0.39259h0.3926zm2.5996 2.5996v-0.28649l-0.07425-0.07426h-0.28649v0.36076h0.36077zm-5.2311-5.2311v-0.24405l-0.10611-0.10611h-0.25466v0.35016h0.36076zm5.1993 5.507h-0.32894v0.22283q0.16978-0.10611 0.32894-0.22283zm-3.8623-3.544v-0.38199h-0.36077v0.38199h0.36077zm1.963 1.9311v-0.35015h-0.3926v0.35015h0.3926zm0.62604 0.70032v-0.42444h-0.35015v0.42444h0.35015zm-4.5626-4.5944v-0.35016h-0.35016v0.35016h0.35016zm1.3369 1.3051v-0.36076h-0.42443v0.36076h0.42443zm1.2626 1.3263v-0.39259h-0.35015v0.39259h0.35015zm-1.963-1.963v-0.39259h-0.36076v0.39259h0.36076zm2.6315 2.5996v-0.36076h-0.3926v0.36076h0.3926zm1.963 1.963v-0.36076h-0.3926v0.36076h0.3926zm-3.2575-2.5996v-0.39259h-0.36077v0.39259h0.36077zm1.963 1.963v-0.42444h-0.39259v0.42444h0.39259zm-3.9366-3.926v-0.39259h-0.35016v0.39259h0.35016zm1.3369 1.2945v-0.38199h-0.42443v0.38199h0.42443zm1.9311 1.9311v-0.35015h-0.3926v0.35015h0.3926zm1.963 1.9736v-0.36077h-0.3926v0.25465q0.20161 0.10612 0.25466 0.10612h0.13794zm-2.6315-2.5996v-0.36076h-0.35015v0.36076h0.35015zm1.963 1.963v-0.36076h-0.35015v0.36076h0.35015zm-3.9259-3.9259v-0.36076h-0.36076v0.36076h0.36076zm3.9259 4.3186v-0.11672h-0.19099q0.06369 0.05302 0.19099 0.11672zm-4.5626-4.4141v-0.26527h-0.191q0.06369 0.084918 0.191 0.26527zm3.9259 3.9578v-0.29709h-0.35015q0.1061 0.10611 0.35015 0.29709zm-1.9524-1.8993v-0.36076h-0.36077v0.25466l0.10611 0.10611h0.25466zm0.62604 0.62604v-0.35015h-0.36076v0.24404l0.1061 0.10611h0.25466zm-1.2626-1.2627v-0.35015l-0.38199-0.042447q-0.04245 0.042447-0.04245 0.095505 0 0.010563 0.20161 0.2971h0.22282zm1.9311 1.581-0.36077-0.042447-0.03188 0.19099 0.35015 0.23344 0.04245-0.38198zm-2.6315-2.2389v-0.3926h-0.36076q0.11672 0.14855 0.36076 0.3926zm3.9684 4.2549q-1.401-0.69-2.96-2.2388-1.486-1.4643-2.345-2.9074-0.08492-0.13793-0.27588-0.4032-0.18038 0.37138-0.18038 0.41382 0 0.053116 0.191 0.43504 0.13793 0.28649 0.45625 0.83823 0.44565 0.63665 1.6022 1.7932t1.8144 1.6234q0.9019 0.64727 1.2839 0.64727 0.05302 0 0.41381-0.20161zm-0.9974 0.35016q-0.41381-0.2016-1.2096-0.6791-0.308-0.233-1.921-1.878-0.382-0.3607-1.093-1.1459-0.191-0.2547-0.689-1.1991-0.138 0.5093-0.276 1.0187-0.159 0.5942-0.414 0.9761-0.424 0.6579-2.4616 2.9182-1.8356 1.963-5.4539 5.9102 1.2415 1.7932 2.7163 2.6845 1.9524-1.8356 5.889-5.4645 0.70032-0.63665 1.4112-1.2839 0.82762-0.73216 1.4961-1.1672 0.37137-0.24405 0.97618-0.41382 0.51992-0.13793 1.0292-0.27588zm-11.152 8.818q-1.2627-0.754-2.6103-2.579l-0.75338 1.1672q0.59421 0.79583 1.772 1.8569 0.38198 0.33954 0.42443 0.33954 0.10611 0 1.1672-0.78517zm7.1518-8.5945q0 0.24405-0.11672 0.42442-0.05303 0.08491-0.61543 0.63665l-1.5067 1.4855q-0.04245 0.01056-0.11672 0.01056-0.16977 0-0.70028-0.45626-0.51993-0.46687-0.59421-0.64727-0.04245-0.0955-0.04245-0.22283 0-0.11671 0.96557-1.1141 0.96557-1.008 1.1672-1.1247 0.2016-0.12733 0.43503-0.12733 0.2971 0 0.71094 0.42442 0.41381 0.41383 0.41381 0.71094zm-3.162 2.6527q0 0.25466-0.21222 0.46687-0.2016 0.20161-0.44565 0.20161-0.2016 0-0.42443-0.21221-0.21222-0.21222-0.21222-0.41383 0-0.25465 0.2016-0.45626 0.21222-0.21222 0.46688-0.21222 0.2016 0 0.41381 0.21222 0.21222 0.21221 0.21222 0.41382zm2.6632-2.5784q-0.24404-0.24405-0.74272-0.71094l-1.0186 1.0186q0.44564 0.33955 0.75334 0.74272l1.008-1.0505zm-2.9922 2.5678q0-0.06368-0.11671-0.16977-0.10611-0.11672-0.16977-0.11672-0.0955 0-0.20161 0.12734-0.10611 0.11672-0.10611 0.22283 0 0.25466 0.24405 0.25466 0.09549 0 0.22282-0.10612 0.12733-0.11671 0.12733-0.21221z"/>
</svg>
